%TF.GenerationSoftware,KiCad,Pcbnew,(6.0.9)*%
%TF.CreationDate,2022-12-30T23:11:11-05:00*%
%TF.ProjectId,reflow,7265666c-6f77-42e6-9b69-6361645f7063,rev?*%
%TF.SameCoordinates,Original*%
%TF.FileFunction,Profile,NP*%
%FSLAX46Y46*%
G04 Gerber Fmt 4.6, Leading zero omitted, Abs format (unit mm)*
G04 Created by KiCad (PCBNEW (6.0.9)) date 2022-12-30 23:11:11*
%MOMM*%
%LPD*%
G01*
G04 APERTURE LIST*
%TA.AperFunction,Profile*%
%ADD10C,0.100000*%
%TD*%
%TA.AperFunction,Profile*%
%ADD11C,0.200000*%
%TD*%
G04 APERTURE END LIST*
D10*
X243000000Y-153000000D02*
X247000000Y-153000000D01*
X243000000Y-23000000D02*
X247000000Y-23000000D01*
X129000000Y-29000000D02*
X129000000Y-39000000D01*
X125000000Y-39000000D02*
X125000000Y-29000000D01*
X129000000Y-46000000D02*
X129000000Y-58000000D01*
X125000000Y-58000000D02*
X125000000Y-46000000D01*
X134000000Y-60000000D02*
X155000000Y-60000000D01*
X155000000Y-64000000D02*
X134000000Y-64000000D01*
X160000000Y-68000000D02*
X176000000Y-68000000D01*
X160000000Y-64000000D02*
X176000000Y-64000000D01*
X183000000Y-68000000D02*
X199000000Y-68000000D01*
X199000000Y-64000000D02*
X183000000Y-64000000D01*
X204000000Y-59000000D02*
X239000000Y-59000000D01*
X239000000Y-63000000D02*
X204000000Y-63000000D01*
D11*
X183000000Y-64000000D02*
G75*
G03*
X183000000Y-68000000I0J-2000000D01*
G01*
X176000000Y-68000000D02*
G75*
G03*
X176000000Y-64000000I0J2000000D01*
G01*
X129000000Y-29000000D02*
G75*
G03*
X125000000Y-29000000I-2000000J0D01*
G01*
X125000000Y-39000000D02*
G75*
G03*
X129000000Y-39000000I2000000J0D01*
G01*
X129000000Y-46000000D02*
G75*
G03*
X125000000Y-46000000I-2000000J0D01*
G01*
X125000000Y-58000000D02*
G75*
G03*
X129000000Y-58000000I2000000J0D01*
G01*
X134000000Y-60000000D02*
G75*
G03*
X134000000Y-64000000I0J-2000000D01*
G01*
X155000000Y-64000000D02*
G75*
G03*
X155000000Y-60000000I0J2000000D01*
G01*
X160000000Y-64000000D02*
G75*
G03*
X160000000Y-68000000I0J-2000000D01*
G01*
X199000000Y-68000000D02*
G75*
G03*
X199000000Y-64000000I0J2000000D01*
G01*
X204000000Y-59000000D02*
G75*
G03*
X204000000Y-63000000I0J-2000000D01*
G01*
X239000000Y-63000000D02*
G75*
G03*
X239000000Y-59000000I0J2000000D01*
G01*
D10*
X38000000Y-23000000D02*
X242000000Y-23000000D01*
X38000000Y-153000000D02*
X38000000Y-23000000D01*
X243000000Y-153000000D02*
X38000000Y-153000000D01*
X247000000Y-23000000D02*
X247000000Y-153000000D01*
X242000000Y-23000000D02*
X243000000Y-23000000D01*
M02*
