%TF.GenerationSoftware,KiCad,Pcbnew,(6.0.9)*%
%TF.CreationDate,2022-12-30T23:11:11-05:00*%
%TF.ProjectId,reflow,7265666c-6f77-42e6-9b69-6361645f7063,rev?*%
%TF.SameCoordinates,Original*%
%TF.FileFunction,Legend,Top*%
%TF.FilePolarity,Positive*%
%FSLAX46Y46*%
G04 Gerber Fmt 4.6, Leading zero omitted, Abs format (unit mm)*
G04 Created by KiCad (PCBNEW (6.0.9)) date 2022-12-30 23:11:11*
%MOMM*%
%LPD*%
G01*
G04 APERTURE LIST*
%ADD10C,0.150000*%
%ADD11C,0.300000*%
%ADD12C,0.120000*%
G04 APERTURE END LIST*
D10*
X232238095Y-145071428D02*
X233000000Y-145071428D01*
X232619047Y-145452380D02*
X232619047Y-144690476D01*
X233380952Y-144452380D02*
X234000000Y-144452380D01*
X233666666Y-144833333D01*
X233809523Y-144833333D01*
X233904761Y-144880952D01*
X233952380Y-144928571D01*
X234000000Y-145023809D01*
X234000000Y-145261904D01*
X233952380Y-145357142D01*
X233904761Y-145404761D01*
X233809523Y-145452380D01*
X233523809Y-145452380D01*
X233428571Y-145404761D01*
X233380952Y-145357142D01*
X234285714Y-144452380D02*
X234619047Y-145452380D01*
X234952380Y-144452380D01*
X235190476Y-144452380D02*
X235809523Y-144452380D01*
X235476190Y-144833333D01*
X235619047Y-144833333D01*
X235714285Y-144880952D01*
X235761904Y-144928571D01*
X235809523Y-145023809D01*
X235809523Y-145261904D01*
X235761904Y-145357142D01*
X235714285Y-145404761D01*
X235619047Y-145452380D01*
X235333333Y-145452380D01*
X235238095Y-145404761D01*
X235190476Y-145357142D01*
X214809523Y-145071428D02*
X215571428Y-145071428D01*
X215190476Y-145452380D02*
X215190476Y-144690476D01*
X215952380Y-144452380D02*
X216571428Y-144452380D01*
X216238095Y-144833333D01*
X216380952Y-144833333D01*
X216476190Y-144880952D01*
X216523809Y-144928571D01*
X216571428Y-145023809D01*
X216571428Y-145261904D01*
X216523809Y-145357142D01*
X216476190Y-145404761D01*
X216380952Y-145452380D01*
X216095238Y-145452380D01*
X216000000Y-145404761D01*
X215952380Y-145357142D01*
X216857142Y-144452380D02*
X217190476Y-145452380D01*
X217523809Y-144452380D01*
X217761904Y-144452380D02*
X218380952Y-144452380D01*
X218047619Y-144833333D01*
X218190476Y-144833333D01*
X218285714Y-144880952D01*
X218333333Y-144928571D01*
X218380952Y-145023809D01*
X218380952Y-145261904D01*
X218333333Y-145357142D01*
X218285714Y-145404761D01*
X218190476Y-145452380D01*
X217904761Y-145452380D01*
X217809523Y-145404761D01*
X217761904Y-145357142D01*
X218761904Y-145166666D02*
X219238095Y-145166666D01*
X218666666Y-145452380D02*
X219000000Y-144452380D01*
X219333333Y-145452380D01*
X189238095Y-145071428D02*
X190000000Y-145071428D01*
X189619047Y-145452380D02*
X189619047Y-144690476D01*
X191000000Y-145452380D02*
X190428571Y-145452380D01*
X190714285Y-145452380D02*
X190714285Y-144452380D01*
X190619047Y-144595238D01*
X190523809Y-144690476D01*
X190428571Y-144738095D01*
X191380952Y-144547619D02*
X191428571Y-144500000D01*
X191523809Y-144452380D01*
X191761904Y-144452380D01*
X191857142Y-144500000D01*
X191904761Y-144547619D01*
X191952380Y-144642857D01*
X191952380Y-144738095D01*
X191904761Y-144880952D01*
X191333333Y-145452380D01*
X191952380Y-145452380D01*
X192238095Y-144452380D02*
X192571428Y-145452380D01*
X192904761Y-144452380D01*
X242000000Y-143000000D02*
X226000000Y-143000000D01*
X242000000Y-128000000D02*
X242000000Y-143000000D01*
X226000000Y-128000000D02*
X242000000Y-128000000D01*
X210000000Y-128000000D02*
X226000000Y-128000000D01*
X210000000Y-143000000D02*
X210000000Y-128000000D01*
X226000000Y-143000000D02*
X210000000Y-143000000D01*
X226000000Y-128000000D02*
X226000000Y-143000000D01*
X184000000Y-143000000D02*
X184000000Y-128000000D01*
X199000000Y-143000000D02*
X184000000Y-143000000D01*
X199000000Y-128000000D02*
X199000000Y-143000000D01*
X184000000Y-128000000D02*
X199000000Y-128000000D01*
X76700000Y-61980952D02*
X76652380Y-62076190D01*
X76652380Y-62219047D01*
X76700000Y-62361904D01*
X76795238Y-62457142D01*
X76890476Y-62504761D01*
X77080952Y-62552380D01*
X77223809Y-62552380D01*
X77414285Y-62504761D01*
X77509523Y-62457142D01*
X77604761Y-62361904D01*
X77652380Y-62219047D01*
X77652380Y-62123809D01*
X77604761Y-61980952D01*
X77557142Y-61933333D01*
X77223809Y-61933333D01*
X77223809Y-62123809D01*
X77652380Y-61504761D02*
X76652380Y-61504761D01*
X76652380Y-61123809D01*
X76700000Y-61028571D01*
X76747619Y-60980952D01*
X76842857Y-60933333D01*
X76985714Y-60933333D01*
X77080952Y-60980952D01*
X77128571Y-61028571D01*
X77176190Y-61123809D01*
X77176190Y-61504761D01*
X77652380Y-60504761D02*
X76652380Y-60504761D01*
X76652380Y-59838095D02*
X76652380Y-59647619D01*
X76700000Y-59552380D01*
X76795238Y-59457142D01*
X76985714Y-59409523D01*
X77319047Y-59409523D01*
X77509523Y-59457142D01*
X77604761Y-59552380D01*
X77652380Y-59647619D01*
X77652380Y-59838095D01*
X77604761Y-59933333D01*
X77509523Y-60028571D01*
X77319047Y-60076190D01*
X76985714Y-60076190D01*
X76795238Y-60028571D01*
X76700000Y-59933333D01*
X76652380Y-59838095D01*
X82742857Y-69652380D02*
X82742857Y-68652380D01*
X83409523Y-68652380D02*
X83600000Y-68652380D01*
X83695238Y-68700000D01*
X83790476Y-68795238D01*
X83838095Y-68985714D01*
X83838095Y-69319047D01*
X83790476Y-69509523D01*
X83695238Y-69604761D01*
X83600000Y-69652380D01*
X83409523Y-69652380D01*
X83314285Y-69604761D01*
X83219047Y-69509523D01*
X83171428Y-69319047D01*
X83171428Y-68985714D01*
X83219047Y-68795238D01*
X83314285Y-68700000D01*
X83409523Y-68652380D01*
X84028571Y-69747619D02*
X84790476Y-69747619D01*
X85219047Y-68652380D02*
X85314285Y-68652380D01*
X85409523Y-68700000D01*
X85457142Y-68747619D01*
X85504761Y-68842857D01*
X85552380Y-69033333D01*
X85552380Y-69271428D01*
X85504761Y-69461904D01*
X85457142Y-69557142D01*
X85409523Y-69604761D01*
X85314285Y-69652380D01*
X85219047Y-69652380D01*
X85123809Y-69604761D01*
X85076190Y-69557142D01*
X85028571Y-69461904D01*
X84980952Y-69271428D01*
X84980952Y-69033333D01*
X85028571Y-68842857D01*
X85076190Y-68747619D01*
X85123809Y-68700000D01*
X85219047Y-68652380D01*
X86409523Y-68652380D02*
X86219047Y-68652380D01*
X86123809Y-68700000D01*
X86076190Y-68747619D01*
X85980952Y-68890476D01*
X85933333Y-69080952D01*
X85933333Y-69461904D01*
X85980952Y-69557142D01*
X86028571Y-69604761D01*
X86123809Y-69652380D01*
X86314285Y-69652380D01*
X86409523Y-69604761D01*
X86457142Y-69557142D01*
X86504761Y-69461904D01*
X86504761Y-69223809D01*
X86457142Y-69128571D01*
X86409523Y-69080952D01*
X86314285Y-69033333D01*
X86123809Y-69033333D01*
X86028571Y-69080952D01*
X85980952Y-69128571D01*
X85933333Y-69223809D01*
X82742857Y-67052380D02*
X82742857Y-66052380D01*
X83409523Y-66052380D02*
X83600000Y-66052380D01*
X83695238Y-66100000D01*
X83790476Y-66195238D01*
X83838095Y-66385714D01*
X83838095Y-66719047D01*
X83790476Y-66909523D01*
X83695238Y-67004761D01*
X83600000Y-67052380D01*
X83409523Y-67052380D01*
X83314285Y-67004761D01*
X83219047Y-66909523D01*
X83171428Y-66719047D01*
X83171428Y-66385714D01*
X83219047Y-66195238D01*
X83314285Y-66100000D01*
X83409523Y-66052380D01*
X84028571Y-67147619D02*
X84790476Y-67147619D01*
X85219047Y-66052380D02*
X85314285Y-66052380D01*
X85409523Y-66100000D01*
X85457142Y-66147619D01*
X85504761Y-66242857D01*
X85552380Y-66433333D01*
X85552380Y-66671428D01*
X85504761Y-66861904D01*
X85457142Y-66957142D01*
X85409523Y-67004761D01*
X85314285Y-67052380D01*
X85219047Y-67052380D01*
X85123809Y-67004761D01*
X85076190Y-66957142D01*
X85028571Y-66861904D01*
X84980952Y-66671428D01*
X84980952Y-66433333D01*
X85028571Y-66242857D01*
X85076190Y-66147619D01*
X85123809Y-66100000D01*
X85219047Y-66052380D01*
X86457142Y-66052380D02*
X85980952Y-66052380D01*
X85933333Y-66528571D01*
X85980952Y-66480952D01*
X86076190Y-66433333D01*
X86314285Y-66433333D01*
X86409523Y-66480952D01*
X86457142Y-66528571D01*
X86504761Y-66623809D01*
X86504761Y-66861904D01*
X86457142Y-66957142D01*
X86409523Y-67004761D01*
X86314285Y-67052380D01*
X86076190Y-67052380D01*
X85980952Y-67004761D01*
X85933333Y-66957142D01*
X82742857Y-64652380D02*
X82742857Y-63652380D01*
X83409523Y-63652380D02*
X83600000Y-63652380D01*
X83695238Y-63700000D01*
X83790476Y-63795238D01*
X83838095Y-63985714D01*
X83838095Y-64319047D01*
X83790476Y-64509523D01*
X83695238Y-64604761D01*
X83600000Y-64652380D01*
X83409523Y-64652380D01*
X83314285Y-64604761D01*
X83219047Y-64509523D01*
X83171428Y-64319047D01*
X83171428Y-63985714D01*
X83219047Y-63795238D01*
X83314285Y-63700000D01*
X83409523Y-63652380D01*
X84028571Y-64747619D02*
X84790476Y-64747619D01*
X85219047Y-63652380D02*
X85314285Y-63652380D01*
X85409523Y-63700000D01*
X85457142Y-63747619D01*
X85504761Y-63842857D01*
X85552380Y-64033333D01*
X85552380Y-64271428D01*
X85504761Y-64461904D01*
X85457142Y-64557142D01*
X85409523Y-64604761D01*
X85314285Y-64652380D01*
X85219047Y-64652380D01*
X85123809Y-64604761D01*
X85076190Y-64557142D01*
X85028571Y-64461904D01*
X84980952Y-64271428D01*
X84980952Y-64033333D01*
X85028571Y-63842857D01*
X85076190Y-63747619D01*
X85123809Y-63700000D01*
X85219047Y-63652380D01*
X86409523Y-63985714D02*
X86409523Y-64652380D01*
X86171428Y-63604761D02*
X85933333Y-64319047D01*
X86552380Y-64319047D01*
X82742857Y-62052380D02*
X82742857Y-61052380D01*
X83409523Y-61052380D02*
X83600000Y-61052380D01*
X83695238Y-61100000D01*
X83790476Y-61195238D01*
X83838095Y-61385714D01*
X83838095Y-61719047D01*
X83790476Y-61909523D01*
X83695238Y-62004761D01*
X83600000Y-62052380D01*
X83409523Y-62052380D01*
X83314285Y-62004761D01*
X83219047Y-61909523D01*
X83171428Y-61719047D01*
X83171428Y-61385714D01*
X83219047Y-61195238D01*
X83314285Y-61100000D01*
X83409523Y-61052380D01*
X84028571Y-62147619D02*
X84790476Y-62147619D01*
X85219047Y-61052380D02*
X85314285Y-61052380D01*
X85409523Y-61100000D01*
X85457142Y-61147619D01*
X85504761Y-61242857D01*
X85552380Y-61433333D01*
X85552380Y-61671428D01*
X85504761Y-61861904D01*
X85457142Y-61957142D01*
X85409523Y-62004761D01*
X85314285Y-62052380D01*
X85219047Y-62052380D01*
X85123809Y-62004761D01*
X85076190Y-61957142D01*
X85028571Y-61861904D01*
X84980952Y-61671428D01*
X84980952Y-61433333D01*
X85028571Y-61242857D01*
X85076190Y-61147619D01*
X85123809Y-61100000D01*
X85219047Y-61052380D01*
X85885714Y-61052380D02*
X86504761Y-61052380D01*
X86171428Y-61433333D01*
X86314285Y-61433333D01*
X86409523Y-61480952D01*
X86457142Y-61528571D01*
X86504761Y-61623809D01*
X86504761Y-61861904D01*
X86457142Y-61957142D01*
X86409523Y-62004761D01*
X86314285Y-62052380D01*
X86028571Y-62052380D01*
X85933333Y-62004761D01*
X85885714Y-61957142D01*
X82742857Y-59652380D02*
X82742857Y-58652380D01*
X83409523Y-58652380D02*
X83600000Y-58652380D01*
X83695238Y-58700000D01*
X83790476Y-58795238D01*
X83838095Y-58985714D01*
X83838095Y-59319047D01*
X83790476Y-59509523D01*
X83695238Y-59604761D01*
X83600000Y-59652380D01*
X83409523Y-59652380D01*
X83314285Y-59604761D01*
X83219047Y-59509523D01*
X83171428Y-59319047D01*
X83171428Y-58985714D01*
X83219047Y-58795238D01*
X83314285Y-58700000D01*
X83409523Y-58652380D01*
X84028571Y-59747619D02*
X84790476Y-59747619D01*
X85219047Y-58652380D02*
X85314285Y-58652380D01*
X85409523Y-58700000D01*
X85457142Y-58747619D01*
X85504761Y-58842857D01*
X85552380Y-59033333D01*
X85552380Y-59271428D01*
X85504761Y-59461904D01*
X85457142Y-59557142D01*
X85409523Y-59604761D01*
X85314285Y-59652380D01*
X85219047Y-59652380D01*
X85123809Y-59604761D01*
X85076190Y-59557142D01*
X85028571Y-59461904D01*
X84980952Y-59271428D01*
X84980952Y-59033333D01*
X85028571Y-58842857D01*
X85076190Y-58747619D01*
X85123809Y-58700000D01*
X85219047Y-58652380D01*
X85933333Y-58747619D02*
X85980952Y-58700000D01*
X86076190Y-58652380D01*
X86314285Y-58652380D01*
X86409523Y-58700000D01*
X86457142Y-58747619D01*
X86504761Y-58842857D01*
X86504761Y-58938095D01*
X86457142Y-59080952D01*
X85885714Y-59652380D01*
X86504761Y-59652380D01*
X82742857Y-56852380D02*
X82742857Y-55852380D01*
X83409523Y-55852380D02*
X83600000Y-55852380D01*
X83695238Y-55900000D01*
X83790476Y-55995238D01*
X83838095Y-56185714D01*
X83838095Y-56519047D01*
X83790476Y-56709523D01*
X83695238Y-56804761D01*
X83600000Y-56852380D01*
X83409523Y-56852380D01*
X83314285Y-56804761D01*
X83219047Y-56709523D01*
X83171428Y-56519047D01*
X83171428Y-56185714D01*
X83219047Y-55995238D01*
X83314285Y-55900000D01*
X83409523Y-55852380D01*
X84028571Y-56947619D02*
X84790476Y-56947619D01*
X85219047Y-55852380D02*
X85314285Y-55852380D01*
X85409523Y-55900000D01*
X85457142Y-55947619D01*
X85504761Y-56042857D01*
X85552380Y-56233333D01*
X85552380Y-56471428D01*
X85504761Y-56661904D01*
X85457142Y-56757142D01*
X85409523Y-56804761D01*
X85314285Y-56852380D01*
X85219047Y-56852380D01*
X85123809Y-56804761D01*
X85076190Y-56757142D01*
X85028571Y-56661904D01*
X84980952Y-56471428D01*
X84980952Y-56233333D01*
X85028571Y-56042857D01*
X85076190Y-55947619D01*
X85123809Y-55900000D01*
X85219047Y-55852380D01*
X86504761Y-56852380D02*
X85933333Y-56852380D01*
X86219047Y-56852380D02*
X86219047Y-55852380D01*
X86123809Y-55995238D01*
X86028571Y-56090476D01*
X85933333Y-56138095D01*
X82742857Y-54252380D02*
X82742857Y-53252380D01*
X83409523Y-53252380D02*
X83600000Y-53252380D01*
X83695238Y-53300000D01*
X83790476Y-53395238D01*
X83838095Y-53585714D01*
X83838095Y-53919047D01*
X83790476Y-54109523D01*
X83695238Y-54204761D01*
X83600000Y-54252380D01*
X83409523Y-54252380D01*
X83314285Y-54204761D01*
X83219047Y-54109523D01*
X83171428Y-53919047D01*
X83171428Y-53585714D01*
X83219047Y-53395238D01*
X83314285Y-53300000D01*
X83409523Y-53252380D01*
X84028571Y-54347619D02*
X84790476Y-54347619D01*
X85219047Y-53252380D02*
X85314285Y-53252380D01*
X85409523Y-53300000D01*
X85457142Y-53347619D01*
X85504761Y-53442857D01*
X85552380Y-53633333D01*
X85552380Y-53871428D01*
X85504761Y-54061904D01*
X85457142Y-54157142D01*
X85409523Y-54204761D01*
X85314285Y-54252380D01*
X85219047Y-54252380D01*
X85123809Y-54204761D01*
X85076190Y-54157142D01*
X85028571Y-54061904D01*
X84980952Y-53871428D01*
X84980952Y-53633333D01*
X85028571Y-53442857D01*
X85076190Y-53347619D01*
X85123809Y-53300000D01*
X85219047Y-53252380D01*
X86171428Y-53252380D02*
X86266666Y-53252380D01*
X86361904Y-53300000D01*
X86409523Y-53347619D01*
X86457142Y-53442857D01*
X86504761Y-53633333D01*
X86504761Y-53871428D01*
X86457142Y-54061904D01*
X86409523Y-54157142D01*
X86361904Y-54204761D01*
X86266666Y-54252380D01*
X86171428Y-54252380D01*
X86076190Y-54204761D01*
X86028571Y-54157142D01*
X85980952Y-54061904D01*
X85933333Y-53871428D01*
X85933333Y-53633333D01*
X85980952Y-53442857D01*
X86028571Y-53347619D01*
X86076190Y-53300000D01*
X86171428Y-53252380D01*
X56019047Y-29471428D02*
X56780952Y-29471428D01*
X68419047Y-29471428D02*
X69180952Y-29471428D01*
X68800000Y-29852380D02*
X68800000Y-29090476D01*
X59957142Y-35252380D02*
X59957142Y-34252380D01*
X60528571Y-35252380D02*
X60100000Y-34680952D01*
X60528571Y-34252380D02*
X59957142Y-34823809D01*
X60957142Y-34871428D02*
X61719047Y-34871428D01*
X62052380Y-34252380D02*
X62623809Y-34252380D01*
X62338095Y-35252380D02*
X62338095Y-34252380D01*
X63147619Y-34776190D02*
X63147619Y-35252380D01*
X62814285Y-34252380D02*
X63147619Y-34776190D01*
X63480952Y-34252380D01*
X63814285Y-35252380D02*
X63814285Y-34252380D01*
X64195238Y-34252380D01*
X64290476Y-34300000D01*
X64338095Y-34347619D01*
X64385714Y-34442857D01*
X64385714Y-34585714D01*
X64338095Y-34680952D01*
X64290476Y-34728571D01*
X64195238Y-34776190D01*
X63814285Y-34776190D01*
X64814285Y-34728571D02*
X65147619Y-34728571D01*
X65290476Y-35252380D02*
X64814285Y-35252380D01*
X64814285Y-34252380D01*
X65290476Y-34252380D01*
X161652380Y-38233333D02*
X161652380Y-38709523D01*
X160652380Y-38709523D01*
X161652380Y-37900000D02*
X160652380Y-37900000D01*
X160700000Y-36900000D02*
X160652380Y-36995238D01*
X160652380Y-37138095D01*
X160700000Y-37280952D01*
X160795238Y-37376190D01*
X160890476Y-37423809D01*
X161080952Y-37471428D01*
X161223809Y-37471428D01*
X161414285Y-37423809D01*
X161509523Y-37376190D01*
X161604761Y-37280952D01*
X161652380Y-37138095D01*
X161652380Y-37042857D01*
X161604761Y-36900000D01*
X161557142Y-36852380D01*
X161223809Y-36852380D01*
X161223809Y-37042857D01*
X161652380Y-36423809D02*
X160652380Y-36423809D01*
X161128571Y-36423809D02*
X161128571Y-35852380D01*
X161652380Y-35852380D02*
X160652380Y-35852380D01*
X160652380Y-35519047D02*
X160652380Y-34947619D01*
X161652380Y-35233333D02*
X160652380Y-35233333D01*
X165728571Y-36809523D02*
X165728571Y-37142857D01*
X166252380Y-37142857D02*
X165252380Y-37142857D01*
X165252380Y-36666666D01*
X165966666Y-36333333D02*
X165966666Y-35857142D01*
X166252380Y-36428571D02*
X165252380Y-36095238D01*
X166252380Y-35761904D01*
X166252380Y-35428571D02*
X165252380Y-35428571D01*
X166252380Y-34857142D01*
X165252380Y-34857142D01*
X171852380Y-38242857D02*
X170852380Y-38242857D01*
X171328571Y-38242857D02*
X171328571Y-37671428D01*
X171852380Y-37671428D02*
X170852380Y-37671428D01*
X170852380Y-37338095D02*
X170852380Y-36766666D01*
X171852380Y-37052380D02*
X170852380Y-37052380D01*
X171852380Y-35861904D02*
X171376190Y-36195238D01*
X171852380Y-36433333D02*
X170852380Y-36433333D01*
X170852380Y-36052380D01*
X170900000Y-35957142D01*
X170947619Y-35909523D01*
X171042857Y-35861904D01*
X171185714Y-35861904D01*
X171280952Y-35909523D01*
X171328571Y-35957142D01*
X171376190Y-36052380D01*
X171376190Y-36433333D01*
X170947619Y-35480952D02*
X170900000Y-35433333D01*
X170852380Y-35338095D01*
X170852380Y-35100000D01*
X170900000Y-35004761D01*
X170947619Y-34957142D01*
X171042857Y-34909523D01*
X171138095Y-34909523D01*
X171280952Y-34957142D01*
X171852380Y-35528571D01*
X171852380Y-34909523D01*
X176652380Y-38042857D02*
X175652380Y-38042857D01*
X176128571Y-38042857D02*
X176128571Y-37471428D01*
X176652380Y-37471428D02*
X175652380Y-37471428D01*
X175652380Y-37138095D02*
X175652380Y-36566666D01*
X176652380Y-36852380D02*
X175652380Y-36852380D01*
X176652380Y-35661904D02*
X176176190Y-35995238D01*
X176652380Y-36233333D02*
X175652380Y-36233333D01*
X175652380Y-35852380D01*
X175700000Y-35757142D01*
X175747619Y-35709523D01*
X175842857Y-35661904D01*
X175985714Y-35661904D01*
X176080952Y-35709523D01*
X176128571Y-35757142D01*
X176176190Y-35852380D01*
X176176190Y-36233333D01*
X176652380Y-34709523D02*
X176652380Y-35280952D01*
X176652380Y-34995238D02*
X175652380Y-34995238D01*
X175795238Y-35090476D01*
X175890476Y-35185714D01*
X175938095Y-35280952D01*
X221771428Y-35652380D02*
X221200000Y-35652380D01*
X221485714Y-35652380D02*
X221485714Y-34652380D01*
X221390476Y-34795238D01*
X221295238Y-34890476D01*
X221200000Y-34938095D01*
X222152380Y-34747619D02*
X222200000Y-34700000D01*
X222295238Y-34652380D01*
X222533333Y-34652380D01*
X222628571Y-34700000D01*
X222676190Y-34747619D01*
X222723809Y-34842857D01*
X222723809Y-34938095D01*
X222676190Y-35080952D01*
X222104761Y-35652380D01*
X222723809Y-35652380D01*
X223342857Y-34652380D02*
X223438095Y-34652380D01*
X223533333Y-34700000D01*
X223580952Y-34747619D01*
X223628571Y-34842857D01*
X223676190Y-35033333D01*
X223676190Y-35271428D01*
X223628571Y-35461904D01*
X223580952Y-35557142D01*
X223533333Y-35604761D01*
X223438095Y-35652380D01*
X223342857Y-35652380D01*
X223247619Y-35604761D01*
X223200000Y-35557142D01*
X223152380Y-35461904D01*
X223104761Y-35271428D01*
X223104761Y-35033333D01*
X223152380Y-34842857D01*
X223200000Y-34747619D01*
X223247619Y-34700000D01*
X223342857Y-34652380D01*
X224723809Y-34652380D02*
X225057142Y-35652380D01*
X225390476Y-34652380D01*
X225676190Y-35366666D02*
X226152380Y-35366666D01*
X225580952Y-35652380D02*
X225914285Y-34652380D01*
X226247619Y-35652380D01*
X227152380Y-35557142D02*
X227104761Y-35604761D01*
X226961904Y-35652380D01*
X226866666Y-35652380D01*
X226723809Y-35604761D01*
X226628571Y-35509523D01*
X226580952Y-35414285D01*
X226533333Y-35223809D01*
X226533333Y-35080952D01*
X226580952Y-34890476D01*
X226628571Y-34795238D01*
X226723809Y-34700000D01*
X226866666Y-34652380D01*
X226961904Y-34652380D01*
X227104761Y-34700000D01*
X227152380Y-34747619D01*
X228342857Y-35652380D02*
X228342857Y-34652380D01*
X228914285Y-35652380D01*
X228914285Y-34652380D01*
X229390476Y-35128571D02*
X229723809Y-35128571D01*
X229866666Y-35652380D02*
X229390476Y-35652380D01*
X229390476Y-34652380D01*
X229866666Y-34652380D01*
X230247619Y-35366666D02*
X230723809Y-35366666D01*
X230152380Y-35652380D02*
X230485714Y-34652380D01*
X230819047Y-35652380D01*
X231009523Y-34652380D02*
X231580952Y-34652380D01*
X231295238Y-35652380D02*
X231295238Y-34652380D01*
X231914285Y-34652380D02*
X231914285Y-35461904D01*
X231961904Y-35557142D01*
X232009523Y-35604761D01*
X232104761Y-35652380D01*
X232295238Y-35652380D01*
X232390476Y-35604761D01*
X232438095Y-35557142D01*
X232485714Y-35461904D01*
X232485714Y-34652380D01*
X233533333Y-35652380D02*
X233200000Y-35176190D01*
X232961904Y-35652380D02*
X232961904Y-34652380D01*
X233342857Y-34652380D01*
X233438095Y-34700000D01*
X233485714Y-34747619D01*
X233533333Y-34842857D01*
X233533333Y-34985714D01*
X233485714Y-35080952D01*
X233438095Y-35128571D01*
X233342857Y-35176190D01*
X232961904Y-35176190D01*
X233914285Y-35366666D02*
X234390476Y-35366666D01*
X233819047Y-35652380D02*
X234152380Y-34652380D01*
X234485714Y-35652380D01*
X235295238Y-35652380D02*
X234819047Y-35652380D01*
X234819047Y-34652380D01*
X216128571Y-37647619D02*
X216128571Y-37314285D01*
X216652380Y-37171428D02*
X216652380Y-37647619D01*
X215652380Y-37647619D01*
X215652380Y-37171428D01*
X216366666Y-36790476D02*
X216366666Y-36314285D01*
X216652380Y-36885714D02*
X215652380Y-36552380D01*
X216652380Y-36219047D01*
X216652380Y-35314285D02*
X216176190Y-35647619D01*
X216652380Y-35885714D02*
X215652380Y-35885714D01*
X215652380Y-35504761D01*
X215700000Y-35409523D01*
X215747619Y-35361904D01*
X215842857Y-35314285D01*
X215985714Y-35314285D01*
X216080952Y-35361904D01*
X216128571Y-35409523D01*
X216176190Y-35504761D01*
X216176190Y-35885714D01*
X215652380Y-35028571D02*
X215652380Y-34457142D01*
X216652380Y-34742857D02*
X215652380Y-34742857D01*
X216652380Y-34123809D02*
X215652380Y-34123809D01*
X216128571Y-34123809D02*
X216128571Y-33552380D01*
X216652380Y-33552380D02*
X215652380Y-33552380D01*
X211452380Y-39004761D02*
X211452380Y-39576190D01*
X211452380Y-39290476D02*
X210452380Y-39290476D01*
X210595238Y-39385714D01*
X210690476Y-39480952D01*
X210738095Y-39576190D01*
X210547619Y-38623809D02*
X210500000Y-38576190D01*
X210452380Y-38480952D01*
X210452380Y-38242857D01*
X210500000Y-38147619D01*
X210547619Y-38100000D01*
X210642857Y-38052380D01*
X210738095Y-38052380D01*
X210880952Y-38100000D01*
X211452380Y-38671428D01*
X211452380Y-38052380D01*
X210452380Y-37433333D02*
X210452380Y-37338095D01*
X210500000Y-37242857D01*
X210547619Y-37195238D01*
X210642857Y-37147619D01*
X210833333Y-37100000D01*
X211071428Y-37100000D01*
X211261904Y-37147619D01*
X211357142Y-37195238D01*
X211404761Y-37242857D01*
X211452380Y-37338095D01*
X211452380Y-37433333D01*
X211404761Y-37528571D01*
X211357142Y-37576190D01*
X211261904Y-37623809D01*
X211071428Y-37671428D01*
X210833333Y-37671428D01*
X210642857Y-37623809D01*
X210547619Y-37576190D01*
X210500000Y-37528571D01*
X210452380Y-37433333D01*
X210452380Y-36052380D02*
X211452380Y-35719047D01*
X210452380Y-35385714D01*
X211166666Y-35100000D02*
X211166666Y-34623809D01*
X211452380Y-35195238D02*
X210452380Y-34861904D01*
X211452380Y-34528571D01*
X211357142Y-33623809D02*
X211404761Y-33671428D01*
X211452380Y-33814285D01*
X211452380Y-33909523D01*
X211404761Y-34052380D01*
X211309523Y-34147619D01*
X211214285Y-34195238D01*
X211023809Y-34242857D01*
X210880952Y-34242857D01*
X210690476Y-34195238D01*
X210595238Y-34147619D01*
X210500000Y-34052380D01*
X210452380Y-33909523D01*
X210452380Y-33814285D01*
X210500000Y-33671428D01*
X210547619Y-33623809D01*
X115247380Y-87133333D02*
X116247380Y-86895238D01*
X115533095Y-86704761D01*
X116247380Y-86514285D01*
X115247380Y-86276190D01*
X116247380Y-85895238D02*
X115247380Y-85895238D01*
X115723571Y-85085714D02*
X115723571Y-85419047D01*
X116247380Y-85419047D02*
X115247380Y-85419047D01*
X115247380Y-84942857D01*
X116247380Y-84561904D02*
X115247380Y-84561904D01*
X117762142Y-89347619D02*
X117809761Y-89395238D01*
X117857380Y-89538095D01*
X117857380Y-89633333D01*
X117809761Y-89776190D01*
X117714523Y-89871428D01*
X117619285Y-89919047D01*
X117428809Y-89966666D01*
X117285952Y-89966666D01*
X117095476Y-89919047D01*
X117000238Y-89871428D01*
X116905000Y-89776190D01*
X116857380Y-89633333D01*
X116857380Y-89538095D01*
X116905000Y-89395238D01*
X116952619Y-89347619D01*
X116857380Y-88728571D02*
X116857380Y-88538095D01*
X116905000Y-88442857D01*
X117000238Y-88347619D01*
X117190714Y-88300000D01*
X117524047Y-88300000D01*
X117714523Y-88347619D01*
X117809761Y-88442857D01*
X117857380Y-88538095D01*
X117857380Y-88728571D01*
X117809761Y-88823809D01*
X117714523Y-88919047D01*
X117524047Y-88966666D01*
X117190714Y-88966666D01*
X117000238Y-88919047D01*
X116905000Y-88823809D01*
X116857380Y-88728571D01*
X117857380Y-87871428D02*
X116857380Y-87871428D01*
X117857380Y-87300000D01*
X116857380Y-87300000D01*
X117857380Y-86823809D02*
X116857380Y-86823809D01*
X117857380Y-86252380D01*
X116857380Y-86252380D01*
X117333571Y-85776190D02*
X117333571Y-85442857D01*
X117857380Y-85300000D02*
X117857380Y-85776190D01*
X116857380Y-85776190D01*
X116857380Y-85300000D01*
X117762142Y-84300000D02*
X117809761Y-84347619D01*
X117857380Y-84490476D01*
X117857380Y-84585714D01*
X117809761Y-84728571D01*
X117714523Y-84823809D01*
X117619285Y-84871428D01*
X117428809Y-84919047D01*
X117285952Y-84919047D01*
X117095476Y-84871428D01*
X117000238Y-84823809D01*
X116905000Y-84728571D01*
X116857380Y-84585714D01*
X116857380Y-84490476D01*
X116905000Y-84347619D01*
X116952619Y-84300000D01*
X116857380Y-84014285D02*
X116857380Y-83442857D01*
X117857380Y-83728571D02*
X116857380Y-83728571D01*
X117333571Y-83109523D02*
X117333571Y-82776190D01*
X117857380Y-82633333D02*
X117857380Y-83109523D01*
X116857380Y-83109523D01*
X116857380Y-82633333D01*
X117857380Y-82204761D02*
X116857380Y-82204761D01*
X116857380Y-81966666D01*
X116905000Y-81823809D01*
X117000238Y-81728571D01*
X117095476Y-81680952D01*
X117285952Y-81633333D01*
X117428809Y-81633333D01*
X117619285Y-81680952D01*
X117714523Y-81728571D01*
X117809761Y-81823809D01*
X117857380Y-81966666D01*
X117857380Y-82204761D01*
X111847380Y-87333333D02*
X112847380Y-87095238D01*
X112133095Y-86904761D01*
X112847380Y-86714285D01*
X111847380Y-86476190D01*
X112847380Y-86095238D02*
X111847380Y-86095238D01*
X112323571Y-85285714D02*
X112323571Y-85619047D01*
X112847380Y-85619047D02*
X111847380Y-85619047D01*
X111847380Y-85142857D01*
X112847380Y-84761904D02*
X111847380Y-84761904D01*
X114362142Y-89857142D02*
X114409761Y-89904761D01*
X114457380Y-90047619D01*
X114457380Y-90142857D01*
X114409761Y-90285714D01*
X114314523Y-90380952D01*
X114219285Y-90428571D01*
X114028809Y-90476190D01*
X113885952Y-90476190D01*
X113695476Y-90428571D01*
X113600238Y-90380952D01*
X113505000Y-90285714D01*
X113457380Y-90142857D01*
X113457380Y-90047619D01*
X113505000Y-89904761D01*
X113552619Y-89857142D01*
X113457380Y-89238095D02*
X113457380Y-89047619D01*
X113505000Y-88952380D01*
X113600238Y-88857142D01*
X113790714Y-88809523D01*
X114124047Y-88809523D01*
X114314523Y-88857142D01*
X114409761Y-88952380D01*
X114457380Y-89047619D01*
X114457380Y-89238095D01*
X114409761Y-89333333D01*
X114314523Y-89428571D01*
X114124047Y-89476190D01*
X113790714Y-89476190D01*
X113600238Y-89428571D01*
X113505000Y-89333333D01*
X113457380Y-89238095D01*
X114457380Y-88380952D02*
X113457380Y-88380952D01*
X114457380Y-87809523D01*
X113457380Y-87809523D01*
X114457380Y-87333333D02*
X113457380Y-87333333D01*
X114457380Y-86761904D01*
X113457380Y-86761904D01*
X113933571Y-86285714D02*
X113933571Y-85952380D01*
X114457380Y-85809523D02*
X114457380Y-86285714D01*
X113457380Y-86285714D01*
X113457380Y-85809523D01*
X114362142Y-84809523D02*
X114409761Y-84857142D01*
X114457380Y-85000000D01*
X114457380Y-85095238D01*
X114409761Y-85238095D01*
X114314523Y-85333333D01*
X114219285Y-85380952D01*
X114028809Y-85428571D01*
X113885952Y-85428571D01*
X113695476Y-85380952D01*
X113600238Y-85333333D01*
X113505000Y-85238095D01*
X113457380Y-85095238D01*
X113457380Y-85000000D01*
X113505000Y-84857142D01*
X113552619Y-84809523D01*
X113457380Y-84523809D02*
X113457380Y-83952380D01*
X114457380Y-84238095D02*
X113457380Y-84238095D01*
X114457380Y-83619047D02*
X113457380Y-83619047D01*
X114457380Y-83142857D02*
X113457380Y-83142857D01*
X114457380Y-82571428D01*
X113457380Y-82571428D01*
X113505000Y-81571428D02*
X113457380Y-81666666D01*
X113457380Y-81809523D01*
X113505000Y-81952380D01*
X113600238Y-82047619D01*
X113695476Y-82095238D01*
X113885952Y-82142857D01*
X114028809Y-82142857D01*
X114219285Y-82095238D01*
X114314523Y-82047619D01*
X114409761Y-81952380D01*
X114457380Y-81809523D01*
X114457380Y-81714285D01*
X114409761Y-81571428D01*
X114362142Y-81523809D01*
X114028809Y-81523809D01*
X114028809Y-81714285D01*
X110252380Y-87066666D02*
X109252380Y-87066666D01*
X110252380Y-86495238D01*
X109252380Y-86495238D01*
X109252380Y-85828571D02*
X109252380Y-85638095D01*
X109300000Y-85542857D01*
X109395238Y-85447619D01*
X109585714Y-85400000D01*
X109919047Y-85400000D01*
X110109523Y-85447619D01*
X110204761Y-85542857D01*
X110252380Y-85638095D01*
X110252380Y-85828571D01*
X110204761Y-85923809D01*
X110109523Y-86019047D01*
X109919047Y-86066666D01*
X109585714Y-86066666D01*
X109395238Y-86019047D01*
X109300000Y-85923809D01*
X109252380Y-85828571D01*
X109252380Y-84304761D02*
X110252380Y-84066666D01*
X109538095Y-83876190D01*
X110252380Y-83685714D01*
X109252380Y-83447619D01*
X110252380Y-83066666D02*
X109252380Y-83066666D01*
X109728571Y-82257142D02*
X109728571Y-82590476D01*
X110252380Y-82590476D02*
X109252380Y-82590476D01*
X109252380Y-82114285D01*
X110252380Y-81733333D02*
X109252380Y-81733333D01*
X106452380Y-85500000D02*
X105976190Y-85833333D01*
X106452380Y-86071428D02*
X105452380Y-86071428D01*
X105452380Y-85690476D01*
X105500000Y-85595238D01*
X105547619Y-85547619D01*
X105642857Y-85500000D01*
X105785714Y-85500000D01*
X105880952Y-85547619D01*
X105928571Y-85595238D01*
X105976190Y-85690476D01*
X105976190Y-86071428D01*
X105928571Y-85071428D02*
X105928571Y-84738095D01*
X106452380Y-84595238D02*
X106452380Y-85071428D01*
X105452380Y-85071428D01*
X105452380Y-84595238D01*
X106166666Y-84214285D02*
X106166666Y-83738095D01*
X106452380Y-84309523D02*
X105452380Y-83976190D01*
X106452380Y-83642857D01*
X106452380Y-83309523D02*
X105452380Y-83309523D01*
X105452380Y-83071428D01*
X105500000Y-82928571D01*
X105595238Y-82833333D01*
X105690476Y-82785714D01*
X105880952Y-82738095D01*
X106023809Y-82738095D01*
X106214285Y-82785714D01*
X106309523Y-82833333D01*
X106404761Y-82928571D01*
X106452380Y-83071428D01*
X106452380Y-83309523D01*
X105976190Y-82119047D02*
X106452380Y-82119047D01*
X105452380Y-82452380D02*
X105976190Y-82119047D01*
X105452380Y-81785714D01*
X103052380Y-87523809D02*
X102576190Y-87857142D01*
X103052380Y-88095238D02*
X102052380Y-88095238D01*
X102052380Y-87714285D01*
X102100000Y-87619047D01*
X102147619Y-87571428D01*
X102242857Y-87523809D01*
X102385714Y-87523809D01*
X102480952Y-87571428D01*
X102528571Y-87619047D01*
X102576190Y-87714285D01*
X102576190Y-88095238D01*
X102052380Y-87095238D02*
X102861904Y-87095238D01*
X102957142Y-87047619D01*
X103004761Y-87000000D01*
X103052380Y-86904761D01*
X103052380Y-86714285D01*
X103004761Y-86619047D01*
X102957142Y-86571428D01*
X102861904Y-86523809D01*
X102052380Y-86523809D01*
X103052380Y-86047619D02*
X102052380Y-86047619D01*
X103052380Y-85476190D01*
X102052380Y-85476190D01*
X103052380Y-85000000D02*
X102052380Y-85000000D01*
X103052380Y-84428571D01*
X102052380Y-84428571D01*
X103052380Y-83952380D02*
X102052380Y-83952380D01*
X103052380Y-83476190D02*
X102052380Y-83476190D01*
X103052380Y-82904761D01*
X102052380Y-82904761D01*
X102100000Y-81904761D02*
X102052380Y-82000000D01*
X102052380Y-82142857D01*
X102100000Y-82285714D01*
X102195238Y-82380952D01*
X102290476Y-82428571D01*
X102480952Y-82476190D01*
X102623809Y-82476190D01*
X102814285Y-82428571D01*
X102909523Y-82380952D01*
X103004761Y-82285714D01*
X103052380Y-82142857D01*
X103052380Y-82047619D01*
X103004761Y-81904761D01*
X102957142Y-81857142D01*
X102623809Y-81857142D01*
X102623809Y-82047619D01*
X56747619Y-62852380D02*
X56414285Y-62376190D01*
X56176190Y-62852380D02*
X56176190Y-61852380D01*
X56557142Y-61852380D01*
X56652380Y-61900000D01*
X56700000Y-61947619D01*
X56747619Y-62042857D01*
X56747619Y-62185714D01*
X56700000Y-62280952D01*
X56652380Y-62328571D01*
X56557142Y-62376190D01*
X56176190Y-62376190D01*
X57176190Y-62328571D02*
X57509523Y-62328571D01*
X57652380Y-62852380D02*
X57176190Y-62852380D01*
X57176190Y-61852380D01*
X57652380Y-61852380D01*
X58033333Y-62804761D02*
X58176190Y-62852380D01*
X58414285Y-62852380D01*
X58509523Y-62804761D01*
X58557142Y-62757142D01*
X58604761Y-62661904D01*
X58604761Y-62566666D01*
X58557142Y-62471428D01*
X58509523Y-62423809D01*
X58414285Y-62376190D01*
X58223809Y-62328571D01*
X58128571Y-62280952D01*
X58080952Y-62233333D01*
X58033333Y-62138095D01*
X58033333Y-62042857D01*
X58080952Y-61947619D01*
X58128571Y-61900000D01*
X58223809Y-61852380D01*
X58461904Y-61852380D01*
X58604761Y-61900000D01*
X59033333Y-62328571D02*
X59366666Y-62328571D01*
X59509523Y-62852380D02*
X59033333Y-62852380D01*
X59033333Y-61852380D01*
X59509523Y-61852380D01*
X59795238Y-61852380D02*
X60366666Y-61852380D01*
X60080952Y-62852380D02*
X60080952Y-61852380D01*
X41957142Y-135985714D02*
X41957142Y-135414285D01*
X42100000Y-135128571D01*
X42385714Y-134842857D01*
X42957142Y-134700000D01*
X43957142Y-134700000D01*
X44528571Y-134842857D01*
X44814285Y-135128571D01*
X44957142Y-135414285D01*
X44957142Y-135985714D01*
X44814285Y-136271428D01*
X44528571Y-136557142D01*
X43957142Y-136700000D01*
X42957142Y-136700000D01*
X42385714Y-136557142D01*
X42100000Y-136271428D01*
X41957142Y-135985714D01*
X44957142Y-133414285D02*
X41957142Y-133414285D01*
X44957142Y-131700000D02*
X43242857Y-132985714D01*
X41957142Y-131700000D02*
X43671428Y-133414285D01*
X44957142Y-117042857D02*
X41957142Y-117042857D01*
X41957142Y-116328571D01*
X42100000Y-115900000D01*
X42385714Y-115614285D01*
X42671428Y-115471428D01*
X43242857Y-115328571D01*
X43671428Y-115328571D01*
X44242857Y-115471428D01*
X44528571Y-115614285D01*
X44814285Y-115900000D01*
X44957142Y-116328571D01*
X44957142Y-117042857D01*
X41957142Y-113471428D02*
X41957142Y-112900000D01*
X42100000Y-112614285D01*
X42385714Y-112328571D01*
X42957142Y-112185714D01*
X43957142Y-112185714D01*
X44528571Y-112328571D01*
X44814285Y-112614285D01*
X44957142Y-112900000D01*
X44957142Y-113471428D01*
X44814285Y-113757142D01*
X44528571Y-114042857D01*
X43957142Y-114185714D01*
X42957142Y-114185714D01*
X42385714Y-114042857D01*
X42100000Y-113757142D01*
X41957142Y-113471428D01*
X41957142Y-111185714D02*
X44957142Y-110471428D01*
X42814285Y-109900000D01*
X44957142Y-109328571D01*
X41957142Y-108614285D01*
X44957142Y-107471428D02*
X41957142Y-107471428D01*
X44957142Y-105757142D01*
X41957142Y-105757142D01*
X41957142Y-94357142D02*
X44385714Y-94357142D01*
X44671428Y-94214285D01*
X44814285Y-94071428D01*
X44957142Y-93785714D01*
X44957142Y-93214285D01*
X44814285Y-92928571D01*
X44671428Y-92785714D01*
X44385714Y-92642857D01*
X41957142Y-92642857D01*
X44957142Y-91214285D02*
X41957142Y-91214285D01*
X41957142Y-90071428D01*
X42100000Y-89785714D01*
X42242857Y-89642857D01*
X42528571Y-89500000D01*
X42957142Y-89500000D01*
X43242857Y-89642857D01*
X43385714Y-89785714D01*
X43528571Y-90071428D01*
X43528571Y-91214285D01*
X120000000Y-35000000D02*
X116000000Y-35000000D01*
X116000000Y-33000000D02*
X116000000Y-35000000D01*
X120000000Y-33000000D02*
X116000000Y-33000000D01*
X124000000Y-33000000D02*
X120000000Y-33000000D01*
X124000000Y-35000000D02*
X120000000Y-35000000D01*
X116000000Y-37000000D02*
X120000000Y-37000000D01*
X116000000Y-31000000D02*
X116000000Y-37000000D01*
X120000000Y-31000000D02*
X116000000Y-31000000D01*
X124000000Y-31000000D02*
X120000000Y-31000000D01*
X124000000Y-37000000D02*
X124000000Y-31000000D01*
X120000000Y-37000000D02*
X124000000Y-37000000D01*
X120000000Y-31000000D02*
X120000000Y-37000000D01*
X116619047Y-36452380D02*
X116619047Y-35452380D01*
X117285714Y-35452380D02*
X117476190Y-35452380D01*
X117571428Y-35500000D01*
X117666666Y-35595238D01*
X117714285Y-35785714D01*
X117714285Y-36119047D01*
X117666666Y-36309523D01*
X117571428Y-36404761D01*
X117476190Y-36452380D01*
X117285714Y-36452380D01*
X117190476Y-36404761D01*
X117095238Y-36309523D01*
X117047619Y-36119047D01*
X117047619Y-35785714D01*
X117095238Y-35595238D01*
X117190476Y-35500000D01*
X117285714Y-35452380D01*
X117904761Y-36547619D02*
X118666666Y-36547619D01*
X119095238Y-35452380D02*
X119190476Y-35452380D01*
X119285714Y-35500000D01*
X119333333Y-35547619D01*
X119380952Y-35642857D01*
X119428571Y-35833333D01*
X119428571Y-36071428D01*
X119380952Y-36261904D01*
X119333333Y-36357142D01*
X119285714Y-36404761D01*
X119190476Y-36452380D01*
X119095238Y-36452380D01*
X119000000Y-36404761D01*
X118952380Y-36357142D01*
X118904761Y-36261904D01*
X118857142Y-36071428D01*
X118857142Y-35833333D01*
X118904761Y-35642857D01*
X118952380Y-35547619D01*
X119000000Y-35500000D01*
X119095238Y-35452380D01*
X121833333Y-36452380D02*
X121500000Y-35976190D01*
X121261904Y-36452380D02*
X121261904Y-35452380D01*
X121642857Y-35452380D01*
X121738095Y-35500000D01*
X121785714Y-35547619D01*
X121833333Y-35642857D01*
X121833333Y-35785714D01*
X121785714Y-35880952D01*
X121738095Y-35928571D01*
X121642857Y-35976190D01*
X121261904Y-35976190D01*
X122166666Y-35452380D02*
X122833333Y-36452380D01*
X122833333Y-35452380D02*
X122166666Y-36452380D01*
X121238095Y-33452380D02*
X121809523Y-33452380D01*
X121523809Y-34452380D02*
X121523809Y-33452380D01*
X122047619Y-33452380D02*
X122714285Y-34452380D01*
X122714285Y-33452380D02*
X122047619Y-34452380D01*
X117452380Y-34452380D02*
X117119047Y-33976190D01*
X116880952Y-34452380D02*
X116880952Y-33452380D01*
X117261904Y-33452380D01*
X117357142Y-33500000D01*
X117404761Y-33547619D01*
X117452380Y-33642857D01*
X117452380Y-33785714D01*
X117404761Y-33880952D01*
X117357142Y-33928571D01*
X117261904Y-33976190D01*
X116880952Y-33976190D01*
X117833333Y-34404761D02*
X117976190Y-34452380D01*
X118214285Y-34452380D01*
X118309523Y-34404761D01*
X118357142Y-34357142D01*
X118404761Y-34261904D01*
X118404761Y-34166666D01*
X118357142Y-34071428D01*
X118309523Y-34023809D01*
X118214285Y-33976190D01*
X118023809Y-33928571D01*
X117928571Y-33880952D01*
X117880952Y-33833333D01*
X117833333Y-33738095D01*
X117833333Y-33642857D01*
X117880952Y-33547619D01*
X117928571Y-33500000D01*
X118023809Y-33452380D01*
X118261904Y-33452380D01*
X118404761Y-33500000D01*
X118690476Y-33452380D02*
X119261904Y-33452380D01*
X118976190Y-34452380D02*
X118976190Y-33452380D01*
X120238095Y-32071428D02*
X121000000Y-32071428D01*
X120619047Y-32452380D02*
X120619047Y-31690476D01*
X121380952Y-31452380D02*
X122000000Y-31452380D01*
X121666666Y-31833333D01*
X121809523Y-31833333D01*
X121904761Y-31880952D01*
X121952380Y-31928571D01*
X122000000Y-32023809D01*
X122000000Y-32261904D01*
X121952380Y-32357142D01*
X121904761Y-32404761D01*
X121809523Y-32452380D01*
X121523809Y-32452380D01*
X121428571Y-32404761D01*
X121380952Y-32357142D01*
X122285714Y-31452380D02*
X122619047Y-32452380D01*
X122952380Y-31452380D01*
X123190476Y-31452380D02*
X123809523Y-31452380D01*
X123476190Y-31833333D01*
X123619047Y-31833333D01*
X123714285Y-31880952D01*
X123761904Y-31928571D01*
X123809523Y-32023809D01*
X123809523Y-32261904D01*
X123761904Y-32357142D01*
X123714285Y-32404761D01*
X123619047Y-32452380D01*
X123333333Y-32452380D01*
X123238095Y-32404761D01*
X123190476Y-32357142D01*
X117238095Y-31500000D02*
X117142857Y-31452380D01*
X117000000Y-31452380D01*
X116857142Y-31500000D01*
X116761904Y-31595238D01*
X116714285Y-31690476D01*
X116666666Y-31880952D01*
X116666666Y-32023809D01*
X116714285Y-32214285D01*
X116761904Y-32309523D01*
X116857142Y-32404761D01*
X117000000Y-32452380D01*
X117095238Y-32452380D01*
X117238095Y-32404761D01*
X117285714Y-32357142D01*
X117285714Y-32023809D01*
X117095238Y-32023809D01*
X117714285Y-32452380D02*
X117714285Y-31452380D01*
X118285714Y-32452380D01*
X118285714Y-31452380D01*
X118761904Y-32452380D02*
X118761904Y-31452380D01*
X119000000Y-31452380D01*
X119142857Y-31500000D01*
X119238095Y-31595238D01*
X119285714Y-31690476D01*
X119333333Y-31880952D01*
X119333333Y-32023809D01*
X119285714Y-32214285D01*
X119238095Y-32309523D01*
X119142857Y-32404761D01*
X119000000Y-32452380D01*
X118761904Y-32452380D01*
X119014285Y-39452380D02*
X119014285Y-38452380D01*
X119395238Y-38452380D01*
X119490476Y-38500000D01*
X119538095Y-38547619D01*
X119585714Y-38642857D01*
X119585714Y-38785714D01*
X119538095Y-38880952D01*
X119490476Y-38928571D01*
X119395238Y-38976190D01*
X119014285Y-38976190D01*
X120585714Y-39452380D02*
X120252380Y-38976190D01*
X120014285Y-39452380D02*
X120014285Y-38452380D01*
X120395238Y-38452380D01*
X120490476Y-38500000D01*
X120538095Y-38547619D01*
X120585714Y-38642857D01*
X120585714Y-38785714D01*
X120538095Y-38880952D01*
X120490476Y-38928571D01*
X120395238Y-38976190D01*
X120014285Y-38976190D01*
X121204761Y-38452380D02*
X121395238Y-38452380D01*
X121490476Y-38500000D01*
X121585714Y-38595238D01*
X121633333Y-38785714D01*
X121633333Y-39119047D01*
X121585714Y-39309523D01*
X121490476Y-39404761D01*
X121395238Y-39452380D01*
X121204761Y-39452380D01*
X121109523Y-39404761D01*
X121014285Y-39309523D01*
X120966666Y-39119047D01*
X120966666Y-38785714D01*
X121014285Y-38595238D01*
X121109523Y-38500000D01*
X121204761Y-38452380D01*
X122585714Y-38500000D02*
X122490476Y-38452380D01*
X122347619Y-38452380D01*
X122204761Y-38500000D01*
X122109523Y-38595238D01*
X122061904Y-38690476D01*
X122014285Y-38880952D01*
X122014285Y-39023809D01*
X122061904Y-39214285D01*
X122109523Y-39309523D01*
X122204761Y-39404761D01*
X122347619Y-39452380D01*
X122442857Y-39452380D01*
X122585714Y-39404761D01*
X122633333Y-39357142D01*
X122633333Y-39023809D01*
X122442857Y-39023809D01*
X118404761Y-101990476D02*
X118452380Y-101847619D01*
X118452380Y-101609523D01*
X118404761Y-101514285D01*
X118357142Y-101466666D01*
X118261904Y-101419047D01*
X118166666Y-101419047D01*
X118071428Y-101466666D01*
X118023809Y-101514285D01*
X117976190Y-101609523D01*
X117928571Y-101800000D01*
X117880952Y-101895238D01*
X117833333Y-101942857D01*
X117738095Y-101990476D01*
X117642857Y-101990476D01*
X117547619Y-101942857D01*
X117500000Y-101895238D01*
X117452380Y-101800000D01*
X117452380Y-101561904D01*
X117500000Y-101419047D01*
X118357142Y-100419047D02*
X118404761Y-100466666D01*
X118452380Y-100609523D01*
X118452380Y-100704761D01*
X118404761Y-100847619D01*
X118309523Y-100942857D01*
X118214285Y-100990476D01*
X118023809Y-101038095D01*
X117880952Y-101038095D01*
X117690476Y-100990476D01*
X117595238Y-100942857D01*
X117500000Y-100847619D01*
X117452380Y-100704761D01*
X117452380Y-100609523D01*
X117500000Y-100466666D01*
X117547619Y-100419047D01*
X118452380Y-99514285D02*
X118452380Y-99990476D01*
X117452380Y-99990476D01*
X115604761Y-102014285D02*
X115652380Y-101871428D01*
X115652380Y-101633333D01*
X115604761Y-101538095D01*
X115557142Y-101490476D01*
X115461904Y-101442857D01*
X115366666Y-101442857D01*
X115271428Y-101490476D01*
X115223809Y-101538095D01*
X115176190Y-101633333D01*
X115128571Y-101823809D01*
X115080952Y-101919047D01*
X115033333Y-101966666D01*
X114938095Y-102014285D01*
X114842857Y-102014285D01*
X114747619Y-101966666D01*
X114700000Y-101919047D01*
X114652380Y-101823809D01*
X114652380Y-101585714D01*
X114700000Y-101442857D01*
X115652380Y-101014285D02*
X114652380Y-101014285D01*
X114652380Y-100776190D01*
X114700000Y-100633333D01*
X114795238Y-100538095D01*
X114890476Y-100490476D01*
X115080952Y-100442857D01*
X115223809Y-100442857D01*
X115414285Y-100490476D01*
X115509523Y-100538095D01*
X115604761Y-100633333D01*
X115652380Y-100776190D01*
X115652380Y-101014285D01*
X115366666Y-100061904D02*
X115366666Y-99585714D01*
X115652380Y-100157142D02*
X114652380Y-99823809D01*
X115652380Y-99490476D01*
X120671428Y-103161904D02*
X120671428Y-102400000D01*
X121052380Y-102780952D02*
X120290476Y-102780952D01*
X120052380Y-102019047D02*
X120052380Y-101400000D01*
X120433333Y-101733333D01*
X120433333Y-101590476D01*
X120480952Y-101495238D01*
X120528571Y-101447619D01*
X120623809Y-101400000D01*
X120861904Y-101400000D01*
X120957142Y-101447619D01*
X121004761Y-101495238D01*
X121052380Y-101590476D01*
X121052380Y-101876190D01*
X121004761Y-101971428D01*
X120957142Y-102019047D01*
X120052380Y-101114285D02*
X121052380Y-100780952D01*
X120052380Y-100447619D01*
X120052380Y-100209523D02*
X120052380Y-99590476D01*
X120433333Y-99923809D01*
X120433333Y-99780952D01*
X120480952Y-99685714D01*
X120528571Y-99638095D01*
X120623809Y-99590476D01*
X120861904Y-99590476D01*
X120957142Y-99638095D01*
X121004761Y-99685714D01*
X121052380Y-99780952D01*
X121052380Y-100066666D01*
X121004761Y-100161904D01*
X120957142Y-100209523D01*
X112300000Y-101561904D02*
X112252380Y-101657142D01*
X112252380Y-101800000D01*
X112300000Y-101942857D01*
X112395238Y-102038095D01*
X112490476Y-102085714D01*
X112680952Y-102133333D01*
X112823809Y-102133333D01*
X113014285Y-102085714D01*
X113109523Y-102038095D01*
X113204761Y-101942857D01*
X113252380Y-101800000D01*
X113252380Y-101704761D01*
X113204761Y-101561904D01*
X113157142Y-101514285D01*
X112823809Y-101514285D01*
X112823809Y-101704761D01*
X113252380Y-101085714D02*
X112252380Y-101085714D01*
X113252380Y-100514285D01*
X112252380Y-100514285D01*
X113252380Y-100038095D02*
X112252380Y-100038095D01*
X112252380Y-99800000D01*
X112300000Y-99657142D01*
X112395238Y-99561904D01*
X112490476Y-99514285D01*
X112680952Y-99466666D01*
X112823809Y-99466666D01*
X113014285Y-99514285D01*
X113109523Y-99561904D01*
X113204761Y-99657142D01*
X113252380Y-99800000D01*
X113252380Y-100038095D01*
D11*
X110535714Y-94207142D02*
X110750000Y-94278571D01*
X111107142Y-94278571D01*
X111250000Y-94207142D01*
X111321428Y-94135714D01*
X111392857Y-93992857D01*
X111392857Y-93850000D01*
X111321428Y-93707142D01*
X111250000Y-93635714D01*
X111107142Y-93564285D01*
X110821428Y-93492857D01*
X110678571Y-93421428D01*
X110607142Y-93350000D01*
X110535714Y-93207142D01*
X110535714Y-93064285D01*
X110607142Y-92921428D01*
X110678571Y-92850000D01*
X110821428Y-92778571D01*
X111178571Y-92778571D01*
X111392857Y-92850000D01*
X112892857Y-94135714D02*
X112821428Y-94207142D01*
X112607142Y-94278571D01*
X112464285Y-94278571D01*
X112250000Y-94207142D01*
X112107142Y-94064285D01*
X112035714Y-93921428D01*
X111964285Y-93635714D01*
X111964285Y-93421428D01*
X112035714Y-93135714D01*
X112107142Y-92992857D01*
X112250000Y-92850000D01*
X112464285Y-92778571D01*
X112607142Y-92778571D01*
X112821428Y-92850000D01*
X112892857Y-92921428D01*
X114392857Y-94278571D02*
X113892857Y-93564285D01*
X113535714Y-94278571D02*
X113535714Y-92778571D01*
X114107142Y-92778571D01*
X114250000Y-92850000D01*
X114321428Y-92921428D01*
X114392857Y-93064285D01*
X114392857Y-93278571D01*
X114321428Y-93421428D01*
X114250000Y-93492857D01*
X114107142Y-93564285D01*
X113535714Y-93564285D01*
X115035714Y-93492857D02*
X115535714Y-93492857D01*
X115750000Y-94278571D02*
X115035714Y-94278571D01*
X115035714Y-92778571D01*
X115750000Y-92778571D01*
X116392857Y-93492857D02*
X116892857Y-93492857D01*
X117107142Y-94278571D02*
X116392857Y-94278571D01*
X116392857Y-92778571D01*
X117107142Y-92778571D01*
X117750000Y-94278571D02*
X117750000Y-92778571D01*
X118607142Y-94278571D01*
X118607142Y-92778571D01*
X120464285Y-94278571D02*
X120464285Y-92778571D01*
X121107142Y-92921428D02*
X121178571Y-92850000D01*
X121321428Y-92778571D01*
X121678571Y-92778571D01*
X121821428Y-92850000D01*
X121892857Y-92921428D01*
X121964285Y-93064285D01*
X121964285Y-93207142D01*
X121892857Y-93421428D01*
X121035714Y-94278571D01*
X121964285Y-94278571D01*
X123464285Y-94135714D02*
X123392857Y-94207142D01*
X123178571Y-94278571D01*
X123035714Y-94278571D01*
X122821428Y-94207142D01*
X122678571Y-94064285D01*
X122607142Y-93921428D01*
X122535714Y-93635714D01*
X122535714Y-93421428D01*
X122607142Y-93135714D01*
X122678571Y-92992857D01*
X122821428Y-92850000D01*
X123035714Y-92778571D01*
X123178571Y-92778571D01*
X123392857Y-92850000D01*
X123464285Y-92921428D01*
D10*
%TO.C,J6*%
X80066666Y-50922380D02*
X80066666Y-51636666D01*
X80019047Y-51779523D01*
X79923809Y-51874761D01*
X79780952Y-51922380D01*
X79685714Y-51922380D01*
X80971428Y-50922380D02*
X80780952Y-50922380D01*
X80685714Y-50970000D01*
X80638095Y-51017619D01*
X80542857Y-51160476D01*
X80495238Y-51350952D01*
X80495238Y-51731904D01*
X80542857Y-51827142D01*
X80590476Y-51874761D01*
X80685714Y-51922380D01*
X80876190Y-51922380D01*
X80971428Y-51874761D01*
X81019047Y-51827142D01*
X81066666Y-51731904D01*
X81066666Y-51493809D01*
X81019047Y-51398571D01*
X80971428Y-51350952D01*
X80876190Y-51303333D01*
X80685714Y-51303333D01*
X80590476Y-51350952D01*
X80542857Y-51398571D01*
X80495238Y-51493809D01*
%TO.C,U9*%
X66502380Y-121944404D02*
X67311904Y-121944404D01*
X67407142Y-121896785D01*
X67454761Y-121849166D01*
X67502380Y-121753928D01*
X67502380Y-121563452D01*
X67454761Y-121468214D01*
X67407142Y-121420595D01*
X67311904Y-121372976D01*
X66502380Y-121372976D01*
X67502380Y-120849166D02*
X67502380Y-120658690D01*
X67454761Y-120563452D01*
X67407142Y-120515833D01*
X67264285Y-120420595D01*
X67073809Y-120372976D01*
X66692857Y-120372976D01*
X66597619Y-120420595D01*
X66550000Y-120468214D01*
X66502380Y-120563452D01*
X66502380Y-120753928D01*
X66550000Y-120849166D01*
X66597619Y-120896785D01*
X66692857Y-120944404D01*
X66930952Y-120944404D01*
X67026190Y-120896785D01*
X67073809Y-120849166D01*
X67121428Y-120753928D01*
X67121428Y-120563452D01*
X67073809Y-120468214D01*
X67026190Y-120420595D01*
X66930952Y-120372976D01*
%TO.C,U10*%
X66502380Y-142478095D02*
X67311904Y-142478095D01*
X67407142Y-142430476D01*
X67454761Y-142382857D01*
X67502380Y-142287619D01*
X67502380Y-142097142D01*
X67454761Y-142001904D01*
X67407142Y-141954285D01*
X67311904Y-141906666D01*
X66502380Y-141906666D01*
X67502380Y-140906666D02*
X67502380Y-141478095D01*
X67502380Y-141192380D02*
X66502380Y-141192380D01*
X66645238Y-141287619D01*
X66740476Y-141382857D01*
X66788095Y-141478095D01*
X66502380Y-140287619D02*
X66502380Y-140192380D01*
X66550000Y-140097142D01*
X66597619Y-140049523D01*
X66692857Y-140001904D01*
X66883333Y-139954285D01*
X67121428Y-139954285D01*
X67311904Y-140001904D01*
X67407142Y-140049523D01*
X67454761Y-140097142D01*
X67502380Y-140192380D01*
X67502380Y-140287619D01*
X67454761Y-140382857D01*
X67407142Y-140430476D01*
X67311904Y-140478095D01*
X67121428Y-140525714D01*
X66883333Y-140525714D01*
X66692857Y-140478095D01*
X66597619Y-140430476D01*
X66550000Y-140382857D01*
X66502380Y-140287619D01*
%TO.C,D7*%
X140952380Y-74738095D02*
X139952380Y-74738095D01*
X139952380Y-74500000D01*
X140000000Y-74357142D01*
X140095238Y-74261904D01*
X140190476Y-74214285D01*
X140380952Y-74166666D01*
X140523809Y-74166666D01*
X140714285Y-74214285D01*
X140809523Y-74261904D01*
X140904761Y-74357142D01*
X140952380Y-74500000D01*
X140952380Y-74738095D01*
X139952380Y-73833333D02*
X139952380Y-73166666D01*
X140952380Y-73595238D01*
%TO.C,U7*%
X88638095Y-89852380D02*
X88638095Y-90661904D01*
X88685714Y-90757142D01*
X88733333Y-90804761D01*
X88828571Y-90852380D01*
X89019047Y-90852380D01*
X89114285Y-90804761D01*
X89161904Y-90757142D01*
X89209523Y-90661904D01*
X89209523Y-89852380D01*
X89590476Y-89852380D02*
X90257142Y-89852380D01*
X89828571Y-90852380D01*
%TO.C,D18*%
X101485714Y-81302380D02*
X101485714Y-80302380D01*
X101723809Y-80302380D01*
X101866666Y-80350000D01*
X101961904Y-80445238D01*
X102009523Y-80540476D01*
X102057142Y-80730952D01*
X102057142Y-80873809D01*
X102009523Y-81064285D01*
X101961904Y-81159523D01*
X101866666Y-81254761D01*
X101723809Y-81302380D01*
X101485714Y-81302380D01*
X103009523Y-81302380D02*
X102438095Y-81302380D01*
X102723809Y-81302380D02*
X102723809Y-80302380D01*
X102628571Y-80445238D01*
X102533333Y-80540476D01*
X102438095Y-80588095D01*
X103580952Y-80730952D02*
X103485714Y-80683333D01*
X103438095Y-80635714D01*
X103390476Y-80540476D01*
X103390476Y-80492857D01*
X103438095Y-80397619D01*
X103485714Y-80350000D01*
X103580952Y-80302380D01*
X103771428Y-80302380D01*
X103866666Y-80350000D01*
X103914285Y-80397619D01*
X103961904Y-80492857D01*
X103961904Y-80540476D01*
X103914285Y-80635714D01*
X103866666Y-80683333D01*
X103771428Y-80730952D01*
X103580952Y-80730952D01*
X103485714Y-80778571D01*
X103438095Y-80826190D01*
X103390476Y-80921428D01*
X103390476Y-81111904D01*
X103438095Y-81207142D01*
X103485714Y-81254761D01*
X103580952Y-81302380D01*
X103771428Y-81302380D01*
X103866666Y-81254761D01*
X103914285Y-81207142D01*
X103961904Y-81111904D01*
X103961904Y-80921428D01*
X103914285Y-80826190D01*
X103866666Y-80778571D01*
X103771428Y-80730952D01*
%TO.C,R17*%
X117557142Y-65802380D02*
X117223809Y-65326190D01*
X116985714Y-65802380D02*
X116985714Y-64802380D01*
X117366666Y-64802380D01*
X117461904Y-64850000D01*
X117509523Y-64897619D01*
X117557142Y-64992857D01*
X117557142Y-65135714D01*
X117509523Y-65230952D01*
X117461904Y-65278571D01*
X117366666Y-65326190D01*
X116985714Y-65326190D01*
X118509523Y-65802380D02*
X117938095Y-65802380D01*
X118223809Y-65802380D02*
X118223809Y-64802380D01*
X118128571Y-64945238D01*
X118033333Y-65040476D01*
X117938095Y-65088095D01*
X118842857Y-64802380D02*
X119509523Y-64802380D01*
X119080952Y-65802380D01*
%TO.C,J3*%
X62266666Y-32452380D02*
X62266666Y-33166666D01*
X62219047Y-33309523D01*
X62123809Y-33404761D01*
X61980952Y-33452380D01*
X61885714Y-33452380D01*
X62647619Y-32452380D02*
X63266666Y-32452380D01*
X62933333Y-32833333D01*
X63076190Y-32833333D01*
X63171428Y-32880952D01*
X63219047Y-32928571D01*
X63266666Y-33023809D01*
X63266666Y-33261904D01*
X63219047Y-33357142D01*
X63171428Y-33404761D01*
X63076190Y-33452380D01*
X62790476Y-33452380D01*
X62695238Y-33404761D01*
X62647619Y-33357142D01*
%TO.C,D15*%
X111985714Y-81302380D02*
X111985714Y-80302380D01*
X112223809Y-80302380D01*
X112366666Y-80350000D01*
X112461904Y-80445238D01*
X112509523Y-80540476D01*
X112557142Y-80730952D01*
X112557142Y-80873809D01*
X112509523Y-81064285D01*
X112461904Y-81159523D01*
X112366666Y-81254761D01*
X112223809Y-81302380D01*
X111985714Y-81302380D01*
X113509523Y-81302380D02*
X112938095Y-81302380D01*
X113223809Y-81302380D02*
X113223809Y-80302380D01*
X113128571Y-80445238D01*
X113033333Y-80540476D01*
X112938095Y-80588095D01*
X114414285Y-80302380D02*
X113938095Y-80302380D01*
X113890476Y-80778571D01*
X113938095Y-80730952D01*
X114033333Y-80683333D01*
X114271428Y-80683333D01*
X114366666Y-80730952D01*
X114414285Y-80778571D01*
X114461904Y-80873809D01*
X114461904Y-81111904D01*
X114414285Y-81207142D01*
X114366666Y-81254761D01*
X114271428Y-81302380D01*
X114033333Y-81302380D01*
X113938095Y-81254761D01*
X113890476Y-81207142D01*
%TO.C,R23*%
X151252380Y-87042857D02*
X150776190Y-87376190D01*
X151252380Y-87614285D02*
X150252380Y-87614285D01*
X150252380Y-87233333D01*
X150300000Y-87138095D01*
X150347619Y-87090476D01*
X150442857Y-87042857D01*
X150585714Y-87042857D01*
X150680952Y-87090476D01*
X150728571Y-87138095D01*
X150776190Y-87233333D01*
X150776190Y-87614285D01*
X150347619Y-86661904D02*
X150300000Y-86614285D01*
X150252380Y-86519047D01*
X150252380Y-86280952D01*
X150300000Y-86185714D01*
X150347619Y-86138095D01*
X150442857Y-86090476D01*
X150538095Y-86090476D01*
X150680952Y-86138095D01*
X151252380Y-86709523D01*
X151252380Y-86090476D01*
X150252380Y-85757142D02*
X150252380Y-85138095D01*
X150633333Y-85471428D01*
X150633333Y-85328571D01*
X150680952Y-85233333D01*
X150728571Y-85185714D01*
X150823809Y-85138095D01*
X151061904Y-85138095D01*
X151157142Y-85185714D01*
X151204761Y-85233333D01*
X151252380Y-85328571D01*
X151252380Y-85614285D01*
X151204761Y-85709523D01*
X151157142Y-85757142D01*
%TO.C,Q3*%
X147404761Y-78547619D02*
X147309523Y-78500000D01*
X147214285Y-78404761D01*
X147071428Y-78261904D01*
X146976190Y-78214285D01*
X146880952Y-78214285D01*
X146928571Y-78452380D02*
X146833333Y-78404761D01*
X146738095Y-78309523D01*
X146690476Y-78119047D01*
X146690476Y-77785714D01*
X146738095Y-77595238D01*
X146833333Y-77500000D01*
X146928571Y-77452380D01*
X147119047Y-77452380D01*
X147214285Y-77500000D01*
X147309523Y-77595238D01*
X147357142Y-77785714D01*
X147357142Y-78119047D01*
X147309523Y-78309523D01*
X147214285Y-78404761D01*
X147119047Y-78452380D01*
X146928571Y-78452380D01*
X147690476Y-77452380D02*
X148309523Y-77452380D01*
X147976190Y-77833333D01*
X148119047Y-77833333D01*
X148214285Y-77880952D01*
X148261904Y-77928571D01*
X148309523Y-78023809D01*
X148309523Y-78261904D01*
X148261904Y-78357142D01*
X148214285Y-78404761D01*
X148119047Y-78452380D01*
X147833333Y-78452380D01*
X147738095Y-78404761D01*
X147690476Y-78357142D01*
%TO.C,R15*%
X223452380Y-140942857D02*
X222976190Y-141276190D01*
X223452380Y-141514285D02*
X222452380Y-141514285D01*
X222452380Y-141133333D01*
X222500000Y-141038095D01*
X222547619Y-140990476D01*
X222642857Y-140942857D01*
X222785714Y-140942857D01*
X222880952Y-140990476D01*
X222928571Y-141038095D01*
X222976190Y-141133333D01*
X222976190Y-141514285D01*
X223452380Y-139990476D02*
X223452380Y-140561904D01*
X223452380Y-140276190D02*
X222452380Y-140276190D01*
X222595238Y-140371428D01*
X222690476Y-140466666D01*
X222738095Y-140561904D01*
X222452380Y-139085714D02*
X222452380Y-139561904D01*
X222928571Y-139609523D01*
X222880952Y-139561904D01*
X222833333Y-139466666D01*
X222833333Y-139228571D01*
X222880952Y-139133333D01*
X222928571Y-139085714D01*
X223023809Y-139038095D01*
X223261904Y-139038095D01*
X223357142Y-139085714D01*
X223404761Y-139133333D01*
X223452380Y-139228571D01*
X223452380Y-139466666D01*
X223404761Y-139561904D01*
X223357142Y-139609523D01*
%TO.C,Q6*%
X106104761Y-75147619D02*
X106009523Y-75100000D01*
X105914285Y-75004761D01*
X105771428Y-74861904D01*
X105676190Y-74814285D01*
X105580952Y-74814285D01*
X105628571Y-75052380D02*
X105533333Y-75004761D01*
X105438095Y-74909523D01*
X105390476Y-74719047D01*
X105390476Y-74385714D01*
X105438095Y-74195238D01*
X105533333Y-74100000D01*
X105628571Y-74052380D01*
X105819047Y-74052380D01*
X105914285Y-74100000D01*
X106009523Y-74195238D01*
X106057142Y-74385714D01*
X106057142Y-74719047D01*
X106009523Y-74909523D01*
X105914285Y-75004761D01*
X105819047Y-75052380D01*
X105628571Y-75052380D01*
X106914285Y-74052380D02*
X106723809Y-74052380D01*
X106628571Y-74100000D01*
X106580952Y-74147619D01*
X106485714Y-74290476D01*
X106438095Y-74480952D01*
X106438095Y-74861904D01*
X106485714Y-74957142D01*
X106533333Y-75004761D01*
X106628571Y-75052380D01*
X106819047Y-75052380D01*
X106914285Y-75004761D01*
X106961904Y-74957142D01*
X107009523Y-74861904D01*
X107009523Y-74623809D01*
X106961904Y-74528571D01*
X106914285Y-74480952D01*
X106819047Y-74433333D01*
X106628571Y-74433333D01*
X106533333Y-74480952D01*
X106485714Y-74528571D01*
X106438095Y-74623809D01*
%TO.C,R9*%
X119533333Y-54302380D02*
X119200000Y-53826190D01*
X118961904Y-54302380D02*
X118961904Y-53302380D01*
X119342857Y-53302380D01*
X119438095Y-53350000D01*
X119485714Y-53397619D01*
X119533333Y-53492857D01*
X119533333Y-53635714D01*
X119485714Y-53730952D01*
X119438095Y-53778571D01*
X119342857Y-53826190D01*
X118961904Y-53826190D01*
X120009523Y-54302380D02*
X120200000Y-54302380D01*
X120295238Y-54254761D01*
X120342857Y-54207142D01*
X120438095Y-54064285D01*
X120485714Y-53873809D01*
X120485714Y-53492857D01*
X120438095Y-53397619D01*
X120390476Y-53350000D01*
X120295238Y-53302380D01*
X120104761Y-53302380D01*
X120009523Y-53350000D01*
X119961904Y-53397619D01*
X119914285Y-53492857D01*
X119914285Y-53730952D01*
X119961904Y-53826190D01*
X120009523Y-53873809D01*
X120104761Y-53921428D01*
X120295238Y-53921428D01*
X120390476Y-53873809D01*
X120438095Y-53826190D01*
X120485714Y-53730952D01*
%TO.C,R11*%
X119557142Y-56302380D02*
X119223809Y-55826190D01*
X118985714Y-56302380D02*
X118985714Y-55302380D01*
X119366666Y-55302380D01*
X119461904Y-55350000D01*
X119509523Y-55397619D01*
X119557142Y-55492857D01*
X119557142Y-55635714D01*
X119509523Y-55730952D01*
X119461904Y-55778571D01*
X119366666Y-55826190D01*
X118985714Y-55826190D01*
X120509523Y-56302380D02*
X119938095Y-56302380D01*
X120223809Y-56302380D02*
X120223809Y-55302380D01*
X120128571Y-55445238D01*
X120033333Y-55540476D01*
X119938095Y-55588095D01*
X121461904Y-56302380D02*
X120890476Y-56302380D01*
X121176190Y-56302380D02*
X121176190Y-55302380D01*
X121080952Y-55445238D01*
X120985714Y-55540476D01*
X120890476Y-55588095D01*
%TO.C,R3*%
X150452380Y-78666666D02*
X149976190Y-79000000D01*
X150452380Y-79238095D02*
X149452380Y-79238095D01*
X149452380Y-78857142D01*
X149500000Y-78761904D01*
X149547619Y-78714285D01*
X149642857Y-78666666D01*
X149785714Y-78666666D01*
X149880952Y-78714285D01*
X149928571Y-78761904D01*
X149976190Y-78857142D01*
X149976190Y-79238095D01*
X149452380Y-78333333D02*
X149452380Y-77714285D01*
X149833333Y-78047619D01*
X149833333Y-77904761D01*
X149880952Y-77809523D01*
X149928571Y-77761904D01*
X150023809Y-77714285D01*
X150261904Y-77714285D01*
X150357142Y-77761904D01*
X150404761Y-77809523D01*
X150452380Y-77904761D01*
X150452380Y-78190476D01*
X150404761Y-78285714D01*
X150357142Y-78333333D01*
%TO.C,R2*%
X169452380Y-79166666D02*
X168976190Y-79500000D01*
X169452380Y-79738095D02*
X168452380Y-79738095D01*
X168452380Y-79357142D01*
X168500000Y-79261904D01*
X168547619Y-79214285D01*
X168642857Y-79166666D01*
X168785714Y-79166666D01*
X168880952Y-79214285D01*
X168928571Y-79261904D01*
X168976190Y-79357142D01*
X168976190Y-79738095D01*
X168547619Y-78785714D02*
X168500000Y-78738095D01*
X168452380Y-78642857D01*
X168452380Y-78404761D01*
X168500000Y-78309523D01*
X168547619Y-78261904D01*
X168642857Y-78214285D01*
X168738095Y-78214285D01*
X168880952Y-78261904D01*
X169452380Y-78833333D01*
X169452380Y-78214285D01*
%TO.C,U8*%
X138709880Y-96711904D02*
X139519404Y-96711904D01*
X139614642Y-96664285D01*
X139662261Y-96616666D01*
X139709880Y-96521428D01*
X139709880Y-96330952D01*
X139662261Y-96235714D01*
X139614642Y-96188095D01*
X139519404Y-96140476D01*
X138709880Y-96140476D01*
X139138452Y-95521428D02*
X139090833Y-95616666D01*
X139043214Y-95664285D01*
X138947976Y-95711904D01*
X138900357Y-95711904D01*
X138805119Y-95664285D01*
X138757500Y-95616666D01*
X138709880Y-95521428D01*
X138709880Y-95330952D01*
X138757500Y-95235714D01*
X138805119Y-95188095D01*
X138900357Y-95140476D01*
X138947976Y-95140476D01*
X139043214Y-95188095D01*
X139090833Y-95235714D01*
X139138452Y-95330952D01*
X139138452Y-95521428D01*
X139186071Y-95616666D01*
X139233690Y-95664285D01*
X139328928Y-95711904D01*
X139519404Y-95711904D01*
X139614642Y-95664285D01*
X139662261Y-95616666D01*
X139709880Y-95521428D01*
X139709880Y-95330952D01*
X139662261Y-95235714D01*
X139614642Y-95188095D01*
X139519404Y-95140476D01*
X139328928Y-95140476D01*
X139233690Y-95188095D01*
X139186071Y-95235714D01*
X139138452Y-95330952D01*
%TO.C,Q2*%
X166484761Y-79047619D02*
X166389523Y-79000000D01*
X166294285Y-78904761D01*
X166151428Y-78761904D01*
X166056190Y-78714285D01*
X165960952Y-78714285D01*
X166008571Y-78952380D02*
X165913333Y-78904761D01*
X165818095Y-78809523D01*
X165770476Y-78619047D01*
X165770476Y-78285714D01*
X165818095Y-78095238D01*
X165913333Y-78000000D01*
X166008571Y-77952380D01*
X166199047Y-77952380D01*
X166294285Y-78000000D01*
X166389523Y-78095238D01*
X166437142Y-78285714D01*
X166437142Y-78619047D01*
X166389523Y-78809523D01*
X166294285Y-78904761D01*
X166199047Y-78952380D01*
X166008571Y-78952380D01*
X166818095Y-78047619D02*
X166865714Y-78000000D01*
X166960952Y-77952380D01*
X167199047Y-77952380D01*
X167294285Y-78000000D01*
X167341904Y-78047619D01*
X167389523Y-78142857D01*
X167389523Y-78238095D01*
X167341904Y-78380952D01*
X166770476Y-78952380D01*
X167389523Y-78952380D01*
%TO.C,C14*%
X96757142Y-68242857D02*
X96804761Y-68290476D01*
X96852380Y-68433333D01*
X96852380Y-68528571D01*
X96804761Y-68671428D01*
X96709523Y-68766666D01*
X96614285Y-68814285D01*
X96423809Y-68861904D01*
X96280952Y-68861904D01*
X96090476Y-68814285D01*
X95995238Y-68766666D01*
X95900000Y-68671428D01*
X95852380Y-68528571D01*
X95852380Y-68433333D01*
X95900000Y-68290476D01*
X95947619Y-68242857D01*
X96852380Y-67290476D02*
X96852380Y-67861904D01*
X96852380Y-67576190D02*
X95852380Y-67576190D01*
X95995238Y-67671428D01*
X96090476Y-67766666D01*
X96138095Y-67861904D01*
X96185714Y-66433333D02*
X96852380Y-66433333D01*
X95804761Y-66671428D02*
X96519047Y-66909523D01*
X96519047Y-66290476D01*
%TO.C,D2*%
X173452380Y-79738095D02*
X172452380Y-79738095D01*
X172452380Y-79500000D01*
X172500000Y-79357142D01*
X172595238Y-79261904D01*
X172690476Y-79214285D01*
X172880952Y-79166666D01*
X173023809Y-79166666D01*
X173214285Y-79214285D01*
X173309523Y-79261904D01*
X173404761Y-79357142D01*
X173452380Y-79500000D01*
X173452380Y-79738095D01*
X172547619Y-78785714D02*
X172500000Y-78738095D01*
X172452380Y-78642857D01*
X172452380Y-78404761D01*
X172500000Y-78309523D01*
X172547619Y-78261904D01*
X172642857Y-78214285D01*
X172738095Y-78214285D01*
X172880952Y-78261904D01*
X173452380Y-78833333D01*
X173452380Y-78214285D01*
%TO.C,Q5*%
X113104761Y-75147619D02*
X113009523Y-75100000D01*
X112914285Y-75004761D01*
X112771428Y-74861904D01*
X112676190Y-74814285D01*
X112580952Y-74814285D01*
X112628571Y-75052380D02*
X112533333Y-75004761D01*
X112438095Y-74909523D01*
X112390476Y-74719047D01*
X112390476Y-74385714D01*
X112438095Y-74195238D01*
X112533333Y-74100000D01*
X112628571Y-74052380D01*
X112819047Y-74052380D01*
X112914285Y-74100000D01*
X113009523Y-74195238D01*
X113057142Y-74385714D01*
X113057142Y-74719047D01*
X113009523Y-74909523D01*
X112914285Y-75004761D01*
X112819047Y-75052380D01*
X112628571Y-75052380D01*
X113961904Y-74052380D02*
X113485714Y-74052380D01*
X113438095Y-74528571D01*
X113485714Y-74480952D01*
X113580952Y-74433333D01*
X113819047Y-74433333D01*
X113914285Y-74480952D01*
X113961904Y-74528571D01*
X114009523Y-74623809D01*
X114009523Y-74861904D01*
X113961904Y-74957142D01*
X113914285Y-75004761D01*
X113819047Y-75052380D01*
X113580952Y-75052380D01*
X113485714Y-75004761D01*
X113438095Y-74957142D01*
%TO.C,D1*%
X193452380Y-79738095D02*
X192452380Y-79738095D01*
X192452380Y-79500000D01*
X192500000Y-79357142D01*
X192595238Y-79261904D01*
X192690476Y-79214285D01*
X192880952Y-79166666D01*
X193023809Y-79166666D01*
X193214285Y-79214285D01*
X193309523Y-79261904D01*
X193404761Y-79357142D01*
X193452380Y-79500000D01*
X193452380Y-79738095D01*
X193452380Y-78214285D02*
X193452380Y-78785714D01*
X193452380Y-78500000D02*
X192452380Y-78500000D01*
X192595238Y-78595238D01*
X192690476Y-78690476D01*
X192738095Y-78785714D01*
%TO.C,R21*%
X149452380Y-87042857D02*
X148976190Y-87376190D01*
X149452380Y-87614285D02*
X148452380Y-87614285D01*
X148452380Y-87233333D01*
X148500000Y-87138095D01*
X148547619Y-87090476D01*
X148642857Y-87042857D01*
X148785714Y-87042857D01*
X148880952Y-87090476D01*
X148928571Y-87138095D01*
X148976190Y-87233333D01*
X148976190Y-87614285D01*
X148547619Y-86661904D02*
X148500000Y-86614285D01*
X148452380Y-86519047D01*
X148452380Y-86280952D01*
X148500000Y-86185714D01*
X148547619Y-86138095D01*
X148642857Y-86090476D01*
X148738095Y-86090476D01*
X148880952Y-86138095D01*
X149452380Y-86709523D01*
X149452380Y-86090476D01*
X149452380Y-85138095D02*
X149452380Y-85709523D01*
X149452380Y-85423809D02*
X148452380Y-85423809D01*
X148595238Y-85519047D01*
X148690476Y-85614285D01*
X148738095Y-85709523D01*
%TO.C,U5*%
X212238095Y-138752380D02*
X212238095Y-139561904D01*
X212285714Y-139657142D01*
X212333333Y-139704761D01*
X212428571Y-139752380D01*
X212619047Y-139752380D01*
X212714285Y-139704761D01*
X212761904Y-139657142D01*
X212809523Y-139561904D01*
X212809523Y-138752380D01*
X213761904Y-138752380D02*
X213285714Y-138752380D01*
X213238095Y-139228571D01*
X213285714Y-139180952D01*
X213380952Y-139133333D01*
X213619047Y-139133333D01*
X213714285Y-139180952D01*
X213761904Y-139228571D01*
X213809523Y-139323809D01*
X213809523Y-139561904D01*
X213761904Y-139657142D01*
X213714285Y-139704761D01*
X213619047Y-139752380D01*
X213380952Y-139752380D01*
X213285714Y-139704761D01*
X213238095Y-139657142D01*
%TO.C,K2*%
X164738095Y-75047619D02*
X164738095Y-76047619D01*
X164166666Y-75047619D02*
X164595238Y-75619047D01*
X164166666Y-76047619D02*
X164738095Y-75476190D01*
X163785714Y-75952380D02*
X163738095Y-76000000D01*
X163642857Y-76047619D01*
X163404761Y-76047619D01*
X163309523Y-76000000D01*
X163261904Y-75952380D01*
X163214285Y-75857142D01*
X163214285Y-75761904D01*
X163261904Y-75619047D01*
X163833333Y-75047619D01*
X163214285Y-75047619D01*
%TO.C,C7*%
X227402834Y-90807142D02*
X227355215Y-90854761D01*
X227212358Y-90902380D01*
X227117120Y-90902380D01*
X226974262Y-90854761D01*
X226879024Y-90759523D01*
X226831405Y-90664285D01*
X226783786Y-90473809D01*
X226783786Y-90330952D01*
X226831405Y-90140476D01*
X226879024Y-90045238D01*
X226974262Y-89950000D01*
X227117120Y-89902380D01*
X227212358Y-89902380D01*
X227355215Y-89950000D01*
X227402834Y-89997619D01*
X227736167Y-89902380D02*
X228402834Y-89902380D01*
X227974262Y-90902380D01*
%TO.C,C8*%
X192933333Y-130657142D02*
X192885714Y-130704761D01*
X192742857Y-130752380D01*
X192647619Y-130752380D01*
X192504761Y-130704761D01*
X192409523Y-130609523D01*
X192361904Y-130514285D01*
X192314285Y-130323809D01*
X192314285Y-130180952D01*
X192361904Y-129990476D01*
X192409523Y-129895238D01*
X192504761Y-129800000D01*
X192647619Y-129752380D01*
X192742857Y-129752380D01*
X192885714Y-129800000D01*
X192933333Y-129847619D01*
X193504761Y-130180952D02*
X193409523Y-130133333D01*
X193361904Y-130085714D01*
X193314285Y-129990476D01*
X193314285Y-129942857D01*
X193361904Y-129847619D01*
X193409523Y-129800000D01*
X193504761Y-129752380D01*
X193695238Y-129752380D01*
X193790476Y-129800000D01*
X193838095Y-129847619D01*
X193885714Y-129942857D01*
X193885714Y-129990476D01*
X193838095Y-130085714D01*
X193790476Y-130133333D01*
X193695238Y-130180952D01*
X193504761Y-130180952D01*
X193409523Y-130228571D01*
X193361904Y-130276190D01*
X193314285Y-130371428D01*
X193314285Y-130561904D01*
X193361904Y-130657142D01*
X193409523Y-130704761D01*
X193504761Y-130752380D01*
X193695238Y-130752380D01*
X193790476Y-130704761D01*
X193838095Y-130657142D01*
X193885714Y-130561904D01*
X193885714Y-130371428D01*
X193838095Y-130276190D01*
X193790476Y-130228571D01*
X193695238Y-130180952D01*
%TO.C,D5*%
X171452380Y-79738095D02*
X170452380Y-79738095D01*
X170452380Y-79500000D01*
X170500000Y-79357142D01*
X170595238Y-79261904D01*
X170690476Y-79214285D01*
X170880952Y-79166666D01*
X171023809Y-79166666D01*
X171214285Y-79214285D01*
X171309523Y-79261904D01*
X171404761Y-79357142D01*
X171452380Y-79500000D01*
X171452380Y-79738095D01*
X170452380Y-78261904D02*
X170452380Y-78738095D01*
X170928571Y-78785714D01*
X170880952Y-78738095D01*
X170833333Y-78642857D01*
X170833333Y-78404761D01*
X170880952Y-78309523D01*
X170928571Y-78261904D01*
X171023809Y-78214285D01*
X171261904Y-78214285D01*
X171357142Y-78261904D01*
X171404761Y-78309523D01*
X171452380Y-78404761D01*
X171452380Y-78642857D01*
X171404761Y-78738095D01*
X171357142Y-78785714D01*
%TO.C,R16*%
X99957142Y-65852380D02*
X99623809Y-65376190D01*
X99385714Y-65852380D02*
X99385714Y-64852380D01*
X99766666Y-64852380D01*
X99861904Y-64900000D01*
X99909523Y-64947619D01*
X99957142Y-65042857D01*
X99957142Y-65185714D01*
X99909523Y-65280952D01*
X99861904Y-65328571D01*
X99766666Y-65376190D01*
X99385714Y-65376190D01*
X100909523Y-65852380D02*
X100338095Y-65852380D01*
X100623809Y-65852380D02*
X100623809Y-64852380D01*
X100528571Y-64995238D01*
X100433333Y-65090476D01*
X100338095Y-65138095D01*
X101766666Y-64852380D02*
X101576190Y-64852380D01*
X101480952Y-64900000D01*
X101433333Y-64947619D01*
X101338095Y-65090476D01*
X101290476Y-65280952D01*
X101290476Y-65661904D01*
X101338095Y-65757142D01*
X101385714Y-65804761D01*
X101480952Y-65852380D01*
X101671428Y-65852380D01*
X101766666Y-65804761D01*
X101814285Y-65757142D01*
X101861904Y-65661904D01*
X101861904Y-65423809D01*
X101814285Y-65328571D01*
X101766666Y-65280952D01*
X101671428Y-65233333D01*
X101480952Y-65233333D01*
X101385714Y-65280952D01*
X101338095Y-65328571D01*
X101290476Y-65423809D01*
%TO.C,C1*%
X92033333Y-60207142D02*
X91985714Y-60254761D01*
X91842857Y-60302380D01*
X91747619Y-60302380D01*
X91604761Y-60254761D01*
X91509523Y-60159523D01*
X91461904Y-60064285D01*
X91414285Y-59873809D01*
X91414285Y-59730952D01*
X91461904Y-59540476D01*
X91509523Y-59445238D01*
X91604761Y-59350000D01*
X91747619Y-59302380D01*
X91842857Y-59302380D01*
X91985714Y-59350000D01*
X92033333Y-59397619D01*
X92985714Y-60302380D02*
X92414285Y-60302380D01*
X92700000Y-60302380D02*
X92700000Y-59302380D01*
X92604761Y-59445238D01*
X92509523Y-59540476D01*
X92414285Y-59588095D01*
%TO.C,D12*%
X230285714Y-141752380D02*
X230285714Y-140752380D01*
X230523809Y-140752380D01*
X230666666Y-140800000D01*
X230761904Y-140895238D01*
X230809523Y-140990476D01*
X230857142Y-141180952D01*
X230857142Y-141323809D01*
X230809523Y-141514285D01*
X230761904Y-141609523D01*
X230666666Y-141704761D01*
X230523809Y-141752380D01*
X230285714Y-141752380D01*
X231809523Y-141752380D02*
X231238095Y-141752380D01*
X231523809Y-141752380D02*
X231523809Y-140752380D01*
X231428571Y-140895238D01*
X231333333Y-140990476D01*
X231238095Y-141038095D01*
X232190476Y-140847619D02*
X232238095Y-140800000D01*
X232333333Y-140752380D01*
X232571428Y-140752380D01*
X232666666Y-140800000D01*
X232714285Y-140847619D01*
X232761904Y-140942857D01*
X232761904Y-141038095D01*
X232714285Y-141180952D01*
X232142857Y-141752380D01*
X232761904Y-141752380D01*
%TO.C,C9*%
X239857142Y-137466666D02*
X239904761Y-137514285D01*
X239952380Y-137657142D01*
X239952380Y-137752380D01*
X239904761Y-137895238D01*
X239809523Y-137990476D01*
X239714285Y-138038095D01*
X239523809Y-138085714D01*
X239380952Y-138085714D01*
X239190476Y-138038095D01*
X239095238Y-137990476D01*
X239000000Y-137895238D01*
X238952380Y-137752380D01*
X238952380Y-137657142D01*
X239000000Y-137514285D01*
X239047619Y-137466666D01*
X239952380Y-136990476D02*
X239952380Y-136800000D01*
X239904761Y-136704761D01*
X239857142Y-136657142D01*
X239714285Y-136561904D01*
X239523809Y-136514285D01*
X239142857Y-136514285D01*
X239047619Y-136561904D01*
X239000000Y-136609523D01*
X238952380Y-136704761D01*
X238952380Y-136895238D01*
X239000000Y-136990476D01*
X239047619Y-137038095D01*
X239142857Y-137085714D01*
X239380952Y-137085714D01*
X239476190Y-137038095D01*
X239523809Y-136990476D01*
X239571428Y-136895238D01*
X239571428Y-136704761D01*
X239523809Y-136609523D01*
X239476190Y-136561904D01*
X239380952Y-136514285D01*
%TO.C,U6*%
X110938095Y-63302380D02*
X110938095Y-64111904D01*
X110985714Y-64207142D01*
X111033333Y-64254761D01*
X111128571Y-64302380D01*
X111319047Y-64302380D01*
X111414285Y-64254761D01*
X111461904Y-64207142D01*
X111509523Y-64111904D01*
X111509523Y-63302380D01*
X112414285Y-63302380D02*
X112223809Y-63302380D01*
X112128571Y-63350000D01*
X112080952Y-63397619D01*
X111985714Y-63540476D01*
X111938095Y-63730952D01*
X111938095Y-64111904D01*
X111985714Y-64207142D01*
X112033333Y-64254761D01*
X112128571Y-64302380D01*
X112319047Y-64302380D01*
X112414285Y-64254761D01*
X112461904Y-64207142D01*
X112509523Y-64111904D01*
X112509523Y-63873809D01*
X112461904Y-63778571D01*
X112414285Y-63730952D01*
X112319047Y-63683333D01*
X112128571Y-63683333D01*
X112033333Y-63730952D01*
X111985714Y-63778571D01*
X111938095Y-63873809D01*
%TO.C,U1*%
X94878095Y-43542380D02*
X94878095Y-44351904D01*
X94925714Y-44447142D01*
X94973333Y-44494761D01*
X95068571Y-44542380D01*
X95259047Y-44542380D01*
X95354285Y-44494761D01*
X95401904Y-44447142D01*
X95449523Y-44351904D01*
X95449523Y-43542380D01*
X96449523Y-44542380D02*
X95878095Y-44542380D01*
X96163809Y-44542380D02*
X96163809Y-43542380D01*
X96068571Y-43685238D01*
X95973333Y-43780476D01*
X95878095Y-43828095D01*
%TO.C,C10*%
X224357142Y-138442857D02*
X224404761Y-138490476D01*
X224452380Y-138633333D01*
X224452380Y-138728571D01*
X224404761Y-138871428D01*
X224309523Y-138966666D01*
X224214285Y-139014285D01*
X224023809Y-139061904D01*
X223880952Y-139061904D01*
X223690476Y-139014285D01*
X223595238Y-138966666D01*
X223500000Y-138871428D01*
X223452380Y-138728571D01*
X223452380Y-138633333D01*
X223500000Y-138490476D01*
X223547619Y-138442857D01*
X224452380Y-137490476D02*
X224452380Y-138061904D01*
X224452380Y-137776190D02*
X223452380Y-137776190D01*
X223595238Y-137871428D01*
X223690476Y-137966666D01*
X223738095Y-138061904D01*
X223452380Y-136871428D02*
X223452380Y-136776190D01*
X223500000Y-136680952D01*
X223547619Y-136633333D01*
X223642857Y-136585714D01*
X223833333Y-136538095D01*
X224071428Y-136538095D01*
X224261904Y-136585714D01*
X224357142Y-136633333D01*
X224404761Y-136680952D01*
X224452380Y-136776190D01*
X224452380Y-136871428D01*
X224404761Y-136966666D01*
X224357142Y-137014285D01*
X224261904Y-137061904D01*
X224071428Y-137109523D01*
X223833333Y-137109523D01*
X223642857Y-137061904D01*
X223547619Y-137014285D01*
X223500000Y-136966666D01*
X223452380Y-136871428D01*
%TO.C,R14*%
X238952380Y-140942857D02*
X238476190Y-141276190D01*
X238952380Y-141514285D02*
X237952380Y-141514285D01*
X237952380Y-141133333D01*
X238000000Y-141038095D01*
X238047619Y-140990476D01*
X238142857Y-140942857D01*
X238285714Y-140942857D01*
X238380952Y-140990476D01*
X238428571Y-141038095D01*
X238476190Y-141133333D01*
X238476190Y-141514285D01*
X238952380Y-139990476D02*
X238952380Y-140561904D01*
X238952380Y-140276190D02*
X237952380Y-140276190D01*
X238095238Y-140371428D01*
X238190476Y-140466666D01*
X238238095Y-140561904D01*
X238285714Y-139133333D02*
X238952380Y-139133333D01*
X237904761Y-139371428D02*
X238619047Y-139609523D01*
X238619047Y-138990476D01*
%TO.C,U3*%
X195838095Y-129752380D02*
X195838095Y-130561904D01*
X195885714Y-130657142D01*
X195933333Y-130704761D01*
X196028571Y-130752380D01*
X196219047Y-130752380D01*
X196314285Y-130704761D01*
X196361904Y-130657142D01*
X196409523Y-130561904D01*
X196409523Y-129752380D01*
X196790476Y-129752380D02*
X197409523Y-129752380D01*
X197076190Y-130133333D01*
X197219047Y-130133333D01*
X197314285Y-130180952D01*
X197361904Y-130228571D01*
X197409523Y-130323809D01*
X197409523Y-130561904D01*
X197361904Y-130657142D01*
X197314285Y-130704761D01*
X197219047Y-130752380D01*
X196933333Y-130752380D01*
X196838095Y-130704761D01*
X196790476Y-130657142D01*
%TO.C,R8*%
X92033333Y-52302380D02*
X91700000Y-51826190D01*
X91461904Y-52302380D02*
X91461904Y-51302380D01*
X91842857Y-51302380D01*
X91938095Y-51350000D01*
X91985714Y-51397619D01*
X92033333Y-51492857D01*
X92033333Y-51635714D01*
X91985714Y-51730952D01*
X91938095Y-51778571D01*
X91842857Y-51826190D01*
X91461904Y-51826190D01*
X92604761Y-51730952D02*
X92509523Y-51683333D01*
X92461904Y-51635714D01*
X92414285Y-51540476D01*
X92414285Y-51492857D01*
X92461904Y-51397619D01*
X92509523Y-51350000D01*
X92604761Y-51302380D01*
X92795238Y-51302380D01*
X92890476Y-51350000D01*
X92938095Y-51397619D01*
X92985714Y-51492857D01*
X92985714Y-51540476D01*
X92938095Y-51635714D01*
X92890476Y-51683333D01*
X92795238Y-51730952D01*
X92604761Y-51730952D01*
X92509523Y-51778571D01*
X92461904Y-51826190D01*
X92414285Y-51921428D01*
X92414285Y-52111904D01*
X92461904Y-52207142D01*
X92509523Y-52254761D01*
X92604761Y-52302380D01*
X92795238Y-52302380D01*
X92890476Y-52254761D01*
X92938095Y-52207142D01*
X92985714Y-52111904D01*
X92985714Y-51921428D01*
X92938095Y-51826190D01*
X92890476Y-51778571D01*
X92795238Y-51730952D01*
%TO.C,R12*%
X119557142Y-52302380D02*
X119223809Y-51826190D01*
X118985714Y-52302380D02*
X118985714Y-51302380D01*
X119366666Y-51302380D01*
X119461904Y-51350000D01*
X119509523Y-51397619D01*
X119557142Y-51492857D01*
X119557142Y-51635714D01*
X119509523Y-51730952D01*
X119461904Y-51778571D01*
X119366666Y-51826190D01*
X118985714Y-51826190D01*
X120509523Y-52302380D02*
X119938095Y-52302380D01*
X120223809Y-52302380D02*
X120223809Y-51302380D01*
X120128571Y-51445238D01*
X120033333Y-51540476D01*
X119938095Y-51588095D01*
X120890476Y-51397619D02*
X120938095Y-51350000D01*
X121033333Y-51302380D01*
X121271428Y-51302380D01*
X121366666Y-51350000D01*
X121414285Y-51397619D01*
X121461904Y-51492857D01*
X121461904Y-51588095D01*
X121414285Y-51730952D01*
X120842857Y-52302380D01*
X121461904Y-52302380D01*
%TO.C,Q9*%
X102604761Y-75147619D02*
X102509523Y-75100000D01*
X102414285Y-75004761D01*
X102271428Y-74861904D01*
X102176190Y-74814285D01*
X102080952Y-74814285D01*
X102128571Y-75052380D02*
X102033333Y-75004761D01*
X101938095Y-74909523D01*
X101890476Y-74719047D01*
X101890476Y-74385714D01*
X101938095Y-74195238D01*
X102033333Y-74100000D01*
X102128571Y-74052380D01*
X102319047Y-74052380D01*
X102414285Y-74100000D01*
X102509523Y-74195238D01*
X102557142Y-74385714D01*
X102557142Y-74719047D01*
X102509523Y-74909523D01*
X102414285Y-75004761D01*
X102319047Y-75052380D01*
X102128571Y-75052380D01*
X103033333Y-75052380D02*
X103223809Y-75052380D01*
X103319047Y-75004761D01*
X103366666Y-74957142D01*
X103461904Y-74814285D01*
X103509523Y-74623809D01*
X103509523Y-74242857D01*
X103461904Y-74147619D01*
X103414285Y-74100000D01*
X103319047Y-74052380D01*
X103128571Y-74052380D01*
X103033333Y-74100000D01*
X102985714Y-74147619D01*
X102938095Y-74242857D01*
X102938095Y-74480952D01*
X102985714Y-74576190D01*
X103033333Y-74623809D01*
X103128571Y-74671428D01*
X103319047Y-74671428D01*
X103414285Y-74623809D01*
X103461904Y-74576190D01*
X103509523Y-74480952D01*
%TO.C,C18*%
X94757142Y-88957142D02*
X94709523Y-89004761D01*
X94566666Y-89052380D01*
X94471428Y-89052380D01*
X94328571Y-89004761D01*
X94233333Y-88909523D01*
X94185714Y-88814285D01*
X94138095Y-88623809D01*
X94138095Y-88480952D01*
X94185714Y-88290476D01*
X94233333Y-88195238D01*
X94328571Y-88100000D01*
X94471428Y-88052380D01*
X94566666Y-88052380D01*
X94709523Y-88100000D01*
X94757142Y-88147619D01*
X95709523Y-89052380D02*
X95138095Y-89052380D01*
X95423809Y-89052380D02*
X95423809Y-88052380D01*
X95328571Y-88195238D01*
X95233333Y-88290476D01*
X95138095Y-88338095D01*
X96280952Y-88480952D02*
X96185714Y-88433333D01*
X96138095Y-88385714D01*
X96090476Y-88290476D01*
X96090476Y-88242857D01*
X96138095Y-88147619D01*
X96185714Y-88100000D01*
X96280952Y-88052380D01*
X96471428Y-88052380D01*
X96566666Y-88100000D01*
X96614285Y-88147619D01*
X96661904Y-88242857D01*
X96661904Y-88290476D01*
X96614285Y-88385714D01*
X96566666Y-88433333D01*
X96471428Y-88480952D01*
X96280952Y-88480952D01*
X96185714Y-88528571D01*
X96138095Y-88576190D01*
X96090476Y-88671428D01*
X96090476Y-88861904D01*
X96138095Y-88957142D01*
X96185714Y-89004761D01*
X96280952Y-89052380D01*
X96471428Y-89052380D01*
X96566666Y-89004761D01*
X96614285Y-88957142D01*
X96661904Y-88861904D01*
X96661904Y-88671428D01*
X96614285Y-88576190D01*
X96566666Y-88528571D01*
X96471428Y-88480952D01*
%TO.C,SW1*%
X56666666Y-85530761D02*
X56809523Y-85578380D01*
X57047619Y-85578380D01*
X57142857Y-85530761D01*
X57190476Y-85483142D01*
X57238095Y-85387904D01*
X57238095Y-85292666D01*
X57190476Y-85197428D01*
X57142857Y-85149809D01*
X57047619Y-85102190D01*
X56857142Y-85054571D01*
X56761904Y-85006952D01*
X56714285Y-84959333D01*
X56666666Y-84864095D01*
X56666666Y-84768857D01*
X56714285Y-84673619D01*
X56761904Y-84626000D01*
X56857142Y-84578380D01*
X57095238Y-84578380D01*
X57238095Y-84626000D01*
X57571428Y-84578380D02*
X57809523Y-85578380D01*
X58000000Y-84864095D01*
X58190476Y-85578380D01*
X58428571Y-84578380D01*
X59333333Y-85578380D02*
X58761904Y-85578380D01*
X59047619Y-85578380D02*
X59047619Y-84578380D01*
X58952380Y-84721238D01*
X58857142Y-84816476D01*
X58761904Y-84864095D01*
%TO.C,D11*%
X186385714Y-141752380D02*
X186385714Y-140752380D01*
X186623809Y-140752380D01*
X186766666Y-140800000D01*
X186861904Y-140895238D01*
X186909523Y-140990476D01*
X186957142Y-141180952D01*
X186957142Y-141323809D01*
X186909523Y-141514285D01*
X186861904Y-141609523D01*
X186766666Y-141704761D01*
X186623809Y-141752380D01*
X186385714Y-141752380D01*
X187909523Y-141752380D02*
X187338095Y-141752380D01*
X187623809Y-141752380D02*
X187623809Y-140752380D01*
X187528571Y-140895238D01*
X187433333Y-140990476D01*
X187338095Y-141038095D01*
X188861904Y-141752380D02*
X188290476Y-141752380D01*
X188576190Y-141752380D02*
X188576190Y-140752380D01*
X188480952Y-140895238D01*
X188385714Y-140990476D01*
X188290476Y-141038095D01*
%TO.C,K4*%
X132238095Y-70047619D02*
X132238095Y-71047619D01*
X131666666Y-70047619D02*
X132095238Y-70619047D01*
X131666666Y-71047619D02*
X132238095Y-70476190D01*
X130809523Y-70714285D02*
X130809523Y-70047619D01*
X131047619Y-71095238D02*
X131285714Y-70380952D01*
X130666666Y-70380952D01*
%TO.C,R10*%
X118582380Y-59492857D02*
X118106190Y-59826190D01*
X118582380Y-60064285D02*
X117582380Y-60064285D01*
X117582380Y-59683333D01*
X117630000Y-59588095D01*
X117677619Y-59540476D01*
X117772857Y-59492857D01*
X117915714Y-59492857D01*
X118010952Y-59540476D01*
X118058571Y-59588095D01*
X118106190Y-59683333D01*
X118106190Y-60064285D01*
X118582380Y-58540476D02*
X118582380Y-59111904D01*
X118582380Y-58826190D02*
X117582380Y-58826190D01*
X117725238Y-58921428D01*
X117820476Y-59016666D01*
X117868095Y-59111904D01*
X117582380Y-57921428D02*
X117582380Y-57826190D01*
X117630000Y-57730952D01*
X117677619Y-57683333D01*
X117772857Y-57635714D01*
X117963333Y-57588095D01*
X118201428Y-57588095D01*
X118391904Y-57635714D01*
X118487142Y-57683333D01*
X118534761Y-57730952D01*
X118582380Y-57826190D01*
X118582380Y-57921428D01*
X118534761Y-58016666D01*
X118487142Y-58064285D01*
X118391904Y-58111904D01*
X118201428Y-58159523D01*
X117963333Y-58159523D01*
X117772857Y-58111904D01*
X117677619Y-58064285D01*
X117630000Y-58016666D01*
X117582380Y-57921428D01*
%TO.C,J1*%
X108712380Y-97333333D02*
X109426666Y-97333333D01*
X109569523Y-97380952D01*
X109664761Y-97476190D01*
X109712380Y-97619047D01*
X109712380Y-97714285D01*
X109712380Y-96333333D02*
X109712380Y-96904761D01*
X109712380Y-96619047D02*
X108712380Y-96619047D01*
X108855238Y-96714285D01*
X108950476Y-96809523D01*
X108998095Y-96904761D01*
%TO.C,D14*%
X108485714Y-81302380D02*
X108485714Y-80302380D01*
X108723809Y-80302380D01*
X108866666Y-80350000D01*
X108961904Y-80445238D01*
X109009523Y-80540476D01*
X109057142Y-80730952D01*
X109057142Y-80873809D01*
X109009523Y-81064285D01*
X108961904Y-81159523D01*
X108866666Y-81254761D01*
X108723809Y-81302380D01*
X108485714Y-81302380D01*
X110009523Y-81302380D02*
X109438095Y-81302380D01*
X109723809Y-81302380D02*
X109723809Y-80302380D01*
X109628571Y-80445238D01*
X109533333Y-80540476D01*
X109438095Y-80588095D01*
X110866666Y-80635714D02*
X110866666Y-81302380D01*
X110628571Y-80254761D02*
X110390476Y-80969047D01*
X111009523Y-80969047D01*
%TO.C,K3*%
X145738095Y-74547619D02*
X145738095Y-75547619D01*
X145166666Y-74547619D02*
X145595238Y-75119047D01*
X145166666Y-75547619D02*
X145738095Y-74976190D01*
X144833333Y-75547619D02*
X144214285Y-75547619D01*
X144547619Y-75166666D01*
X144404761Y-75166666D01*
X144309523Y-75119047D01*
X144261904Y-75071428D01*
X144214285Y-74976190D01*
X144214285Y-74738095D01*
X144261904Y-74642857D01*
X144309523Y-74595238D01*
X144404761Y-74547619D01*
X144690476Y-74547619D01*
X144785714Y-74595238D01*
X144833333Y-74642857D01*
%TO.C,C3*%
X57933333Y-44757142D02*
X57885714Y-44804761D01*
X57742857Y-44852380D01*
X57647619Y-44852380D01*
X57504761Y-44804761D01*
X57409523Y-44709523D01*
X57361904Y-44614285D01*
X57314285Y-44423809D01*
X57314285Y-44280952D01*
X57361904Y-44090476D01*
X57409523Y-43995238D01*
X57504761Y-43900000D01*
X57647619Y-43852380D01*
X57742857Y-43852380D01*
X57885714Y-43900000D01*
X57933333Y-43947619D01*
X58266666Y-43852380D02*
X58885714Y-43852380D01*
X58552380Y-44233333D01*
X58695238Y-44233333D01*
X58790476Y-44280952D01*
X58838095Y-44328571D01*
X58885714Y-44423809D01*
X58885714Y-44661904D01*
X58838095Y-44757142D01*
X58790476Y-44804761D01*
X58695238Y-44852380D01*
X58409523Y-44852380D01*
X58314285Y-44804761D01*
X58266666Y-44757142D01*
%TO.C,SW2*%
X56666666Y-105530761D02*
X56809523Y-105578380D01*
X57047619Y-105578380D01*
X57142857Y-105530761D01*
X57190476Y-105483142D01*
X57238095Y-105387904D01*
X57238095Y-105292666D01*
X57190476Y-105197428D01*
X57142857Y-105149809D01*
X57047619Y-105102190D01*
X56857142Y-105054571D01*
X56761904Y-105006952D01*
X56714285Y-104959333D01*
X56666666Y-104864095D01*
X56666666Y-104768857D01*
X56714285Y-104673619D01*
X56761904Y-104626000D01*
X56857142Y-104578380D01*
X57095238Y-104578380D01*
X57238095Y-104626000D01*
X57571428Y-104578380D02*
X57809523Y-105578380D01*
X58000000Y-104864095D01*
X58190476Y-105578380D01*
X58428571Y-104578380D01*
X58761904Y-104673619D02*
X58809523Y-104626000D01*
X58904761Y-104578380D01*
X59142857Y-104578380D01*
X59238095Y-104626000D01*
X59285714Y-104673619D01*
X59333333Y-104768857D01*
X59333333Y-104864095D01*
X59285714Y-105006952D01*
X58714285Y-105578380D01*
X59333333Y-105578380D01*
%TO.C,R4*%
X136952380Y-74166666D02*
X136476190Y-74500000D01*
X136952380Y-74738095D02*
X135952380Y-74738095D01*
X135952380Y-74357142D01*
X136000000Y-74261904D01*
X136047619Y-74214285D01*
X136142857Y-74166666D01*
X136285714Y-74166666D01*
X136380952Y-74214285D01*
X136428571Y-74261904D01*
X136476190Y-74357142D01*
X136476190Y-74738095D01*
X136285714Y-73309523D02*
X136952380Y-73309523D01*
X135904761Y-73547619D02*
X136619047Y-73785714D01*
X136619047Y-73166666D01*
%TO.C,J5*%
X120461666Y-39997380D02*
X120461666Y-40711666D01*
X120414047Y-40854523D01*
X120318809Y-40949761D01*
X120175952Y-40997380D01*
X120080714Y-40997380D01*
X121414047Y-39997380D02*
X120937857Y-39997380D01*
X120890238Y-40473571D01*
X120937857Y-40425952D01*
X121033095Y-40378333D01*
X121271190Y-40378333D01*
X121366428Y-40425952D01*
X121414047Y-40473571D01*
X121461666Y-40568809D01*
X121461666Y-40806904D01*
X121414047Y-40902142D01*
X121366428Y-40949761D01*
X121271190Y-40997380D01*
X121033095Y-40997380D01*
X120937857Y-40949761D01*
X120890238Y-40902142D01*
%TO.C,U12*%
X117902380Y-142378095D02*
X118711904Y-142378095D01*
X118807142Y-142330476D01*
X118854761Y-142282857D01*
X118902380Y-142187619D01*
X118902380Y-141997142D01*
X118854761Y-141901904D01*
X118807142Y-141854285D01*
X118711904Y-141806666D01*
X117902380Y-141806666D01*
X118902380Y-140806666D02*
X118902380Y-141378095D01*
X118902380Y-141092380D02*
X117902380Y-141092380D01*
X118045238Y-141187619D01*
X118140476Y-141282857D01*
X118188095Y-141378095D01*
X117997619Y-140425714D02*
X117950000Y-140378095D01*
X117902380Y-140282857D01*
X117902380Y-140044761D01*
X117950000Y-139949523D01*
X117997619Y-139901904D01*
X118092857Y-139854285D01*
X118188095Y-139854285D01*
X118330952Y-139901904D01*
X118902380Y-140473333D01*
X118902380Y-139854285D01*
%TO.C,C2*%
X92033333Y-62207142D02*
X91985714Y-62254761D01*
X91842857Y-62302380D01*
X91747619Y-62302380D01*
X91604761Y-62254761D01*
X91509523Y-62159523D01*
X91461904Y-62064285D01*
X91414285Y-61873809D01*
X91414285Y-61730952D01*
X91461904Y-61540476D01*
X91509523Y-61445238D01*
X91604761Y-61350000D01*
X91747619Y-61302380D01*
X91842857Y-61302380D01*
X91985714Y-61350000D01*
X92033333Y-61397619D01*
X92414285Y-61397619D02*
X92461904Y-61350000D01*
X92557142Y-61302380D01*
X92795238Y-61302380D01*
X92890476Y-61350000D01*
X92938095Y-61397619D01*
X92985714Y-61492857D01*
X92985714Y-61588095D01*
X92938095Y-61730952D01*
X92366666Y-62302380D01*
X92985714Y-62302380D01*
%TO.C,D3*%
X154652380Y-79238095D02*
X153652380Y-79238095D01*
X153652380Y-79000000D01*
X153700000Y-78857142D01*
X153795238Y-78761904D01*
X153890476Y-78714285D01*
X154080952Y-78666666D01*
X154223809Y-78666666D01*
X154414285Y-78714285D01*
X154509523Y-78761904D01*
X154604761Y-78857142D01*
X154652380Y-79000000D01*
X154652380Y-79238095D01*
X153652380Y-78333333D02*
X153652380Y-77714285D01*
X154033333Y-78047619D01*
X154033333Y-77904761D01*
X154080952Y-77809523D01*
X154128571Y-77761904D01*
X154223809Y-77714285D01*
X154461904Y-77714285D01*
X154557142Y-77761904D01*
X154604761Y-77809523D01*
X154652380Y-77904761D01*
X154652380Y-78190476D01*
X154604761Y-78285714D01*
X154557142Y-78333333D01*
%TO.C,C12*%
X230857142Y-139657142D02*
X230809523Y-139704761D01*
X230666666Y-139752380D01*
X230571428Y-139752380D01*
X230428571Y-139704761D01*
X230333333Y-139609523D01*
X230285714Y-139514285D01*
X230238095Y-139323809D01*
X230238095Y-139180952D01*
X230285714Y-138990476D01*
X230333333Y-138895238D01*
X230428571Y-138800000D01*
X230571428Y-138752380D01*
X230666666Y-138752380D01*
X230809523Y-138800000D01*
X230857142Y-138847619D01*
X231809523Y-139752380D02*
X231238095Y-139752380D01*
X231523809Y-139752380D02*
X231523809Y-138752380D01*
X231428571Y-138895238D01*
X231333333Y-138990476D01*
X231238095Y-139038095D01*
X232190476Y-138847619D02*
X232238095Y-138800000D01*
X232333333Y-138752380D01*
X232571428Y-138752380D01*
X232666666Y-138800000D01*
X232714285Y-138847619D01*
X232761904Y-138942857D01*
X232761904Y-139038095D01*
X232714285Y-139180952D01*
X232142857Y-139752380D01*
X232761904Y-139752380D01*
%TO.C,K1*%
X184738095Y-75047619D02*
X184738095Y-76047619D01*
X184166666Y-75047619D02*
X184595238Y-75619047D01*
X184166666Y-76047619D02*
X184738095Y-75476190D01*
X183214285Y-75047619D02*
X183785714Y-75047619D01*
X183500000Y-75047619D02*
X183500000Y-76047619D01*
X183595238Y-75904761D01*
X183690476Y-75809523D01*
X183785714Y-75761904D01*
%TO.C,D13*%
X214785714Y-141752380D02*
X214785714Y-140752380D01*
X215023809Y-140752380D01*
X215166666Y-140800000D01*
X215261904Y-140895238D01*
X215309523Y-140990476D01*
X215357142Y-141180952D01*
X215357142Y-141323809D01*
X215309523Y-141514285D01*
X215261904Y-141609523D01*
X215166666Y-141704761D01*
X215023809Y-141752380D01*
X214785714Y-141752380D01*
X216309523Y-141752380D02*
X215738095Y-141752380D01*
X216023809Y-141752380D02*
X216023809Y-140752380D01*
X215928571Y-140895238D01*
X215833333Y-140990476D01*
X215738095Y-141038095D01*
X216642857Y-140752380D02*
X217261904Y-140752380D01*
X216928571Y-141133333D01*
X217071428Y-141133333D01*
X217166666Y-141180952D01*
X217214285Y-141228571D01*
X217261904Y-141323809D01*
X217261904Y-141561904D01*
X217214285Y-141657142D01*
X217166666Y-141704761D01*
X217071428Y-141752380D01*
X216785714Y-141752380D01*
X216690476Y-141704761D01*
X216642857Y-141657142D01*
%TO.C,U4*%
X227738095Y-138752380D02*
X227738095Y-139561904D01*
X227785714Y-139657142D01*
X227833333Y-139704761D01*
X227928571Y-139752380D01*
X228119047Y-139752380D01*
X228214285Y-139704761D01*
X228261904Y-139657142D01*
X228309523Y-139561904D01*
X228309523Y-138752380D01*
X229214285Y-139085714D02*
X229214285Y-139752380D01*
X228976190Y-138704761D02*
X228738095Y-139419047D01*
X229357142Y-139419047D01*
%TO.C,R5*%
X92033333Y-50302380D02*
X91700000Y-49826190D01*
X91461904Y-50302380D02*
X91461904Y-49302380D01*
X91842857Y-49302380D01*
X91938095Y-49350000D01*
X91985714Y-49397619D01*
X92033333Y-49492857D01*
X92033333Y-49635714D01*
X91985714Y-49730952D01*
X91938095Y-49778571D01*
X91842857Y-49826190D01*
X91461904Y-49826190D01*
X92938095Y-49302380D02*
X92461904Y-49302380D01*
X92414285Y-49778571D01*
X92461904Y-49730952D01*
X92557142Y-49683333D01*
X92795238Y-49683333D01*
X92890476Y-49730952D01*
X92938095Y-49778571D01*
X92985714Y-49873809D01*
X92985714Y-50111904D01*
X92938095Y-50207142D01*
X92890476Y-50254761D01*
X92795238Y-50302380D01*
X92557142Y-50302380D01*
X92461904Y-50254761D01*
X92414285Y-50207142D01*
%TO.C,C6*%
X190602834Y-91007142D02*
X190555215Y-91054761D01*
X190412358Y-91102380D01*
X190317120Y-91102380D01*
X190174262Y-91054761D01*
X190079024Y-90959523D01*
X190031405Y-90864285D01*
X189983786Y-90673809D01*
X189983786Y-90530952D01*
X190031405Y-90340476D01*
X190079024Y-90245238D01*
X190174262Y-90150000D01*
X190317120Y-90102380D01*
X190412358Y-90102380D01*
X190555215Y-90150000D01*
X190602834Y-90197619D01*
X191459977Y-90102380D02*
X191269501Y-90102380D01*
X191174262Y-90150000D01*
X191126643Y-90197619D01*
X191031405Y-90340476D01*
X190983786Y-90530952D01*
X190983786Y-90911904D01*
X191031405Y-91007142D01*
X191079024Y-91054761D01*
X191174262Y-91102380D01*
X191364739Y-91102380D01*
X191459977Y-91054761D01*
X191507596Y-91007142D01*
X191555215Y-90911904D01*
X191555215Y-90673809D01*
X191507596Y-90578571D01*
X191459977Y-90530952D01*
X191364739Y-90483333D01*
X191174262Y-90483333D01*
X191079024Y-90530952D01*
X191031405Y-90578571D01*
X190983786Y-90673809D01*
%TO.C,Q8*%
X116604761Y-75147619D02*
X116509523Y-75100000D01*
X116414285Y-75004761D01*
X116271428Y-74861904D01*
X116176190Y-74814285D01*
X116080952Y-74814285D01*
X116128571Y-75052380D02*
X116033333Y-75004761D01*
X115938095Y-74909523D01*
X115890476Y-74719047D01*
X115890476Y-74385714D01*
X115938095Y-74195238D01*
X116033333Y-74100000D01*
X116128571Y-74052380D01*
X116319047Y-74052380D01*
X116414285Y-74100000D01*
X116509523Y-74195238D01*
X116557142Y-74385714D01*
X116557142Y-74719047D01*
X116509523Y-74909523D01*
X116414285Y-75004761D01*
X116319047Y-75052380D01*
X116128571Y-75052380D01*
X117128571Y-74480952D02*
X117033333Y-74433333D01*
X116985714Y-74385714D01*
X116938095Y-74290476D01*
X116938095Y-74242857D01*
X116985714Y-74147619D01*
X117033333Y-74100000D01*
X117128571Y-74052380D01*
X117319047Y-74052380D01*
X117414285Y-74100000D01*
X117461904Y-74147619D01*
X117509523Y-74242857D01*
X117509523Y-74290476D01*
X117461904Y-74385714D01*
X117414285Y-74433333D01*
X117319047Y-74480952D01*
X117128571Y-74480952D01*
X117033333Y-74528571D01*
X116985714Y-74576190D01*
X116938095Y-74671428D01*
X116938095Y-74861904D01*
X116985714Y-74957142D01*
X117033333Y-75004761D01*
X117128571Y-75052380D01*
X117319047Y-75052380D01*
X117414285Y-75004761D01*
X117461904Y-74957142D01*
X117509523Y-74861904D01*
X117509523Y-74671428D01*
X117461904Y-74576190D01*
X117414285Y-74528571D01*
X117319047Y-74480952D01*
%TO.C,U2*%
X57438095Y-38452380D02*
X57438095Y-39261904D01*
X57485714Y-39357142D01*
X57533333Y-39404761D01*
X57628571Y-39452380D01*
X57819047Y-39452380D01*
X57914285Y-39404761D01*
X57961904Y-39357142D01*
X58009523Y-39261904D01*
X58009523Y-38452380D01*
X58438095Y-38547619D02*
X58485714Y-38500000D01*
X58580952Y-38452380D01*
X58819047Y-38452380D01*
X58914285Y-38500000D01*
X58961904Y-38547619D01*
X59009523Y-38642857D01*
X59009523Y-38738095D01*
X58961904Y-38880952D01*
X58390476Y-39452380D01*
X59009523Y-39452380D01*
%TO.C,R19*%
X117557142Y-69802380D02*
X117223809Y-69326190D01*
X116985714Y-69802380D02*
X116985714Y-68802380D01*
X117366666Y-68802380D01*
X117461904Y-68850000D01*
X117509523Y-68897619D01*
X117557142Y-68992857D01*
X117557142Y-69135714D01*
X117509523Y-69230952D01*
X117461904Y-69278571D01*
X117366666Y-69326190D01*
X116985714Y-69326190D01*
X118509523Y-69802380D02*
X117938095Y-69802380D01*
X118223809Y-69802380D02*
X118223809Y-68802380D01*
X118128571Y-68945238D01*
X118033333Y-69040476D01*
X117938095Y-69088095D01*
X118985714Y-69802380D02*
X119176190Y-69802380D01*
X119271428Y-69754761D01*
X119319047Y-69707142D01*
X119414285Y-69564285D01*
X119461904Y-69373809D01*
X119461904Y-68992857D01*
X119414285Y-68897619D01*
X119366666Y-68850000D01*
X119271428Y-68802380D01*
X119080952Y-68802380D01*
X118985714Y-68850000D01*
X118938095Y-68897619D01*
X118890476Y-68992857D01*
X118890476Y-69230952D01*
X118938095Y-69326190D01*
X118985714Y-69373809D01*
X119080952Y-69421428D01*
X119271428Y-69421428D01*
X119366666Y-69373809D01*
X119414285Y-69326190D01*
X119461904Y-69230952D01*
%TO.C,SW4*%
X56606666Y-65450761D02*
X56749523Y-65498380D01*
X56987619Y-65498380D01*
X57082857Y-65450761D01*
X57130476Y-65403142D01*
X57178095Y-65307904D01*
X57178095Y-65212666D01*
X57130476Y-65117428D01*
X57082857Y-65069809D01*
X56987619Y-65022190D01*
X56797142Y-64974571D01*
X56701904Y-64926952D01*
X56654285Y-64879333D01*
X56606666Y-64784095D01*
X56606666Y-64688857D01*
X56654285Y-64593619D01*
X56701904Y-64546000D01*
X56797142Y-64498380D01*
X57035238Y-64498380D01*
X57178095Y-64546000D01*
X57511428Y-64498380D02*
X57749523Y-65498380D01*
X57940000Y-64784095D01*
X58130476Y-65498380D01*
X58368571Y-64498380D01*
X59178095Y-64831714D02*
X59178095Y-65498380D01*
X58940000Y-64450761D02*
X58701904Y-65165047D01*
X59320952Y-65165047D01*
%TO.C,D16*%
X115485714Y-81302380D02*
X115485714Y-80302380D01*
X115723809Y-80302380D01*
X115866666Y-80350000D01*
X115961904Y-80445238D01*
X116009523Y-80540476D01*
X116057142Y-80730952D01*
X116057142Y-80873809D01*
X116009523Y-81064285D01*
X115961904Y-81159523D01*
X115866666Y-81254761D01*
X115723809Y-81302380D01*
X115485714Y-81302380D01*
X117009523Y-81302380D02*
X116438095Y-81302380D01*
X116723809Y-81302380D02*
X116723809Y-80302380D01*
X116628571Y-80445238D01*
X116533333Y-80540476D01*
X116438095Y-80588095D01*
X117866666Y-80302380D02*
X117676190Y-80302380D01*
X117580952Y-80350000D01*
X117533333Y-80397619D01*
X117438095Y-80540476D01*
X117390476Y-80730952D01*
X117390476Y-81111904D01*
X117438095Y-81207142D01*
X117485714Y-81254761D01*
X117580952Y-81302380D01*
X117771428Y-81302380D01*
X117866666Y-81254761D01*
X117914285Y-81207142D01*
X117961904Y-81111904D01*
X117961904Y-80873809D01*
X117914285Y-80778571D01*
X117866666Y-80730952D01*
X117771428Y-80683333D01*
X117580952Y-80683333D01*
X117485714Y-80730952D01*
X117438095Y-80778571D01*
X117390476Y-80873809D01*
%TO.C,C16*%
X94757142Y-90557142D02*
X94709523Y-90604761D01*
X94566666Y-90652380D01*
X94471428Y-90652380D01*
X94328571Y-90604761D01*
X94233333Y-90509523D01*
X94185714Y-90414285D01*
X94138095Y-90223809D01*
X94138095Y-90080952D01*
X94185714Y-89890476D01*
X94233333Y-89795238D01*
X94328571Y-89700000D01*
X94471428Y-89652380D01*
X94566666Y-89652380D01*
X94709523Y-89700000D01*
X94757142Y-89747619D01*
X95709523Y-90652380D02*
X95138095Y-90652380D01*
X95423809Y-90652380D02*
X95423809Y-89652380D01*
X95328571Y-89795238D01*
X95233333Y-89890476D01*
X95138095Y-89938095D01*
X96566666Y-89652380D02*
X96376190Y-89652380D01*
X96280952Y-89700000D01*
X96233333Y-89747619D01*
X96138095Y-89890476D01*
X96090476Y-90080952D01*
X96090476Y-90461904D01*
X96138095Y-90557142D01*
X96185714Y-90604761D01*
X96280952Y-90652380D01*
X96471428Y-90652380D01*
X96566666Y-90604761D01*
X96614285Y-90557142D01*
X96661904Y-90461904D01*
X96661904Y-90223809D01*
X96614285Y-90128571D01*
X96566666Y-90080952D01*
X96471428Y-90033333D01*
X96280952Y-90033333D01*
X96185714Y-90080952D01*
X96138095Y-90128571D01*
X96090476Y-90223809D01*
%TO.C,Q4*%
X133904761Y-73547619D02*
X133809523Y-73500000D01*
X133714285Y-73404761D01*
X133571428Y-73261904D01*
X133476190Y-73214285D01*
X133380952Y-73214285D01*
X133428571Y-73452380D02*
X133333333Y-73404761D01*
X133238095Y-73309523D01*
X133190476Y-73119047D01*
X133190476Y-72785714D01*
X133238095Y-72595238D01*
X133333333Y-72500000D01*
X133428571Y-72452380D01*
X133619047Y-72452380D01*
X133714285Y-72500000D01*
X133809523Y-72595238D01*
X133857142Y-72785714D01*
X133857142Y-73119047D01*
X133809523Y-73309523D01*
X133714285Y-73404761D01*
X133619047Y-73452380D01*
X133428571Y-73452380D01*
X134714285Y-72785714D02*
X134714285Y-73452380D01*
X134476190Y-72404761D02*
X134238095Y-73119047D01*
X134857142Y-73119047D01*
%TO.C,R13*%
X195052380Y-140942857D02*
X194576190Y-141276190D01*
X195052380Y-141514285D02*
X194052380Y-141514285D01*
X194052380Y-141133333D01*
X194100000Y-141038095D01*
X194147619Y-140990476D01*
X194242857Y-140942857D01*
X194385714Y-140942857D01*
X194480952Y-140990476D01*
X194528571Y-141038095D01*
X194576190Y-141133333D01*
X194576190Y-141514285D01*
X195052380Y-139990476D02*
X195052380Y-140561904D01*
X195052380Y-140276190D02*
X194052380Y-140276190D01*
X194195238Y-140371428D01*
X194290476Y-140466666D01*
X194338095Y-140561904D01*
X194052380Y-139657142D02*
X194052380Y-139038095D01*
X194433333Y-139371428D01*
X194433333Y-139228571D01*
X194480952Y-139133333D01*
X194528571Y-139085714D01*
X194623809Y-139038095D01*
X194861904Y-139038095D01*
X194957142Y-139085714D01*
X195004761Y-139133333D01*
X195052380Y-139228571D01*
X195052380Y-139514285D01*
X195004761Y-139609523D01*
X194957142Y-139657142D01*
%TO.C,C13*%
X215357142Y-139657142D02*
X215309523Y-139704761D01*
X215166666Y-139752380D01*
X215071428Y-139752380D01*
X214928571Y-139704761D01*
X214833333Y-139609523D01*
X214785714Y-139514285D01*
X214738095Y-139323809D01*
X214738095Y-139180952D01*
X214785714Y-138990476D01*
X214833333Y-138895238D01*
X214928571Y-138800000D01*
X215071428Y-138752380D01*
X215166666Y-138752380D01*
X215309523Y-138800000D01*
X215357142Y-138847619D01*
X216309523Y-139752380D02*
X215738095Y-139752380D01*
X216023809Y-139752380D02*
X216023809Y-138752380D01*
X215928571Y-138895238D01*
X215833333Y-138990476D01*
X215738095Y-139038095D01*
X216642857Y-138752380D02*
X217261904Y-138752380D01*
X216928571Y-139133333D01*
X217071428Y-139133333D01*
X217166666Y-139180952D01*
X217214285Y-139228571D01*
X217261904Y-139323809D01*
X217261904Y-139561904D01*
X217214285Y-139657142D01*
X217166666Y-139704761D01*
X217071428Y-139752380D01*
X216785714Y-139752380D01*
X216690476Y-139704761D01*
X216642857Y-139657142D01*
%TO.C,C11*%
X186957142Y-139657142D02*
X186909523Y-139704761D01*
X186766666Y-139752380D01*
X186671428Y-139752380D01*
X186528571Y-139704761D01*
X186433333Y-139609523D01*
X186385714Y-139514285D01*
X186338095Y-139323809D01*
X186338095Y-139180952D01*
X186385714Y-138990476D01*
X186433333Y-138895238D01*
X186528571Y-138800000D01*
X186671428Y-138752380D01*
X186766666Y-138752380D01*
X186909523Y-138800000D01*
X186957142Y-138847619D01*
X187909523Y-139752380D02*
X187338095Y-139752380D01*
X187623809Y-139752380D02*
X187623809Y-138752380D01*
X187528571Y-138895238D01*
X187433333Y-138990476D01*
X187338095Y-139038095D01*
X188861904Y-139752380D02*
X188290476Y-139752380D01*
X188576190Y-139752380D02*
X188576190Y-138752380D01*
X188480952Y-138895238D01*
X188385714Y-138990476D01*
X188290476Y-139038095D01*
%TO.C,Q7*%
X109604761Y-75147619D02*
X109509523Y-75100000D01*
X109414285Y-75004761D01*
X109271428Y-74861904D01*
X109176190Y-74814285D01*
X109080952Y-74814285D01*
X109128571Y-75052380D02*
X109033333Y-75004761D01*
X108938095Y-74909523D01*
X108890476Y-74719047D01*
X108890476Y-74385714D01*
X108938095Y-74195238D01*
X109033333Y-74100000D01*
X109128571Y-74052380D01*
X109319047Y-74052380D01*
X109414285Y-74100000D01*
X109509523Y-74195238D01*
X109557142Y-74385714D01*
X109557142Y-74719047D01*
X109509523Y-74909523D01*
X109414285Y-75004761D01*
X109319047Y-75052380D01*
X109128571Y-75052380D01*
X109890476Y-74052380D02*
X110557142Y-74052380D01*
X110128571Y-75052380D01*
%TO.C,U11*%
X117902380Y-122478095D02*
X118711904Y-122478095D01*
X118807142Y-122430476D01*
X118854761Y-122382857D01*
X118902380Y-122287619D01*
X118902380Y-122097142D01*
X118854761Y-122001904D01*
X118807142Y-121954285D01*
X118711904Y-121906666D01*
X117902380Y-121906666D01*
X118902380Y-120906666D02*
X118902380Y-121478095D01*
X118902380Y-121192380D02*
X117902380Y-121192380D01*
X118045238Y-121287619D01*
X118140476Y-121382857D01*
X118188095Y-121478095D01*
X118902380Y-119954285D02*
X118902380Y-120525714D01*
X118902380Y-120240000D02*
X117902380Y-120240000D01*
X118045238Y-120335238D01*
X118140476Y-120430476D01*
X118188095Y-120525714D01*
%TO.C,R18*%
X117557142Y-67802380D02*
X117223809Y-67326190D01*
X116985714Y-67802380D02*
X116985714Y-66802380D01*
X117366666Y-66802380D01*
X117461904Y-66850000D01*
X117509523Y-66897619D01*
X117557142Y-66992857D01*
X117557142Y-67135714D01*
X117509523Y-67230952D01*
X117461904Y-67278571D01*
X117366666Y-67326190D01*
X116985714Y-67326190D01*
X118509523Y-67802380D02*
X117938095Y-67802380D01*
X118223809Y-67802380D02*
X118223809Y-66802380D01*
X118128571Y-66945238D01*
X118033333Y-67040476D01*
X117938095Y-67088095D01*
X119080952Y-67230952D02*
X118985714Y-67183333D01*
X118938095Y-67135714D01*
X118890476Y-67040476D01*
X118890476Y-66992857D01*
X118938095Y-66897619D01*
X118985714Y-66850000D01*
X119080952Y-66802380D01*
X119271428Y-66802380D01*
X119366666Y-66850000D01*
X119414285Y-66897619D01*
X119461904Y-66992857D01*
X119461904Y-67040476D01*
X119414285Y-67135714D01*
X119366666Y-67183333D01*
X119271428Y-67230952D01*
X119080952Y-67230952D01*
X118985714Y-67278571D01*
X118938095Y-67326190D01*
X118890476Y-67421428D01*
X118890476Y-67611904D01*
X118938095Y-67707142D01*
X118985714Y-67754761D01*
X119080952Y-67802380D01*
X119271428Y-67802380D01*
X119366666Y-67754761D01*
X119414285Y-67707142D01*
X119461904Y-67611904D01*
X119461904Y-67421428D01*
X119414285Y-67326190D01*
X119366666Y-67278571D01*
X119271428Y-67230952D01*
%TO.C,C5*%
X66933333Y-44757142D02*
X66885714Y-44804761D01*
X66742857Y-44852380D01*
X66647619Y-44852380D01*
X66504761Y-44804761D01*
X66409523Y-44709523D01*
X66361904Y-44614285D01*
X66314285Y-44423809D01*
X66314285Y-44280952D01*
X66361904Y-44090476D01*
X66409523Y-43995238D01*
X66504761Y-43900000D01*
X66647619Y-43852380D01*
X66742857Y-43852380D01*
X66885714Y-43900000D01*
X66933333Y-43947619D01*
X67838095Y-43852380D02*
X67361904Y-43852380D01*
X67314285Y-44328571D01*
X67361904Y-44280952D01*
X67457142Y-44233333D01*
X67695238Y-44233333D01*
X67790476Y-44280952D01*
X67838095Y-44328571D01*
X67885714Y-44423809D01*
X67885714Y-44661904D01*
X67838095Y-44757142D01*
X67790476Y-44804761D01*
X67695238Y-44852380D01*
X67457142Y-44852380D01*
X67361904Y-44804761D01*
X67314285Y-44757142D01*
%TO.C,R6*%
X92033333Y-46302380D02*
X91700000Y-45826190D01*
X91461904Y-46302380D02*
X91461904Y-45302380D01*
X91842857Y-45302380D01*
X91938095Y-45350000D01*
X91985714Y-45397619D01*
X92033333Y-45492857D01*
X92033333Y-45635714D01*
X91985714Y-45730952D01*
X91938095Y-45778571D01*
X91842857Y-45826190D01*
X91461904Y-45826190D01*
X92890476Y-45302380D02*
X92700000Y-45302380D01*
X92604761Y-45350000D01*
X92557142Y-45397619D01*
X92461904Y-45540476D01*
X92414285Y-45730952D01*
X92414285Y-46111904D01*
X92461904Y-46207142D01*
X92509523Y-46254761D01*
X92604761Y-46302380D01*
X92795238Y-46302380D01*
X92890476Y-46254761D01*
X92938095Y-46207142D01*
X92985714Y-46111904D01*
X92985714Y-45873809D01*
X92938095Y-45778571D01*
X92890476Y-45730952D01*
X92795238Y-45683333D01*
X92604761Y-45683333D01*
X92509523Y-45730952D01*
X92461904Y-45778571D01*
X92414285Y-45873809D01*
%TO.C,R22*%
X98252380Y-88642857D02*
X97776190Y-88976190D01*
X98252380Y-89214285D02*
X97252380Y-89214285D01*
X97252380Y-88833333D01*
X97300000Y-88738095D01*
X97347619Y-88690476D01*
X97442857Y-88642857D01*
X97585714Y-88642857D01*
X97680952Y-88690476D01*
X97728571Y-88738095D01*
X97776190Y-88833333D01*
X97776190Y-89214285D01*
X97347619Y-88261904D02*
X97300000Y-88214285D01*
X97252380Y-88119047D01*
X97252380Y-87880952D01*
X97300000Y-87785714D01*
X97347619Y-87738095D01*
X97442857Y-87690476D01*
X97538095Y-87690476D01*
X97680952Y-87738095D01*
X98252380Y-88309523D01*
X98252380Y-87690476D01*
X97347619Y-87309523D02*
X97300000Y-87261904D01*
X97252380Y-87166666D01*
X97252380Y-86928571D01*
X97300000Y-86833333D01*
X97347619Y-86785714D01*
X97442857Y-86738095D01*
X97538095Y-86738095D01*
X97680952Y-86785714D01*
X98252380Y-87357142D01*
X98252380Y-86738095D01*
%TO.C,C19*%
X145957142Y-88957142D02*
X145909523Y-89004761D01*
X145766666Y-89052380D01*
X145671428Y-89052380D01*
X145528571Y-89004761D01*
X145433333Y-88909523D01*
X145385714Y-88814285D01*
X145338095Y-88623809D01*
X145338095Y-88480952D01*
X145385714Y-88290476D01*
X145433333Y-88195238D01*
X145528571Y-88100000D01*
X145671428Y-88052380D01*
X145766666Y-88052380D01*
X145909523Y-88100000D01*
X145957142Y-88147619D01*
X146909523Y-89052380D02*
X146338095Y-89052380D01*
X146623809Y-89052380D02*
X146623809Y-88052380D01*
X146528571Y-88195238D01*
X146433333Y-88290476D01*
X146338095Y-88338095D01*
X147385714Y-89052380D02*
X147576190Y-89052380D01*
X147671428Y-89004761D01*
X147719047Y-88957142D01*
X147814285Y-88814285D01*
X147861904Y-88623809D01*
X147861904Y-88242857D01*
X147814285Y-88147619D01*
X147766666Y-88100000D01*
X147671428Y-88052380D01*
X147480952Y-88052380D01*
X147385714Y-88100000D01*
X147338095Y-88147619D01*
X147290476Y-88242857D01*
X147290476Y-88480952D01*
X147338095Y-88576190D01*
X147385714Y-88623809D01*
X147480952Y-88671428D01*
X147671428Y-88671428D01*
X147766666Y-88623809D01*
X147814285Y-88576190D01*
X147861904Y-88480952D01*
%TO.C,TRE1*%
X218885714Y-42652380D02*
X219457142Y-42652380D01*
X219171428Y-43652380D02*
X219171428Y-42652380D01*
X220361904Y-43652380D02*
X220028571Y-43176190D01*
X219790476Y-43652380D02*
X219790476Y-42652380D01*
X220171428Y-42652380D01*
X220266666Y-42700000D01*
X220314285Y-42747619D01*
X220361904Y-42842857D01*
X220361904Y-42985714D01*
X220314285Y-43080952D01*
X220266666Y-43128571D01*
X220171428Y-43176190D01*
X219790476Y-43176190D01*
X220790476Y-43128571D02*
X221123809Y-43128571D01*
X221266666Y-43652380D02*
X220790476Y-43652380D01*
X220790476Y-42652380D01*
X221266666Y-42652380D01*
X222219047Y-43652380D02*
X221647619Y-43652380D01*
X221933333Y-43652380D02*
X221933333Y-42652380D01*
X221838095Y-42795238D01*
X221742857Y-42890476D01*
X221647619Y-42938095D01*
%TO.C,D10*%
X233214285Y-94647619D02*
X233214285Y-95647619D01*
X232976190Y-95647619D01*
X232833333Y-95600000D01*
X232738095Y-95504761D01*
X232690476Y-95409523D01*
X232642857Y-95219047D01*
X232642857Y-95076190D01*
X232690476Y-94885714D01*
X232738095Y-94790476D01*
X232833333Y-94695238D01*
X232976190Y-94647619D01*
X233214285Y-94647619D01*
X231690476Y-94647619D02*
X232261904Y-94647619D01*
X231976190Y-94647619D02*
X231976190Y-95647619D01*
X232071428Y-95504761D01*
X232166666Y-95409523D01*
X232261904Y-95361904D01*
X231071428Y-95647619D02*
X230976190Y-95647619D01*
X230880952Y-95600000D01*
X230833333Y-95552380D01*
X230785714Y-95457142D01*
X230738095Y-95266666D01*
X230738095Y-95028571D01*
X230785714Y-94838095D01*
X230833333Y-94742857D01*
X230880952Y-94695238D01*
X230976190Y-94647619D01*
X231071428Y-94647619D01*
X231166666Y-94695238D01*
X231214285Y-94742857D01*
X231261904Y-94838095D01*
X231309523Y-95028571D01*
X231309523Y-95266666D01*
X231261904Y-95457142D01*
X231214285Y-95552380D01*
X231166666Y-95600000D01*
X231071428Y-95647619D01*
X229661904Y-79528571D02*
X229614285Y-79576190D01*
X229519047Y-79623809D01*
X229328571Y-79528571D01*
X229233333Y-79576190D01*
X229185714Y-79623809D01*
X234980952Y-90728571D02*
X234219047Y-90728571D01*
X229780952Y-90728571D02*
X229019047Y-90728571D01*
X229400000Y-90347619D02*
X229400000Y-91109523D01*
X235061904Y-79528571D02*
X235014285Y-79576190D01*
X234919047Y-79623809D01*
X234728571Y-79528571D01*
X234633333Y-79576190D01*
X234585714Y-79623809D01*
%TO.C,C4*%
X66933333Y-42757142D02*
X66885714Y-42804761D01*
X66742857Y-42852380D01*
X66647619Y-42852380D01*
X66504761Y-42804761D01*
X66409523Y-42709523D01*
X66361904Y-42614285D01*
X66314285Y-42423809D01*
X66314285Y-42280952D01*
X66361904Y-42090476D01*
X66409523Y-41995238D01*
X66504761Y-41900000D01*
X66647619Y-41852380D01*
X66742857Y-41852380D01*
X66885714Y-41900000D01*
X66933333Y-41947619D01*
X67790476Y-42185714D02*
X67790476Y-42852380D01*
X67552380Y-41804761D02*
X67314285Y-42519047D01*
X67933333Y-42519047D01*
%TO.C,D4*%
X191452380Y-79738095D02*
X190452380Y-79738095D01*
X190452380Y-79500000D01*
X190500000Y-79357142D01*
X190595238Y-79261904D01*
X190690476Y-79214285D01*
X190880952Y-79166666D01*
X191023809Y-79166666D01*
X191214285Y-79214285D01*
X191309523Y-79261904D01*
X191404761Y-79357142D01*
X191452380Y-79500000D01*
X191452380Y-79738095D01*
X190785714Y-78309523D02*
X191452380Y-78309523D01*
X190404761Y-78547619D02*
X191119047Y-78785714D01*
X191119047Y-78166666D01*
%TO.C,R7*%
X57933333Y-42852380D02*
X57600000Y-42376190D01*
X57361904Y-42852380D02*
X57361904Y-41852380D01*
X57742857Y-41852380D01*
X57838095Y-41900000D01*
X57885714Y-41947619D01*
X57933333Y-42042857D01*
X57933333Y-42185714D01*
X57885714Y-42280952D01*
X57838095Y-42328571D01*
X57742857Y-42376190D01*
X57361904Y-42376190D01*
X58266666Y-41852380D02*
X58933333Y-41852380D01*
X58504761Y-42852380D01*
%TO.C,D9*%
X212738095Y-94647619D02*
X212738095Y-95647619D01*
X212500000Y-95647619D01*
X212357142Y-95600000D01*
X212261904Y-95504761D01*
X212214285Y-95409523D01*
X212166666Y-95219047D01*
X212166666Y-95076190D01*
X212214285Y-94885714D01*
X212261904Y-94790476D01*
X212357142Y-94695238D01*
X212500000Y-94647619D01*
X212738095Y-94647619D01*
X211690476Y-94647619D02*
X211500000Y-94647619D01*
X211404761Y-94695238D01*
X211357142Y-94742857D01*
X211261904Y-94885714D01*
X211214285Y-95076190D01*
X211214285Y-95457142D01*
X211261904Y-95552380D01*
X211309523Y-95600000D01*
X211404761Y-95647619D01*
X211595238Y-95647619D01*
X211690476Y-95600000D01*
X211738095Y-95552380D01*
X211785714Y-95457142D01*
X211785714Y-95219047D01*
X211738095Y-95123809D01*
X211690476Y-95076190D01*
X211595238Y-95028571D01*
X211404761Y-95028571D01*
X211309523Y-95076190D01*
X211261904Y-95123809D01*
X211214285Y-95219047D01*
X214980952Y-90728571D02*
X214219047Y-90728571D01*
X209780952Y-90728571D02*
X209019047Y-90728571D01*
X209400000Y-90347619D02*
X209400000Y-91109523D01*
X209661904Y-79528571D02*
X209614285Y-79576190D01*
X209519047Y-79623809D01*
X209328571Y-79528571D01*
X209233333Y-79576190D01*
X209185714Y-79623809D01*
X215061904Y-79528571D02*
X215014285Y-79576190D01*
X214919047Y-79623809D01*
X214728571Y-79528571D01*
X214633333Y-79576190D01*
X214585714Y-79623809D01*
%TO.C,C15*%
X98557142Y-68242857D02*
X98604761Y-68290476D01*
X98652380Y-68433333D01*
X98652380Y-68528571D01*
X98604761Y-68671428D01*
X98509523Y-68766666D01*
X98414285Y-68814285D01*
X98223809Y-68861904D01*
X98080952Y-68861904D01*
X97890476Y-68814285D01*
X97795238Y-68766666D01*
X97700000Y-68671428D01*
X97652380Y-68528571D01*
X97652380Y-68433333D01*
X97700000Y-68290476D01*
X97747619Y-68242857D01*
X98652380Y-67290476D02*
X98652380Y-67861904D01*
X98652380Y-67576190D02*
X97652380Y-67576190D01*
X97795238Y-67671428D01*
X97890476Y-67766666D01*
X97938095Y-67861904D01*
X97652380Y-66385714D02*
X97652380Y-66861904D01*
X98128571Y-66909523D01*
X98080952Y-66861904D01*
X98033333Y-66766666D01*
X98033333Y-66528571D01*
X98080952Y-66433333D01*
X98128571Y-66385714D01*
X98223809Y-66338095D01*
X98461904Y-66338095D01*
X98557142Y-66385714D01*
X98604761Y-66433333D01*
X98652380Y-66528571D01*
X98652380Y-66766666D01*
X98604761Y-66861904D01*
X98557142Y-66909523D01*
%TO.C,D8*%
X138952380Y-74738095D02*
X137952380Y-74738095D01*
X137952380Y-74500000D01*
X138000000Y-74357142D01*
X138095238Y-74261904D01*
X138190476Y-74214285D01*
X138380952Y-74166666D01*
X138523809Y-74166666D01*
X138714285Y-74214285D01*
X138809523Y-74261904D01*
X138904761Y-74357142D01*
X138952380Y-74500000D01*
X138952380Y-74738095D01*
X138380952Y-73595238D02*
X138333333Y-73690476D01*
X138285714Y-73738095D01*
X138190476Y-73785714D01*
X138142857Y-73785714D01*
X138047619Y-73738095D01*
X138000000Y-73690476D01*
X137952380Y-73595238D01*
X137952380Y-73404761D01*
X138000000Y-73309523D01*
X138047619Y-73261904D01*
X138142857Y-73214285D01*
X138190476Y-73214285D01*
X138285714Y-73261904D01*
X138333333Y-73309523D01*
X138380952Y-73404761D01*
X138380952Y-73595238D01*
X138428571Y-73690476D01*
X138476190Y-73738095D01*
X138571428Y-73785714D01*
X138761904Y-73785714D01*
X138857142Y-73738095D01*
X138904761Y-73690476D01*
X138952380Y-73595238D01*
X138952380Y-73404761D01*
X138904761Y-73309523D01*
X138857142Y-73261904D01*
X138761904Y-73214285D01*
X138571428Y-73214285D01*
X138476190Y-73261904D01*
X138428571Y-73309523D01*
X138380952Y-73404761D01*
%TO.C,R1*%
X189452380Y-79166666D02*
X188976190Y-79500000D01*
X189452380Y-79738095D02*
X188452380Y-79738095D01*
X188452380Y-79357142D01*
X188500000Y-79261904D01*
X188547619Y-79214285D01*
X188642857Y-79166666D01*
X188785714Y-79166666D01*
X188880952Y-79214285D01*
X188928571Y-79261904D01*
X188976190Y-79357142D01*
X188976190Y-79738095D01*
X189452380Y-78214285D02*
X189452380Y-78785714D01*
X189452380Y-78500000D02*
X188452380Y-78500000D01*
X188595238Y-78595238D01*
X188690476Y-78690476D01*
X188738095Y-78785714D01*
%TO.C,R20*%
X117557142Y-71802380D02*
X117223809Y-71326190D01*
X116985714Y-71802380D02*
X116985714Y-70802380D01*
X117366666Y-70802380D01*
X117461904Y-70850000D01*
X117509523Y-70897619D01*
X117557142Y-70992857D01*
X117557142Y-71135714D01*
X117509523Y-71230952D01*
X117461904Y-71278571D01*
X117366666Y-71326190D01*
X116985714Y-71326190D01*
X117938095Y-70897619D02*
X117985714Y-70850000D01*
X118080952Y-70802380D01*
X118319047Y-70802380D01*
X118414285Y-70850000D01*
X118461904Y-70897619D01*
X118509523Y-70992857D01*
X118509523Y-71088095D01*
X118461904Y-71230952D01*
X117890476Y-71802380D01*
X118509523Y-71802380D01*
X119128571Y-70802380D02*
X119223809Y-70802380D01*
X119319047Y-70850000D01*
X119366666Y-70897619D01*
X119414285Y-70992857D01*
X119461904Y-71183333D01*
X119461904Y-71421428D01*
X119414285Y-71611904D01*
X119366666Y-71707142D01*
X119319047Y-71754761D01*
X119223809Y-71802380D01*
X119128571Y-71802380D01*
X119033333Y-71754761D01*
X118985714Y-71707142D01*
X118938095Y-71611904D01*
X118890476Y-71421428D01*
X118890476Y-71183333D01*
X118938095Y-70992857D01*
X118985714Y-70897619D01*
X119033333Y-70850000D01*
X119128571Y-70802380D01*
%TO.C,D6*%
X152452380Y-79238095D02*
X151452380Y-79238095D01*
X151452380Y-79000000D01*
X151500000Y-78857142D01*
X151595238Y-78761904D01*
X151690476Y-78714285D01*
X151880952Y-78666666D01*
X152023809Y-78666666D01*
X152214285Y-78714285D01*
X152309523Y-78761904D01*
X152404761Y-78857142D01*
X152452380Y-79000000D01*
X152452380Y-79238095D01*
X151452380Y-77809523D02*
X151452380Y-78000000D01*
X151500000Y-78095238D01*
X151547619Y-78142857D01*
X151690476Y-78238095D01*
X151880952Y-78285714D01*
X152261904Y-78285714D01*
X152357142Y-78238095D01*
X152404761Y-78190476D01*
X152452380Y-78095238D01*
X152452380Y-77904761D01*
X152404761Y-77809523D01*
X152357142Y-77761904D01*
X152261904Y-77714285D01*
X152023809Y-77714285D01*
X151928571Y-77761904D01*
X151880952Y-77809523D01*
X151833333Y-77904761D01*
X151833333Y-78095238D01*
X151880952Y-78190476D01*
X151928571Y-78238095D01*
X152023809Y-78285714D01*
%TO.C,Q1*%
X186334761Y-79047619D02*
X186239523Y-79000000D01*
X186144285Y-78904761D01*
X186001428Y-78761904D01*
X185906190Y-78714285D01*
X185810952Y-78714285D01*
X185858571Y-78952380D02*
X185763333Y-78904761D01*
X185668095Y-78809523D01*
X185620476Y-78619047D01*
X185620476Y-78285714D01*
X185668095Y-78095238D01*
X185763333Y-78000000D01*
X185858571Y-77952380D01*
X186049047Y-77952380D01*
X186144285Y-78000000D01*
X186239523Y-78095238D01*
X186287142Y-78285714D01*
X186287142Y-78619047D01*
X186239523Y-78809523D01*
X186144285Y-78904761D01*
X186049047Y-78952380D01*
X185858571Y-78952380D01*
X187239523Y-78952380D02*
X186668095Y-78952380D01*
X186953809Y-78952380D02*
X186953809Y-77952380D01*
X186858571Y-78095238D01*
X186763333Y-78190476D01*
X186668095Y-78238095D01*
%TO.C,D17*%
X104985714Y-81302380D02*
X104985714Y-80302380D01*
X105223809Y-80302380D01*
X105366666Y-80350000D01*
X105461904Y-80445238D01*
X105509523Y-80540476D01*
X105557142Y-80730952D01*
X105557142Y-80873809D01*
X105509523Y-81064285D01*
X105461904Y-81159523D01*
X105366666Y-81254761D01*
X105223809Y-81302380D01*
X104985714Y-81302380D01*
X106509523Y-81302380D02*
X105938095Y-81302380D01*
X106223809Y-81302380D02*
X106223809Y-80302380D01*
X106128571Y-80445238D01*
X106033333Y-80540476D01*
X105938095Y-80588095D01*
X106842857Y-80302380D02*
X107509523Y-80302380D01*
X107080952Y-81302380D01*
%TO.C,SW3*%
X56606666Y-125650761D02*
X56749523Y-125698380D01*
X56987619Y-125698380D01*
X57082857Y-125650761D01*
X57130476Y-125603142D01*
X57178095Y-125507904D01*
X57178095Y-125412666D01*
X57130476Y-125317428D01*
X57082857Y-125269809D01*
X56987619Y-125222190D01*
X56797142Y-125174571D01*
X56701904Y-125126952D01*
X56654285Y-125079333D01*
X56606666Y-124984095D01*
X56606666Y-124888857D01*
X56654285Y-124793619D01*
X56701904Y-124746000D01*
X56797142Y-124698380D01*
X57035238Y-124698380D01*
X57178095Y-124746000D01*
X57511428Y-124698380D02*
X57749523Y-125698380D01*
X57940000Y-124984095D01*
X58130476Y-125698380D01*
X58368571Y-124698380D01*
X58654285Y-124698380D02*
X59273333Y-124698380D01*
X58940000Y-125079333D01*
X59082857Y-125079333D01*
X59178095Y-125126952D01*
X59225714Y-125174571D01*
X59273333Y-125269809D01*
X59273333Y-125507904D01*
X59225714Y-125603142D01*
X59178095Y-125650761D01*
X59082857Y-125698380D01*
X58797142Y-125698380D01*
X58701904Y-125650761D01*
X58654285Y-125603142D01*
%TO.C,J4*%
X168466666Y-31852380D02*
X168466666Y-32566666D01*
X168419047Y-32709523D01*
X168323809Y-32804761D01*
X168180952Y-32852380D01*
X168085714Y-32852380D01*
X169371428Y-32185714D02*
X169371428Y-32852380D01*
X169133333Y-31804761D02*
X168895238Y-32519047D01*
X169514285Y-32519047D01*
%TO.C,C17*%
X145957142Y-90557142D02*
X145909523Y-90604761D01*
X145766666Y-90652380D01*
X145671428Y-90652380D01*
X145528571Y-90604761D01*
X145433333Y-90509523D01*
X145385714Y-90414285D01*
X145338095Y-90223809D01*
X145338095Y-90080952D01*
X145385714Y-89890476D01*
X145433333Y-89795238D01*
X145528571Y-89700000D01*
X145671428Y-89652380D01*
X145766666Y-89652380D01*
X145909523Y-89700000D01*
X145957142Y-89747619D01*
X146909523Y-90652380D02*
X146338095Y-90652380D01*
X146623809Y-90652380D02*
X146623809Y-89652380D01*
X146528571Y-89795238D01*
X146433333Y-89890476D01*
X146338095Y-89938095D01*
X147242857Y-89652380D02*
X147909523Y-89652380D01*
X147480952Y-90652380D01*
D12*
%TO.C,J6*%
X79070000Y-55070000D02*
X81730000Y-55070000D01*
X79070000Y-55070000D02*
X79070000Y-70370000D01*
X79070000Y-52470000D02*
X80400000Y-52470000D01*
X79070000Y-70370000D02*
X81730000Y-70370000D01*
X79070000Y-53800000D02*
X79070000Y-52470000D01*
X81730000Y-55070000D02*
X81730000Y-70370000D01*
%TO.C,U9*%
X118820000Y-122742500D02*
X118820000Y-103502500D01*
X86200000Y-122992500D02*
X88200000Y-122992500D01*
X118820000Y-103502500D02*
X68280000Y-103502500D01*
X68280000Y-122742500D02*
X118820000Y-122742500D01*
X68280000Y-122742500D02*
X68280000Y-103502500D01*
%TO.C,U10*%
X86200000Y-143050000D02*
X88200000Y-143050000D01*
X118820000Y-123560000D02*
X68280000Y-123560000D01*
X68280000Y-142800000D02*
X118820000Y-142800000D01*
X118820000Y-142800000D02*
X118820000Y-123560000D01*
X68280000Y-142800000D02*
X68280000Y-123560000D01*
%TO.C,D7*%
X139765000Y-72985000D02*
X141235000Y-72985000D01*
X139765000Y-70700000D02*
X139765000Y-72985000D01*
X141235000Y-72985000D02*
X141235000Y-70700000D01*
%TO.C,U7*%
X89075000Y-91325000D02*
X94458600Y-91325000D01*
X90745700Y-100275000D02*
X94454300Y-100275000D01*
%TO.C,D18*%
X101900000Y-80085000D02*
X104185000Y-80085000D01*
X104185000Y-80085000D02*
X104185000Y-78615000D01*
X104185000Y-78615000D02*
X101900000Y-78615000D01*
%TO.C,R17*%
X115437258Y-64827500D02*
X114962742Y-64827500D01*
X115437258Y-65872500D02*
X114962742Y-65872500D01*
%TO.C,J3*%
X57600000Y-33900000D02*
X57600000Y-24900000D01*
X67600000Y-29400000D02*
X67600000Y-24900000D01*
X60100000Y-33900000D02*
X57600000Y-33900000D01*
X57600000Y-24900000D02*
X60100000Y-24900000D01*
X60100000Y-24900000D02*
X67600000Y-24900000D01*
X60100000Y-33900000D02*
X67600000Y-33900000D01*
X67600000Y-24900000D02*
X67600000Y-33900000D01*
%TO.C,D15*%
X112400000Y-80085000D02*
X114685000Y-80085000D01*
X114685000Y-78615000D02*
X112400000Y-78615000D01*
X114685000Y-80085000D02*
X114685000Y-78615000D01*
%TO.C,R23*%
X151322500Y-89162742D02*
X151322500Y-89637258D01*
X150277500Y-89162742D02*
X150277500Y-89637258D01*
%TO.C,Q3*%
X148010000Y-75040000D02*
X146600000Y-75040000D01*
X148010000Y-76960000D02*
X148010000Y-76650000D01*
X148010000Y-75040000D02*
X148010000Y-75350000D01*
X148010000Y-76960000D02*
X146850000Y-76960000D01*
%TO.C,R15*%
X220977500Y-140537258D02*
X220977500Y-140062742D01*
X222022500Y-140537258D02*
X222022500Y-140062742D01*
%TO.C,Q6*%
X106710000Y-77810000D02*
X106710000Y-77500000D01*
X106710000Y-75890000D02*
X106710000Y-76200000D01*
X106710000Y-77810000D02*
X105550000Y-77810000D01*
X106710000Y-75890000D02*
X105300000Y-75890000D01*
%TO.C,R9*%
X117437258Y-53327500D02*
X116962742Y-53327500D01*
X117437258Y-54372500D02*
X116962742Y-54372500D01*
%TO.C,R11*%
X117437258Y-55327500D02*
X116962742Y-55327500D01*
X117437258Y-56372500D02*
X116962742Y-56372500D01*
%TO.C,R3*%
X150522500Y-76237258D02*
X150522500Y-75762742D01*
X149477500Y-76237258D02*
X149477500Y-75762742D01*
%TO.C,R2*%
X168477500Y-76737258D02*
X168477500Y-76262742D01*
X169522500Y-76737258D02*
X169522500Y-76262742D01*
%TO.C,U8*%
X141945700Y-100275000D02*
X145654300Y-100275000D01*
X140275000Y-91325000D02*
X145658600Y-91325000D01*
%TO.C,Q2*%
X167160000Y-75540000D02*
X165750000Y-75540000D01*
X167160000Y-77460000D02*
X166000000Y-77460000D01*
X167160000Y-75540000D02*
X167160000Y-75850000D01*
X167160000Y-77460000D02*
X167160000Y-77150000D01*
%TO.C,C14*%
X95890000Y-64459420D02*
X95890000Y-64740580D01*
X96910000Y-64459420D02*
X96910000Y-64740580D01*
%TO.C,D2*%
X173735000Y-77985000D02*
X173735000Y-75700000D01*
X172265000Y-75700000D02*
X172265000Y-77985000D01*
X172265000Y-77985000D02*
X173735000Y-77985000D01*
%TO.C,Q5*%
X113710000Y-77810000D02*
X113710000Y-77500000D01*
X113710000Y-75890000D02*
X112300000Y-75890000D01*
X113710000Y-77810000D02*
X112550000Y-77810000D01*
X113710000Y-75890000D02*
X113710000Y-76200000D01*
%TO.C,D1*%
X193735000Y-77985000D02*
X193735000Y-75700000D01*
X192265000Y-75700000D02*
X192265000Y-77985000D01*
X192265000Y-77985000D02*
X193735000Y-77985000D01*
%TO.C,R21*%
X149522500Y-89162742D02*
X149522500Y-89637258D01*
X148477500Y-89162742D02*
X148477500Y-89637258D01*
%TO.C,U5*%
X219970000Y-131350000D02*
X219970000Y-131620000D01*
X219970000Y-138250000D02*
X219970000Y-137980000D01*
X218470000Y-138250000D02*
X219970000Y-138250000D01*
X219970000Y-137980000D02*
X222800000Y-137980000D01*
X218470000Y-131350000D02*
X219970000Y-131350000D01*
X219970000Y-131620000D02*
X221070000Y-131620000D01*
%TO.C,K2*%
X164000000Y-44500000D02*
X164000000Y-74500000D01*
X175500000Y-74500000D02*
X175500000Y-44500000D01*
X175500000Y-44500000D02*
X164000000Y-44500000D01*
X164000000Y-74500000D02*
X175500000Y-74500000D01*
%TO.C,C7*%
X240249501Y-97005000D02*
X240249501Y-121395000D01*
X235410501Y-93460000D02*
X235410501Y-124940000D01*
X240129501Y-96882000D02*
X240129501Y-121518000D01*
X230490501Y-111440000D02*
X230490501Y-126537000D01*
X232730501Y-92392000D02*
X232730501Y-106960000D01*
X233250501Y-92560000D02*
X233250501Y-106960000D01*
X237209501Y-94490000D02*
X237209501Y-123910000D01*
X229930501Y-91778000D02*
X229930501Y-126622000D01*
X233090501Y-111440000D02*
X233090501Y-125894000D01*
X238009501Y-95045000D02*
X238009501Y-123355000D01*
X240849501Y-97659000D02*
X240849501Y-120741000D01*
X240289501Y-97047000D02*
X240289501Y-121353000D01*
X227809501Y-91621000D02*
X227809501Y-126779000D01*
X241009501Y-97845000D02*
X241009501Y-120555000D01*
X234530501Y-93052000D02*
X234530501Y-106960000D01*
X228970501Y-91675000D02*
X228970501Y-126725000D01*
X243289501Y-101280000D02*
X243289501Y-117120000D01*
X235769501Y-93644000D02*
X235769501Y-124756000D01*
X236849501Y-94261000D02*
X236849501Y-124139000D01*
X229410501Y-91716000D02*
X229410501Y-126684000D01*
X240409501Y-97173000D02*
X240409501Y-121227000D01*
X230650501Y-91891000D02*
X230650501Y-106960000D01*
X231810501Y-111440000D02*
X231810501Y-126263000D01*
X233770501Y-92746000D02*
X233770501Y-106960000D01*
X244369501Y-103927000D02*
X244369501Y-114473000D01*
X241129501Y-97988000D02*
X241129501Y-120412000D01*
X228650501Y-91653000D02*
X228650501Y-126747000D01*
X243889501Y-102597000D02*
X243889501Y-115803000D01*
X236689501Y-94163000D02*
X236689501Y-124237000D01*
X241929501Y-99029000D02*
X241929501Y-119371000D01*
X235250501Y-93381000D02*
X235250501Y-125019000D01*
X231970501Y-92178000D02*
X231970501Y-106960000D01*
X241809501Y-98862000D02*
X241809501Y-119538000D01*
X233050501Y-111440000D02*
X233050501Y-125907000D01*
X243329501Y-101360000D02*
X243329501Y-117040000D01*
X234570501Y-111440000D02*
X234570501Y-125330000D01*
X231210501Y-92000000D02*
X231210501Y-106960000D01*
X244409501Y-104055000D02*
X244409501Y-114345000D01*
X243849501Y-102500000D02*
X243849501Y-115900000D01*
X235010501Y-93267000D02*
X235010501Y-125133000D01*
X227849501Y-91622000D02*
X227849501Y-126778000D01*
X237449501Y-94650000D02*
X237449501Y-123750000D01*
X234490501Y-93035000D02*
X234490501Y-106960000D01*
X241769501Y-98808000D02*
X241769501Y-119592000D01*
X238089501Y-95105000D02*
X238089501Y-123295000D01*
X234250501Y-111440000D02*
X234250501Y-125465000D01*
X236609501Y-94115000D02*
X236609501Y-124285000D01*
X233330501Y-92588000D02*
X233330501Y-106960000D01*
X232210501Y-92241000D02*
X232210501Y-106960000D01*
X241449501Y-98385000D02*
X241449501Y-120015000D01*
X237769501Y-94872000D02*
X237769501Y-123528000D01*
X240569501Y-97346000D02*
X240569501Y-121054000D01*
X240689501Y-97478000D02*
X240689501Y-120922000D01*
X228129501Y-91628000D02*
X228129501Y-126772000D01*
X233370501Y-111440000D02*
X233370501Y-125799000D01*
X232410501Y-92297000D02*
X232410501Y-106960000D01*
X229010501Y-91678000D02*
X229010501Y-126722000D01*
X229810501Y-91762000D02*
X229810501Y-126638000D01*
X242129501Y-99316000D02*
X242129501Y-119084000D01*
X231170501Y-111440000D02*
X231170501Y-126409000D01*
X231850501Y-92147000D02*
X231850501Y-106960000D01*
X238209501Y-95195000D02*
X238209501Y-123205000D01*
X236209501Y-93883000D02*
X236209501Y-124517000D01*
X229650501Y-91743000D02*
X229650501Y-126657000D01*
X242609501Y-100060000D02*
X242609501Y-118340000D01*
X232250501Y-92252000D02*
X232250501Y-106960000D01*
X245049501Y-107023000D02*
X245049501Y-111377000D01*
X237169501Y-94464000D02*
X237169501Y-123936000D01*
X233930501Y-92807000D02*
X233930501Y-106960000D01*
X233890501Y-92792000D02*
X233890501Y-106960000D01*
X233370501Y-92601000D02*
X233370501Y-106960000D01*
X231930501Y-92167000D02*
X231930501Y-106960000D01*
X236649501Y-94139000D02*
X236649501Y-124261000D01*
X229250501Y-91700000D02*
X229250501Y-126700000D01*
X244769501Y-105415000D02*
X244769501Y-112985000D01*
X228049501Y-91626000D02*
X228049501Y-126774000D01*
X237409501Y-94623000D02*
X237409501Y-123777000D01*
X231530501Y-111440000D02*
X231530501Y-126330000D01*
X234330501Y-111440000D02*
X234330501Y-125432000D01*
X232410501Y-111440000D02*
X232410501Y-126103000D01*
X243049501Y-100823000D02*
X243049501Y-117577000D01*
X244569501Y-104607000D02*
X244569501Y-113793000D01*
X234050501Y-111440000D02*
X234050501Y-125546000D01*
X242209501Y-99435000D02*
X242209501Y-118965000D01*
X244009501Y-102900000D02*
X244009501Y-115500000D01*
X242249501Y-99495000D02*
X242249501Y-118905000D01*
X231130501Y-91983000D02*
X231130501Y-106960000D01*
X244609501Y-104756000D02*
X244609501Y-113644000D01*
X239569501Y-96337000D02*
X239569501Y-122063000D01*
X233450501Y-111440000D02*
X233450501Y-125770000D01*
X230370501Y-91843000D02*
X230370501Y-106960000D01*
X231570501Y-92080000D02*
X231570501Y-106960000D01*
X237049501Y-94387000D02*
X237049501Y-124013000D01*
X241409501Y-98335000D02*
X241409501Y-120065000D01*
X231010501Y-111440000D02*
X231010501Y-126441000D01*
X234650501Y-111440000D02*
X234650501Y-125295000D01*
X237089501Y-94413000D02*
X237089501Y-123987000D01*
X238889501Y-95737000D02*
X238889501Y-122663000D01*
X240369501Y-97131000D02*
X240369501Y-121269000D01*
X232290501Y-92263000D02*
X232290501Y-106960000D01*
X242289501Y-99555000D02*
X242289501Y-118845000D01*
X242849501Y-100465000D02*
X242849501Y-117935000D01*
X238729501Y-95604000D02*
X238729501Y-122796000D01*
X229690501Y-91748000D02*
X229690501Y-126652000D01*
X242449501Y-99803000D02*
X242449501Y-118597000D01*
X234090501Y-111440000D02*
X234090501Y-125530000D01*
X239049501Y-95873000D02*
X239049501Y-122527000D01*
X233570501Y-111440000D02*
X233570501Y-125727000D01*
X240049501Y-96801000D02*
X240049501Y-121599000D01*
X231890501Y-92157000D02*
X231890501Y-106960000D01*
X236449501Y-94021000D02*
X236449501Y-124379000D01*
X237129501Y-94438000D02*
X237129501Y-123962000D01*
X241969501Y-99085000D02*
X241969501Y-119315000D01*
X234650501Y-93105000D02*
X234650501Y-106960000D01*
X233970501Y-111440000D02*
X233970501Y-125577000D01*
X240889501Y-97705000D02*
X240889501Y-120695000D01*
X237569501Y-94732000D02*
X237569501Y-123668000D01*
X239769501Y-96526000D02*
X239769501Y-121874000D01*
X232130501Y-92220000D02*
X232130501Y-106960000D01*
X235370501Y-93440000D02*
X235370501Y-124960000D01*
X231890501Y-111440000D02*
X231890501Y-126243000D01*
X244969501Y-106464000D02*
X244969501Y-111936000D01*
X241089501Y-97940000D02*
X241089501Y-120460000D01*
X235090501Y-93305000D02*
X235090501Y-125095000D01*
X229570501Y-91733000D02*
X229570501Y-126667000D01*
X239289501Y-96083000D02*
X239289501Y-122317000D01*
X228770501Y-91660000D02*
X228770501Y-126740000D01*
X238369501Y-95317000D02*
X238369501Y-123083000D01*
X233050501Y-92493000D02*
X233050501Y-106960000D01*
X232010501Y-111440000D02*
X232010501Y-126212000D01*
X235290501Y-93401000D02*
X235290501Y-124999000D01*
X234530501Y-111440000D02*
X234530501Y-125348000D01*
X228850501Y-91666000D02*
X228850501Y-126734000D01*
X232930501Y-92455000D02*
X232930501Y-106960000D01*
X230530501Y-91870000D02*
X230530501Y-106960000D01*
X237969501Y-95016000D02*
X237969501Y-123384000D01*
X233450501Y-92630000D02*
X233450501Y-106960000D01*
X240609501Y-97389000D02*
X240609501Y-121011000D01*
X241529501Y-98489000D02*
X241529501Y-119911000D01*
X234810501Y-93176000D02*
X234810501Y-125224000D01*
X237609501Y-94760000D02*
X237609501Y-123640000D01*
X230570501Y-111440000D02*
X230570501Y-126523000D01*
X229370501Y-91712000D02*
X229370501Y-126688000D01*
X244089501Y-103111000D02*
X244089501Y-115289000D01*
X234730501Y-93140000D02*
X234730501Y-106960000D01*
X230050501Y-91795000D02*
X230050501Y-126605000D01*
X237809501Y-94901000D02*
X237809501Y-123499000D01*
X231250501Y-111440000D02*
X231250501Y-126392000D01*
X232250501Y-111440000D02*
X232250501Y-126148000D01*
X232490501Y-92320000D02*
X232490501Y-106960000D01*
X239809501Y-96565000D02*
X239809501Y-121835000D01*
X232850501Y-111440000D02*
X232850501Y-125971000D01*
X237529501Y-94705000D02*
X237529501Y-123695000D01*
X238649501Y-95539000D02*
X238649501Y-122861000D01*
X230330501Y-91837000D02*
X230330501Y-106960000D01*
X233290501Y-92574000D02*
X233290501Y-106960000D01*
X232490501Y-111440000D02*
X232490501Y-126080000D01*
X236729501Y-94188000D02*
X236729501Y-124212000D01*
X238129501Y-95135000D02*
X238129501Y-123265000D01*
X243689501Y-102125000D02*
X243689501Y-116275000D01*
X242089501Y-99258000D02*
X242089501Y-119142000D01*
X233570501Y-92673000D02*
X233570501Y-106960000D01*
X244249501Y-103561000D02*
X244249501Y-114839000D01*
X234010501Y-92839000D02*
X234010501Y-106960000D01*
X235809501Y-93665000D02*
X235809501Y-124735000D01*
X230850501Y-111440000D02*
X230850501Y-126473000D01*
X232090501Y-92209000D02*
X232090501Y-106960000D01*
X227649501Y-91620000D02*
X227649501Y-126780000D01*
X243129501Y-100972000D02*
X243129501Y-117428000D01*
X233170501Y-111440000D02*
X233170501Y-125867000D01*
X232170501Y-92231000D02*
X232170501Y-106960000D01*
X230770501Y-111440000D02*
X230770501Y-126487000D01*
X233010501Y-92480000D02*
X233010501Y-106960000D01*
X232770501Y-92404000D02*
X232770501Y-106960000D01*
X236889501Y-94286000D02*
X236889501Y-124114000D01*
X231730501Y-111440000D02*
X231730501Y-126282000D01*
X239089501Y-95907000D02*
X239089501Y-122493000D01*
X244889501Y-106002000D02*
X244889501Y-112398000D01*
X232610501Y-92356000D02*
X232610501Y-106960000D01*
X231210501Y-111440000D02*
X231210501Y-126400000D01*
X241729501Y-98753000D02*
X241729501Y-119647000D01*
X239489501Y-96263000D02*
X239489501Y-122137000D01*
X244449501Y-104187000D02*
X244449501Y-114213000D01*
X235170501Y-93343000D02*
X235170501Y-125057000D01*
X232850501Y-92429000D02*
X232850501Y-106960000D01*
X230210501Y-91818000D02*
X230210501Y-126582000D01*
X232450501Y-111440000D02*
X232450501Y-126091000D01*
X239889501Y-96643000D02*
X239889501Y-121757000D01*
X232650501Y-111440000D02*
X232650501Y-126032000D01*
X233690501Y-111440000D02*
X233690501Y-125684000D01*
X243969501Y-102797000D02*
X243969501Y-115603000D01*
X243209501Y-101124000D02*
X243209501Y-117276000D01*
X231170501Y-91991000D02*
X231170501Y-106960000D01*
X234610501Y-111440000D02*
X234610501Y-125313000D01*
X208715499Y-99325000D02*
X212215499Y-99325000D01*
X230130501Y-91806000D02*
X230130501Y-126594000D01*
X236409501Y-93997000D02*
X236409501Y-124403000D01*
X241049501Y-97893000D02*
X241049501Y-120507000D01*
X229970501Y-91784000D02*
X229970501Y-126616000D01*
X234170501Y-92902000D02*
X234170501Y-106960000D01*
X231090501Y-111440000D02*
X231090501Y-126425000D01*
X234730501Y-111440000D02*
X234730501Y-125260000D01*
X228009501Y-91625000D02*
X228009501Y-126775000D01*
X238569501Y-95475000D02*
X238569501Y-122925000D01*
X234490501Y-111440000D02*
X234490501Y-125365000D01*
X235929501Y-93729000D02*
X235929501Y-124671000D01*
X229290501Y-91704000D02*
X229290501Y-126696000D01*
X230690501Y-91898000D02*
X230690501Y-106960000D01*
X234410501Y-93001000D02*
X234410501Y-106960000D01*
X228570501Y-91648000D02*
X228570501Y-126752000D01*
X242409501Y-99740000D02*
X242409501Y-118660000D01*
X232930501Y-111440000D02*
X232930501Y-125945000D01*
X234010501Y-111440000D02*
X234010501Y-125561000D01*
X239649501Y-96412000D02*
X239649501Y-121988000D01*
X232730501Y-111440000D02*
X232730501Y-126008000D01*
X230410501Y-111440000D02*
X230410501Y-126550000D01*
X244809501Y-105600000D02*
X244809501Y-112800000D01*
X244169501Y-103332000D02*
X244169501Y-115068000D01*
X243409501Y-101522000D02*
X243409501Y-116878000D01*
X244929501Y-106224000D02*
X244929501Y-112176000D01*
X240729501Y-97523000D02*
X240729501Y-120877000D01*
X228410501Y-91640000D02*
X228410501Y-126760000D01*
X236569501Y-94091000D02*
X236569501Y-124309000D01*
X242529501Y-99930000D02*
X242529501Y-118470000D01*
X240329501Y-97089000D02*
X240329501Y-121311000D01*
X236169501Y-93861000D02*
X236169501Y-124539000D01*
X238529501Y-95443000D02*
X238529501Y-122957000D01*
X240489501Y-97259000D02*
X240489501Y-121141000D01*
X232690501Y-111440000D02*
X232690501Y-126020000D01*
X241849501Y-98917000D02*
X241849501Y-119483000D01*
X232050501Y-92199000D02*
X232050501Y-106960000D01*
X231250501Y-92008000D02*
X231250501Y-106960000D01*
X240649501Y-97434000D02*
X240649501Y-120966000D01*
X239369501Y-96154000D02*
X239369501Y-122246000D01*
X231370501Y-92034000D02*
X231370501Y-106960000D01*
X232010501Y-92188000D02*
X232010501Y-106960000D01*
X232530501Y-92332000D02*
X232530501Y-106960000D01*
X232890501Y-111440000D02*
X232890501Y-125958000D01*
X240449501Y-97216000D02*
X240449501Y-121184000D01*
X242689501Y-100192000D02*
X242689501Y-118208000D01*
X233930501Y-111440000D02*
X233930501Y-125593000D01*
X240009501Y-96761000D02*
X240009501Y-121639000D01*
X228730501Y-91658000D02*
X228730501Y-126742000D01*
X233490501Y-92644000D02*
X233490501Y-106960000D01*
X238809501Y-95670000D02*
X238809501Y-122730000D01*
X233810501Y-111440000D02*
X233810501Y-125639000D01*
X236049501Y-93794000D02*
X236049501Y-124606000D01*
X241329501Y-98234000D02*
X241329501Y-120166000D01*
X230170501Y-91812000D02*
X230170501Y-126588000D01*
X230930501Y-111440000D02*
X230930501Y-126457000D01*
X231370501Y-111440000D02*
X231370501Y-126366000D01*
X231490501Y-92061000D02*
X231490501Y-106960000D01*
X234450501Y-111440000D02*
X234450501Y-125382000D01*
X233130501Y-111440000D02*
X233130501Y-125880000D01*
X234290501Y-92951000D02*
X234290501Y-106960000D01*
X228370501Y-91638000D02*
X228370501Y-126762000D01*
X229450501Y-91720000D02*
X229450501Y-126680000D01*
X231970501Y-111440000D02*
X231970501Y-126222000D01*
X242489501Y-99866000D02*
X242489501Y-118534000D01*
X230650501Y-111440000D02*
X230650501Y-126509000D01*
X231530501Y-92070000D02*
X231530501Y-106960000D01*
X239169501Y-95977000D02*
X239169501Y-122423000D01*
X231690501Y-92108000D02*
X231690501Y-106960000D01*
X229330501Y-91708000D02*
X229330501Y-126692000D01*
X229730501Y-91752000D02*
X229730501Y-126648000D01*
X242729501Y-100260000D02*
X242729501Y-118140000D01*
X231770501Y-92127000D02*
X231770501Y-106960000D01*
X234570501Y-93070000D02*
X234570501Y-106960000D01*
X235050501Y-93286000D02*
X235050501Y-125114000D01*
X232370501Y-111440000D02*
X232370501Y-126114000D01*
X231410501Y-92043000D02*
X231410501Y-106960000D01*
X235490501Y-93500000D02*
X235490501Y-124900000D01*
X236009501Y-93772000D02*
X236009501Y-124628000D01*
X234690501Y-111440000D02*
X234690501Y-125278000D01*
X236369501Y-93974000D02*
X236369501Y-124426000D01*
X228169501Y-91630000D02*
X228169501Y-126770000D01*
X230410501Y-91850000D02*
X230410501Y-106960000D01*
X233010501Y-111440000D02*
X233010501Y-125920000D01*
X235690501Y-93602000D02*
X235690501Y-124798000D01*
X239249501Y-96047000D02*
X239249501Y-122353000D01*
X231450501Y-92052000D02*
X231450501Y-106960000D01*
X228249501Y-91633000D02*
X228249501Y-126767000D01*
X236929501Y-94311000D02*
X236929501Y-124089000D01*
X238449501Y-95380000D02*
X238449501Y-123020000D01*
X243249501Y-101202000D02*
X243249501Y-117198000D01*
X230610501Y-111440000D02*
X230610501Y-126516000D01*
X233090501Y-92506000D02*
X233090501Y-106960000D01*
X243569501Y-101859000D02*
X243569501Y-116541000D01*
X233490501Y-111440000D02*
X233490501Y-125756000D01*
X234610501Y-93087000D02*
X234610501Y-106960000D01*
X239329501Y-96118000D02*
X239329501Y-122282000D01*
X238609501Y-95507000D02*
X238609501Y-122893000D01*
X232090501Y-111440000D02*
X232090501Y-126191000D01*
X231050501Y-91967000D02*
X231050501Y-106960000D01*
X233850501Y-111440000D02*
X233850501Y-125623000D01*
X232370501Y-92286000D02*
X232370501Y-106960000D01*
X233970501Y-92823000D02*
X233970501Y-106960000D01*
X235730501Y-93623000D02*
X235730501Y-124777000D01*
X243529501Y-101773000D02*
X243529501Y-116627000D01*
X243009501Y-100750000D02*
X243009501Y-117650000D01*
X232530501Y-111440000D02*
X232530501Y-126068000D01*
X235889501Y-93708000D02*
X235889501Y-124692000D01*
X238409501Y-95349000D02*
X238409501Y-123051000D01*
X242889501Y-100535000D02*
X242889501Y-117865000D01*
X231730501Y-92118000D02*
X231730501Y-106960000D01*
X230890501Y-91935000D02*
X230890501Y-106960000D01*
X244849501Y-105795000D02*
X244849501Y-112605000D01*
X230290501Y-91831000D02*
X230290501Y-126569000D01*
X228810501Y-91663000D02*
X228810501Y-126737000D01*
X230530501Y-111440000D02*
X230530501Y-126530000D01*
X230970501Y-91951000D02*
X230970501Y-106960000D01*
X236289501Y-93929000D02*
X236289501Y-124471000D01*
X234450501Y-93018000D02*
X234450501Y-106960000D01*
X237489501Y-94677000D02*
X237489501Y-123723000D01*
X239409501Y-96190000D02*
X239409501Y-122210000D01*
X241489501Y-98437000D02*
X241489501Y-119963000D01*
X234690501Y-93122000D02*
X234690501Y-106960000D01*
X230570501Y-91877000D02*
X230570501Y-106960000D01*
X233210501Y-111440000D02*
X233210501Y-125853000D01*
X231330501Y-111440000D02*
X231330501Y-126375000D01*
X238249501Y-95225000D02*
X238249501Y-123175000D01*
X233810501Y-92761000D02*
X233810501Y-106960000D01*
X234770501Y-111440000D02*
X234770501Y-125242000D01*
X235610501Y-93561000D02*
X235610501Y-124839000D01*
X229530501Y-91729000D02*
X229530501Y-126671000D01*
X233530501Y-92658000D02*
X233530501Y-106960000D01*
X229890501Y-91773000D02*
X229890501Y-126627000D01*
X231290501Y-92017000D02*
X231290501Y-106960000D01*
X241169501Y-98037000D02*
X241169501Y-120363000D01*
X240169501Y-96923000D02*
X240169501Y-121477000D01*
X231050501Y-111440000D02*
X231050501Y-126433000D01*
X230330501Y-111440000D02*
X230330501Y-126563000D01*
X239689501Y-96450000D02*
X239689501Y-121950000D01*
X227689501Y-91620000D02*
X227689501Y-126780000D01*
X233610501Y-111440000D02*
X233610501Y-125713000D01*
X229850501Y-91768000D02*
X229850501Y-126632000D01*
X231290501Y-111440000D02*
X231290501Y-126383000D01*
X231810501Y-92137000D02*
X231810501Y-106960000D01*
X242569501Y-99995000D02*
X242569501Y-118405000D01*
X243809501Y-102404000D02*
X243809501Y-115996000D01*
X230730501Y-111440000D02*
X230730501Y-126495000D01*
X233770501Y-111440000D02*
X233770501Y-125654000D01*
X233610501Y-92687000D02*
X233610501Y-106960000D01*
X232610501Y-111440000D02*
X232610501Y-126044000D01*
X232210501Y-111440000D02*
X232210501Y-126159000D01*
X244049501Y-103005000D02*
X244049501Y-115395000D01*
X228610501Y-91650000D02*
X228610501Y-126750000D01*
X240809501Y-97613000D02*
X240809501Y-120787000D01*
X236489501Y-94044000D02*
X236489501Y-124356000D01*
X244489501Y-104322000D02*
X244489501Y-114078000D01*
X241889501Y-98973000D02*
X241889501Y-119427000D01*
X232970501Y-92467000D02*
X232970501Y-106960000D01*
X229090501Y-91685000D02*
X229090501Y-126715000D01*
X237329501Y-94570000D02*
X237329501Y-123830000D01*
X210465499Y-97575000D02*
X210465499Y-101075000D01*
X231930501Y-111440000D02*
X231930501Y-126233000D01*
X230930501Y-91943000D02*
X230930501Y-106960000D01*
X237369501Y-94596000D02*
X237369501Y-123804000D01*
X239729501Y-96488000D02*
X239729501Y-121912000D01*
X234090501Y-92870000D02*
X234090501Y-106960000D01*
X229130501Y-91689000D02*
X229130501Y-126711000D01*
X228209501Y-91631000D02*
X228209501Y-126769000D01*
X227889501Y-91622000D02*
X227889501Y-126778000D01*
X242929501Y-100606000D02*
X242929501Y-117794000D01*
X243089501Y-100897000D02*
X243089501Y-117503000D01*
X230730501Y-91905000D02*
X230730501Y-106960000D01*
X232330501Y-111440000D02*
X232330501Y-126125000D01*
X237889501Y-94958000D02*
X237889501Y-123442000D01*
X237009501Y-94362000D02*
X237009501Y-124038000D01*
X227609501Y-91620000D02*
X227609501Y-126780000D01*
X232890501Y-92442000D02*
X232890501Y-106960000D01*
X235570501Y-93540000D02*
X235570501Y-124860000D01*
X241689501Y-98700000D02*
X241689501Y-119700000D01*
X243169501Y-101048000D02*
X243169501Y-117352000D01*
X229610501Y-91738000D02*
X229610501Y-126662000D01*
X229210501Y-91696000D02*
X229210501Y-126704000D01*
X241369501Y-98284000D02*
X241369501Y-120116000D01*
X233290501Y-111440000D02*
X233290501Y-125826000D01*
X233730501Y-92731000D02*
X233730501Y-106960000D01*
X243649501Y-102035000D02*
X243649501Y-116365000D01*
X230690501Y-111440000D02*
X230690501Y-126502000D01*
X228890501Y-91669000D02*
X228890501Y-126731000D01*
X239009501Y-95838000D02*
X239009501Y-122562000D01*
X241209501Y-98085000D02*
X241209501Y-120315000D01*
X233410501Y-92615000D02*
X233410501Y-106960000D01*
X232570501Y-92344000D02*
X232570501Y-106960000D01*
X245009501Y-106727000D02*
X245009501Y-111673000D01*
X235130501Y-93324000D02*
X235130501Y-125076000D01*
X244329501Y-103802000D02*
X244329501Y-114598000D01*
X229050501Y-91682000D02*
X229050501Y-126718000D01*
X235330501Y-93420000D02*
X235330501Y-124980000D01*
X239609501Y-96375000D02*
X239609501Y-122025000D01*
X240969501Y-97798000D02*
X240969501Y-120602000D01*
X244729501Y-105240000D02*
X244729501Y-113160000D01*
X234410501Y-111440000D02*
X234410501Y-125399000D01*
X234850501Y-93194000D02*
X234850501Y-125206000D01*
X228530501Y-91646000D02*
X228530501Y-126754000D01*
X236809501Y-94237000D02*
X236809501Y-124163000D01*
X238169501Y-95165000D02*
X238169501Y-123235000D01*
X231690501Y-111440000D02*
X231690501Y-126292000D01*
X230610501Y-91884000D02*
X230610501Y-106960000D01*
X239129501Y-95942000D02*
X239129501Y-122458000D01*
X241289501Y-98184000D02*
X241289501Y-120216000D01*
X231650501Y-92098000D02*
X231650501Y-106960000D01*
X227969501Y-91624000D02*
X227969501Y-126776000D01*
X236769501Y-94212000D02*
X236769501Y-124188000D01*
X232050501Y-111440000D02*
X232050501Y-126201000D01*
X242769501Y-100327000D02*
X242769501Y-118073000D01*
X234210501Y-92919000D02*
X234210501Y-106960000D01*
X229170501Y-91692000D02*
X229170501Y-126708000D01*
X230490501Y-91863000D02*
X230490501Y-106960000D01*
X233170501Y-92533000D02*
X233170501Y-106960000D01*
X238329501Y-95286000D02*
X238329501Y-123114000D01*
X238049501Y-95075000D02*
X238049501Y-123325000D01*
X239449501Y-96227000D02*
X239449501Y-122173000D01*
X243729501Y-102217000D02*
X243729501Y-116183000D01*
X245089501Y-107365000D02*
X245089501Y-111035000D01*
X243369501Y-101441000D02*
X243369501Y-116959000D01*
X228089501Y-91627000D02*
X228089501Y-126773000D01*
X243929501Y-102696000D02*
X243929501Y-115704000D01*
X243449501Y-101605000D02*
X243449501Y-116795000D01*
X231610501Y-111440000D02*
X231610501Y-126311000D01*
X229770501Y-91757000D02*
X229770501Y-126643000D01*
X244209501Y-103445000D02*
X244209501Y-114955000D01*
X230090501Y-91801000D02*
X230090501Y-126599000D01*
X234370501Y-111440000D02*
X234370501Y-125415000D01*
X242169501Y-99375000D02*
X242169501Y-119025000D01*
X242369501Y-99678000D02*
X242369501Y-118722000D01*
X240929501Y-97751000D02*
X240929501Y-120649000D01*
X228490501Y-91644000D02*
X228490501Y-126756000D01*
X238929501Y-95770000D02*
X238929501Y-122630000D01*
X231770501Y-111440000D02*
X231770501Y-126273000D01*
X237929501Y-94987000D02*
X237929501Y-123413000D01*
X236249501Y-93906000D02*
X236249501Y-124494000D01*
X244649501Y-104911000D02*
X244649501Y-113489000D01*
X233130501Y-92520000D02*
X233130501Y-106960000D01*
X236129501Y-93839000D02*
X236129501Y-124561000D01*
X228450501Y-91641000D02*
X228450501Y-126759000D01*
X235530501Y-93520000D02*
X235530501Y-124880000D01*
X235969501Y-93751000D02*
X235969501Y-124649000D01*
X235849501Y-93686000D02*
X235849501Y-124714000D01*
X233730501Y-111440000D02*
X233730501Y-125669000D01*
X238969501Y-95804000D02*
X238969501Y-122596000D01*
X245129501Y-107787000D02*
X245129501Y-110613000D01*
X231090501Y-91975000D02*
X231090501Y-106960000D01*
X228330501Y-91636000D02*
X228330501Y-126764000D01*
X230970501Y-111440000D02*
X230970501Y-126449000D01*
X232330501Y-92275000D02*
X232330501Y-106960000D01*
X233650501Y-92702000D02*
X233650501Y-106960000D01*
X227569501Y-91620000D02*
X227569501Y-126780000D01*
X233250501Y-111440000D02*
X233250501Y-125840000D01*
X234210501Y-111440000D02*
X234210501Y-125481000D01*
X232970501Y-111440000D02*
X232970501Y-125933000D01*
X233650501Y-111440000D02*
X233650501Y-125698000D01*
X233690501Y-92716000D02*
X233690501Y-106960000D01*
X243609501Y-101947000D02*
X243609501Y-116453000D01*
X236329501Y-93951000D02*
X236329501Y-124449000D01*
X231450501Y-111440000D02*
X231450501Y-126348000D01*
X239969501Y-96721000D02*
X239969501Y-121679000D01*
X230890501Y-111440000D02*
X230890501Y-126465000D01*
X241249501Y-98134000D02*
X241249501Y-120266000D01*
X237849501Y-94929000D02*
X237849501Y-123471000D01*
X233410501Y-111440000D02*
X233410501Y-125785000D01*
X231410501Y-111440000D02*
X231410501Y-126357000D01*
X242049501Y-99200000D02*
X242049501Y-119200000D01*
X233210501Y-92547000D02*
X233210501Y-106960000D01*
X232810501Y-92417000D02*
X232810501Y-106960000D01*
X231570501Y-111440000D02*
X231570501Y-126320000D01*
X237649501Y-94788000D02*
X237649501Y-123612000D01*
X238289501Y-95256000D02*
X238289501Y-123144000D01*
X228930501Y-91672000D02*
X228930501Y-126728000D01*
X242009501Y-99142000D02*
X242009501Y-119258000D01*
X240769501Y-97568000D02*
X240769501Y-120832000D01*
X234970501Y-93249000D02*
X234970501Y-125151000D01*
X241649501Y-98646000D02*
X241649501Y-119754000D01*
X239209501Y-96012000D02*
X239209501Y-122388000D01*
X240209501Y-96964000D02*
X240209501Y-121436000D01*
X230450501Y-111440000D02*
X230450501Y-126544000D01*
X241569501Y-98541000D02*
X241569501Y-119859000D01*
X232690501Y-92380000D02*
X232690501Y-106960000D01*
X238489501Y-95411000D02*
X238489501Y-122989000D01*
X242969501Y-100678000D02*
X242969501Y-117722000D01*
X230770501Y-91913000D02*
X230770501Y-106960000D01*
X231330501Y-92025000D02*
X231330501Y-106960000D01*
X230810501Y-111440000D02*
X230810501Y-126480000D01*
X234170501Y-111440000D02*
X234170501Y-125498000D01*
X230010501Y-91789000D02*
X230010501Y-126611000D01*
X230450501Y-91856000D02*
X230450501Y-106960000D01*
X233330501Y-111440000D02*
X233330501Y-125812000D01*
X238769501Y-95637000D02*
X238769501Y-122763000D01*
X236089501Y-93816000D02*
X236089501Y-124584000D01*
X242809501Y-100396000D02*
X242809501Y-118004000D01*
X234890501Y-93212000D02*
X234890501Y-125188000D01*
X234290501Y-111440000D02*
X234290501Y-125449000D01*
X240529501Y-97302000D02*
X240529501Y-121098000D01*
X230370501Y-111440000D02*
X230370501Y-126557000D01*
X231490501Y-111440000D02*
X231490501Y-126339000D01*
X237729501Y-94844000D02*
X237729501Y-123556000D01*
X239529501Y-96300000D02*
X239529501Y-122100000D01*
X235650501Y-93581000D02*
X235650501Y-124819000D01*
X233890501Y-111440000D02*
X233890501Y-125608000D01*
X239929501Y-96682000D02*
X239929501Y-121718000D01*
X234770501Y-93158000D02*
X234770501Y-106960000D01*
X245169501Y-108400000D02*
X245169501Y-110000000D01*
X238849501Y-95703000D02*
X238849501Y-122697000D01*
X236969501Y-94336000D02*
X236969501Y-124064000D01*
X237289501Y-94543000D02*
X237289501Y-123857000D01*
X242329501Y-99616000D02*
X242329501Y-118784000D01*
X238689501Y-95572000D02*
X238689501Y-122828000D01*
X234250501Y-92935000D02*
X234250501Y-106960000D01*
X231130501Y-111440000D02*
X231130501Y-126417000D01*
X244129501Y-103220000D02*
X244129501Y-115180000D01*
X230250501Y-91825000D02*
X230250501Y-126575000D01*
X243489501Y-101688000D02*
X243489501Y-116712000D01*
X232450501Y-92309000D02*
X232450501Y-106960000D01*
X231610501Y-92089000D02*
X231610501Y-106960000D01*
X227929501Y-91623000D02*
X227929501Y-126777000D01*
X237249501Y-94517000D02*
X237249501Y-123883000D01*
X236529501Y-94068000D02*
X236529501Y-124332000D01*
X231650501Y-111440000D02*
X231650501Y-126302000D01*
X233850501Y-92777000D02*
X233850501Y-106960000D01*
X233530501Y-111440000D02*
X233530501Y-125742000D01*
X234130501Y-92886000D02*
X234130501Y-106960000D01*
X230850501Y-91927000D02*
X230850501Y-106960000D01*
X228290501Y-91634000D02*
X228290501Y-126766000D01*
X244689501Y-105072000D02*
X244689501Y-113328000D01*
X241609501Y-98593000D02*
X241609501Y-119807000D01*
X244289501Y-103680000D02*
X244289501Y-114720000D01*
X231850501Y-111440000D02*
X231850501Y-126253000D01*
X234130501Y-111440000D02*
X234130501Y-125514000D01*
X232770501Y-111440000D02*
X232770501Y-125996000D01*
X232170501Y-111440000D02*
X232170501Y-126169000D01*
X228690501Y-91655000D02*
X228690501Y-126745000D01*
X234930501Y-93230000D02*
X234930501Y-125170000D01*
X234330501Y-92968000D02*
X234330501Y-106960000D01*
X231010501Y-91959000D02*
X231010501Y-106960000D01*
X242649501Y-100126000D02*
X242649501Y-118274000D01*
X240089501Y-96841000D02*
X240089501Y-121559000D01*
X230810501Y-91920000D02*
X230810501Y-106960000D01*
X232650501Y-92368000D02*
X232650501Y-106960000D01*
X239849501Y-96604000D02*
X239849501Y-121796000D01*
X232130501Y-111440000D02*
X232130501Y-126180000D01*
X234050501Y-92854000D02*
X234050501Y-106960000D01*
X232810501Y-111440000D02*
X232810501Y-125983000D01*
X243769501Y-102310000D02*
X243769501Y-116090000D01*
X237689501Y-94816000D02*
X237689501Y-123584000D01*
X235210501Y-93362000D02*
X235210501Y-125038000D01*
X244529501Y-104462000D02*
X244529501Y-113938000D01*
X227769501Y-91621000D02*
X227769501Y-126779000D01*
X232290501Y-111440000D02*
X232290501Y-126137000D01*
X232570501Y-111440000D02*
X232570501Y-126056000D01*
X227729501Y-91620000D02*
X227729501Y-126780000D01*
X229490501Y-91724000D02*
X229490501Y-126676000D01*
X235450501Y-93480000D02*
X235450501Y-124920000D01*
X234370501Y-92985000D02*
X234370501Y-106960000D01*
X245189501Y-109200000D02*
G75*
G03*
X245189501Y-109200000I-17620000J0D01*
G01*
%TO.C,C8*%
X190459420Y-130810000D02*
X190740580Y-130810000D01*
X190459420Y-129790000D02*
X190740580Y-129790000D01*
%TO.C,D5*%
X170265000Y-75700000D02*
X170265000Y-77985000D01*
X171735000Y-77985000D02*
X171735000Y-75700000D01*
X170265000Y-77985000D02*
X171735000Y-77985000D01*
%TO.C,R16*%
X100937258Y-64372500D02*
X100462742Y-64372500D01*
X100937258Y-63327500D02*
X100462742Y-63327500D01*
%TO.C,C1*%
X94559420Y-60360000D02*
X94840580Y-60360000D01*
X94559420Y-59340000D02*
X94840580Y-59340000D01*
%TO.C,D12*%
X235985000Y-140565000D02*
X233700000Y-140565000D01*
X235985000Y-142035000D02*
X235985000Y-140565000D01*
X233700000Y-142035000D02*
X235985000Y-142035000D01*
%TO.C,C9*%
X240010000Y-134659420D02*
X240010000Y-134940580D01*
X238990000Y-134659420D02*
X238990000Y-134940580D01*
%TO.C,U6*%
X106700000Y-63315000D02*
X103100000Y-63315000D01*
X106700000Y-71385000D02*
X104500000Y-71385000D01*
X106700000Y-63315000D02*
X108900000Y-63315000D01*
X106700000Y-71385000D02*
X108900000Y-71385000D01*
%TO.C,U1*%
X98080000Y-44850000D02*
X98080000Y-37230000D01*
X114320000Y-61470000D02*
X112200000Y-61470000D01*
X98080000Y-44850000D02*
X97470000Y-44850000D01*
X100200000Y-61470000D02*
X98080000Y-61470000D01*
X114320000Y-37230000D02*
X114320000Y-44850000D01*
X98080000Y-61470000D02*
X98080000Y-60850000D01*
X114320000Y-60850000D02*
X114320000Y-61470000D01*
X98080000Y-37230000D02*
X114320000Y-37230000D01*
%TO.C,C10*%
X223490000Y-134659420D02*
X223490000Y-134940580D01*
X224510000Y-134659420D02*
X224510000Y-134940580D01*
%TO.C,R14*%
X236477500Y-140537258D02*
X236477500Y-140062742D01*
X237522500Y-140537258D02*
X237522500Y-140062742D01*
%TO.C,U3*%
X191130000Y-138250000D02*
X189630000Y-138250000D01*
X191130000Y-131350000D02*
X189630000Y-131350000D01*
X189630000Y-131350000D02*
X189630000Y-131620000D01*
X189630000Y-137980000D02*
X188530000Y-137980000D01*
X189630000Y-131620000D02*
X186800000Y-131620000D01*
X189630000Y-138250000D02*
X189630000Y-137980000D01*
%TO.C,R8*%
X94937258Y-52372500D02*
X94462742Y-52372500D01*
X94937258Y-51327500D02*
X94462742Y-51327500D01*
%TO.C,R12*%
X117437258Y-51327500D02*
X116962742Y-51327500D01*
X117437258Y-52372500D02*
X116962742Y-52372500D01*
%TO.C,Q9*%
X103210000Y-77810000D02*
X103210000Y-77500000D01*
X103210000Y-75890000D02*
X101800000Y-75890000D01*
X103210000Y-77810000D02*
X102050000Y-77810000D01*
X103210000Y-75890000D02*
X103210000Y-76200000D01*
%TO.C,C18*%
X92540580Y-89110000D02*
X92259420Y-89110000D01*
X92540580Y-88090000D02*
X92259420Y-88090000D01*
%TO.C,SW1*%
X51015000Y-99985000D02*
X51015000Y-86015000D01*
X64985000Y-86015000D02*
X64985000Y-99985000D01*
X64985000Y-99985000D02*
X51015000Y-99985000D01*
X51015000Y-86015000D02*
X64985000Y-86015000D01*
%TO.C,D11*%
X192085000Y-140565000D02*
X189800000Y-140565000D01*
X189800000Y-142035000D02*
X192085000Y-142035000D01*
X192085000Y-142035000D02*
X192085000Y-140565000D01*
%TO.C,K4*%
X143000000Y-50000000D02*
X143000000Y-67500000D01*
X131500000Y-69500000D02*
X131500000Y-67500000D01*
X131500000Y-52000000D02*
X131500000Y-50000000D01*
X131500000Y-50000000D02*
X133500000Y-50000000D01*
X143000000Y-69500000D02*
X131500000Y-69500000D01*
X133500000Y-50000000D02*
X141000000Y-50000000D01*
X131500000Y-67500000D02*
X131500000Y-52000000D01*
X143000000Y-67500000D02*
X143000000Y-69500000D01*
X141000000Y-50000000D02*
X143000000Y-50000000D01*
%TO.C,R10*%
X116177500Y-58612742D02*
X116177500Y-59087258D01*
X117222500Y-58612742D02*
X117222500Y-59087258D01*
%TO.C,J1*%
X111530000Y-98530000D02*
X111530000Y-97200000D01*
X112860000Y-98530000D02*
X111530000Y-98530000D01*
X114130000Y-98530000D02*
X114130000Y-95870000D01*
X114130000Y-98530000D02*
X121810000Y-98530000D01*
X114130000Y-95870000D02*
X121810000Y-95870000D01*
X121810000Y-98530000D02*
X121810000Y-95870000D01*
%TO.C,D14*%
X111185000Y-78615000D02*
X108900000Y-78615000D01*
X111185000Y-80085000D02*
X111185000Y-78615000D01*
X108900000Y-80085000D02*
X111185000Y-80085000D01*
%TO.C,K3*%
X147000000Y-74000000D02*
X145000000Y-74000000D01*
X156500000Y-74000000D02*
X156500000Y-50000000D01*
X145000000Y-74000000D02*
X154500000Y-74000000D01*
X154500000Y-74000000D02*
X156500000Y-74000000D01*
X156500000Y-50000000D02*
X145000000Y-50000000D01*
X147000000Y-50000000D02*
X145000000Y-50000000D01*
X145000000Y-50000000D02*
X145000000Y-74000000D01*
%TO.C,C3*%
X60459420Y-44910000D02*
X60740580Y-44910000D01*
X60459420Y-43890000D02*
X60740580Y-43890000D01*
%TO.C,SW2*%
X64985000Y-119985000D02*
X51015000Y-119985000D01*
X64985000Y-106015000D02*
X64985000Y-119985000D01*
X51015000Y-119985000D02*
X51015000Y-106015000D01*
X51015000Y-106015000D02*
X64985000Y-106015000D01*
%TO.C,R4*%
X137022500Y-71737258D02*
X137022500Y-71262742D01*
X135977500Y-71737258D02*
X135977500Y-71262742D01*
%TO.C,J5*%
X118195000Y-44145000D02*
X118195000Y-49285000D01*
X120795000Y-41545000D02*
X123395000Y-41545000D01*
X120795000Y-44145000D02*
X120795000Y-41545000D01*
X118195000Y-44145000D02*
X120795000Y-44145000D01*
X118195000Y-49285000D02*
X123395000Y-49285000D01*
X123395000Y-41545000D02*
X123395000Y-49285000D01*
X118195000Y-42875000D02*
X118195000Y-41545000D01*
X118195000Y-41545000D02*
X119525000Y-41545000D01*
%TO.C,U12*%
X119680000Y-142700000D02*
X170220000Y-142700000D01*
X119680000Y-142700000D02*
X119680000Y-123460000D01*
X137600000Y-142950000D02*
X139600000Y-142950000D01*
X170220000Y-123460000D02*
X119680000Y-123460000D01*
X170220000Y-142700000D02*
X170220000Y-123460000D01*
%TO.C,C2*%
X94559420Y-62360000D02*
X94840580Y-62360000D01*
X94559420Y-61340000D02*
X94840580Y-61340000D01*
%TO.C,D3*%
X154935000Y-77485000D02*
X154935000Y-75200000D01*
X153465000Y-75200000D02*
X153465000Y-77485000D01*
X153465000Y-77485000D02*
X154935000Y-77485000D01*
%TO.C,C12*%
X234359420Y-138790000D02*
X234640580Y-138790000D01*
X234359420Y-139810000D02*
X234640580Y-139810000D01*
%TO.C,K1*%
X184000000Y-44500000D02*
X184000000Y-74500000D01*
X184000000Y-74500000D02*
X195500000Y-74500000D01*
X195500000Y-74500000D02*
X195500000Y-44500000D01*
X195500000Y-44500000D02*
X184000000Y-44500000D01*
%TO.C,D13*%
X220485000Y-142035000D02*
X220485000Y-140565000D01*
X218200000Y-142035000D02*
X220485000Y-142035000D01*
X220485000Y-140565000D02*
X218200000Y-140565000D01*
%TO.C,U4*%
X235470000Y-137980000D02*
X238300000Y-137980000D01*
X235470000Y-131350000D02*
X235470000Y-131620000D01*
X233970000Y-138250000D02*
X235470000Y-138250000D01*
X233970000Y-131350000D02*
X235470000Y-131350000D01*
X235470000Y-138250000D02*
X235470000Y-137980000D01*
X235470000Y-131620000D02*
X236570000Y-131620000D01*
%TO.C,R5*%
X94462742Y-50372500D02*
X94937258Y-50372500D01*
X94462742Y-49327500D02*
X94937258Y-49327500D01*
%TO.C,C6*%
X208249501Y-107223000D02*
X208249501Y-111577000D01*
X195650501Y-111640000D02*
X195650501Y-126291000D01*
X196970501Y-92946000D02*
X196970501Y-107160000D01*
X194410501Y-92200000D02*
X194410501Y-107160000D01*
X196530501Y-92788000D02*
X196530501Y-107160000D01*
X192650501Y-91920000D02*
X192650501Y-126880000D01*
X194570501Y-111640000D02*
X194570501Y-126566000D01*
X207369501Y-103532000D02*
X207369501Y-115268000D01*
X203289501Y-97041000D02*
X203289501Y-121759000D01*
X200929501Y-95044000D02*
X200929501Y-123756000D01*
X200889501Y-95016000D02*
X200889501Y-123784000D01*
X205169501Y-99285000D02*
X205169501Y-119515000D01*
X206289501Y-101097000D02*
X206289501Y-117703000D01*
X199649501Y-94221000D02*
X199649501Y-124579000D01*
X205769501Y-100195000D02*
X205769501Y-118605000D01*
X191570501Y-91838000D02*
X191570501Y-126962000D01*
X197370501Y-93102000D02*
X197370501Y-107160000D01*
X206009501Y-100596000D02*
X206009501Y-118204000D01*
X206489501Y-101480000D02*
X206489501Y-117320000D01*
X203769501Y-97546000D02*
X203769501Y-121254000D01*
X207449501Y-103761000D02*
X207449501Y-115039000D01*
X207929501Y-105440000D02*
X207929501Y-113360000D01*
X194210501Y-92159000D02*
X194210501Y-107160000D01*
X192930501Y-91952000D02*
X192930501Y-126848000D01*
X207089501Y-102797000D02*
X207089501Y-116003000D01*
X199049501Y-93886000D02*
X199049501Y-124914000D01*
X196090501Y-111640000D02*
X196090501Y-126158000D01*
X197730501Y-93252000D02*
X197730501Y-107160000D01*
X201129501Y-95187000D02*
X201129501Y-123613000D01*
X195490501Y-111640000D02*
X195490501Y-126337000D01*
X197810501Y-93287000D02*
X197810501Y-107160000D01*
X194770501Y-92280000D02*
X194770501Y-107160000D01*
X192890501Y-91948000D02*
X192890501Y-126852000D01*
X207769501Y-104807000D02*
X207769501Y-113993000D01*
X203009501Y-96765000D02*
X203009501Y-122035000D01*
X201929501Y-95804000D02*
X201929501Y-122996000D01*
X193970501Y-92113000D02*
X193970501Y-107160000D01*
X192290501Y-91885000D02*
X192290501Y-126915000D01*
X195970501Y-111640000D02*
X195970501Y-126196000D01*
X197690501Y-93235000D02*
X197690501Y-107160000D01*
X200649501Y-94850000D02*
X200649501Y-123950000D01*
X206409501Y-101324000D02*
X206409501Y-117476000D01*
X190769501Y-91820000D02*
X190769501Y-126980000D01*
X198730501Y-93720000D02*
X198730501Y-125080000D01*
X197770501Y-93270000D02*
X197770501Y-107160000D01*
X208369501Y-108600000D02*
X208369501Y-110200000D01*
X192330501Y-91889000D02*
X192330501Y-126911000D01*
X196450501Y-111640000D02*
X196450501Y-126040000D01*
X196970501Y-111640000D02*
X196970501Y-125854000D01*
X200129501Y-94511000D02*
X200129501Y-124289000D01*
X193170501Y-91984000D02*
X193170501Y-126816000D01*
X197050501Y-111640000D02*
X197050501Y-125823000D01*
X195570501Y-111640000D02*
X195570501Y-126314000D01*
X195210501Y-92388000D02*
X195210501Y-107160000D01*
X191129501Y-91823000D02*
X191129501Y-126977000D01*
X205129501Y-99229000D02*
X205129501Y-119571000D01*
X203169501Y-96921000D02*
X203169501Y-121879000D01*
X199929501Y-94388000D02*
X199929501Y-124412000D01*
X203409501Y-97164000D02*
X203409501Y-121636000D01*
X199729501Y-94268000D02*
X199729501Y-124532000D01*
X204009501Y-97813000D02*
X204009501Y-120987000D01*
X208049501Y-105995000D02*
X208049501Y-112805000D01*
X193690501Y-111640000D02*
X193690501Y-126737000D01*
X193610501Y-92050000D02*
X193610501Y-107160000D01*
X200329501Y-94638000D02*
X200329501Y-124162000D01*
X195650501Y-92509000D02*
X195650501Y-107160000D01*
X196810501Y-92887000D02*
X196810501Y-107160000D01*
X197850501Y-93305000D02*
X197850501Y-107160000D01*
X193930501Y-92105000D02*
X193930501Y-107160000D01*
X190849501Y-91820000D02*
X190849501Y-126980000D01*
X195170501Y-111640000D02*
X195170501Y-126422000D01*
X197130501Y-93007000D02*
X197130501Y-107160000D01*
X204569501Y-98484000D02*
X204569501Y-120316000D01*
X205289501Y-99458000D02*
X205289501Y-119342000D01*
X193770501Y-111640000D02*
X193770501Y-126723000D01*
X196090501Y-92642000D02*
X196090501Y-107160000D01*
X195050501Y-92347000D02*
X195050501Y-107160000D01*
X204769501Y-98741000D02*
X204769501Y-120059000D01*
X195130501Y-111640000D02*
X195130501Y-126433000D01*
X196650501Y-111640000D02*
X196650501Y-125970000D01*
X203049501Y-96804000D02*
X203049501Y-121996000D01*
X204449501Y-98334000D02*
X204449501Y-120466000D01*
X200169501Y-94536000D02*
X200169501Y-124264000D01*
X194970501Y-92327000D02*
X194970501Y-107160000D01*
X193450501Y-92025000D02*
X193450501Y-126775000D01*
X207049501Y-102700000D02*
X207049501Y-116100000D01*
X198930501Y-93823000D02*
X198930501Y-124977000D01*
X192210501Y-91878000D02*
X192210501Y-126922000D01*
X194050501Y-111640000D02*
X194050501Y-126673000D01*
X197370501Y-111640000D02*
X197370501Y-125698000D01*
X201729501Y-95643000D02*
X201729501Y-123157000D01*
X198330501Y-93524000D02*
X198330501Y-125276000D01*
X202289501Y-96107000D02*
X202289501Y-122693000D01*
X204409501Y-98285000D02*
X204409501Y-120515000D01*
X202489501Y-96283000D02*
X202489501Y-122517000D01*
X200049501Y-94461000D02*
X200049501Y-124339000D01*
X193290501Y-92001000D02*
X193290501Y-126799000D01*
X191449501Y-91833000D02*
X191449501Y-126967000D01*
X195890501Y-92580000D02*
X195890501Y-107160000D01*
X201009501Y-95101000D02*
X201009501Y-123699000D01*
X194610501Y-111640000D02*
X194610501Y-126557000D01*
X200969501Y-95072000D02*
X200969501Y-123728000D01*
X195690501Y-92520000D02*
X195690501Y-107160000D01*
X201769501Y-95675000D02*
X201769501Y-123125000D01*
X201089501Y-95158000D02*
X201089501Y-123642000D01*
X206649501Y-101805000D02*
X206649501Y-116995000D01*
X196050501Y-111640000D02*
X196050501Y-126171000D01*
X197290501Y-93070000D02*
X197290501Y-107160000D01*
X194690501Y-92261000D02*
X194690501Y-107160000D01*
X199409501Y-94083000D02*
X199409501Y-124717000D01*
X194730501Y-111640000D02*
X194730501Y-126530000D01*
X192810501Y-91938000D02*
X192810501Y-126862000D01*
X193970501Y-111640000D02*
X193970501Y-126687000D01*
X199569501Y-94174000D02*
X199569501Y-124626000D01*
X194130501Y-111640000D02*
X194130501Y-126657000D01*
X199609501Y-94197000D02*
X199609501Y-124603000D01*
X198170501Y-93449000D02*
X198170501Y-125351000D01*
X195290501Y-111640000D02*
X195290501Y-126391000D01*
X198370501Y-93543000D02*
X198370501Y-125257000D01*
X192970501Y-91957000D02*
X192970501Y-126843000D01*
X206729501Y-101973000D02*
X206729501Y-116827000D01*
X205649501Y-100003000D02*
X205649501Y-118797000D01*
X193210501Y-91989000D02*
X193210501Y-126811000D01*
X195730501Y-92532000D02*
X195730501Y-107160000D01*
X198570501Y-93640000D02*
X198570501Y-125160000D01*
X195610501Y-92497000D02*
X195610501Y-107160000D01*
X204089501Y-97905000D02*
X204089501Y-120895000D01*
X196050501Y-92629000D02*
X196050501Y-107160000D01*
X202729501Y-96500000D02*
X202729501Y-122300000D01*
X171915499Y-99525000D02*
X175415499Y-99525000D01*
X206849501Y-102235000D02*
X206849501Y-116565000D01*
X196890501Y-111640000D02*
X196890501Y-125884000D01*
X207209501Y-103100000D02*
X207209501Y-115700000D01*
X206369501Y-101248000D02*
X206369501Y-117552000D01*
X195490501Y-92463000D02*
X195490501Y-107160000D01*
X202689501Y-96463000D02*
X202689501Y-122337000D01*
X207969501Y-105615000D02*
X207969501Y-113185000D01*
X206969501Y-102510000D02*
X206969501Y-116290000D01*
X196170501Y-92667000D02*
X196170501Y-107160000D01*
X196610501Y-92815000D02*
X196610501Y-107160000D01*
X201249501Y-95275000D02*
X201249501Y-123525000D01*
X194410501Y-111640000D02*
X194410501Y-126600000D01*
X193930501Y-111640000D02*
X193930501Y-126695000D01*
X207689501Y-104522000D02*
X207689501Y-114278000D01*
X199849501Y-94339000D02*
X199849501Y-124461000D01*
X197410501Y-111640000D02*
X197410501Y-125681000D01*
X203969501Y-97768000D02*
X203969501Y-121032000D01*
X196010501Y-111640000D02*
X196010501Y-126183000D01*
X197330501Y-93086000D02*
X197330501Y-107160000D01*
X201969501Y-95837000D02*
X201969501Y-122963000D01*
X206769501Y-102059000D02*
X206769501Y-116741000D01*
X194810501Y-111640000D02*
X194810501Y-126511000D01*
X194290501Y-92175000D02*
X194290501Y-107160000D01*
X199369501Y-94061000D02*
X199369501Y-124739000D01*
X195970501Y-92604000D02*
X195970501Y-107160000D01*
X198210501Y-93467000D02*
X198210501Y-125333000D01*
X199809501Y-94315000D02*
X199809501Y-124485000D01*
X194850501Y-92298000D02*
X194850501Y-107160000D01*
X192610501Y-91916000D02*
X192610501Y-126884000D01*
X194530501Y-111640000D02*
X194530501Y-126575000D01*
X195770501Y-92544000D02*
X195770501Y-107160000D01*
X202209501Y-96038000D02*
X202209501Y-122762000D01*
X196770501Y-111640000D02*
X196770501Y-125927000D01*
X195130501Y-92367000D02*
X195130501Y-107160000D01*
X196890501Y-92916000D02*
X196890501Y-107160000D01*
X202129501Y-95970000D02*
X202129501Y-122830000D01*
X195810501Y-92556000D02*
X195810501Y-107160000D01*
X204489501Y-98384000D02*
X204489501Y-120416000D01*
X200569501Y-94796000D02*
X200569501Y-124004000D01*
X200289501Y-94613000D02*
X200289501Y-124187000D01*
X207489501Y-103880000D02*
X207489501Y-114920000D01*
X197570501Y-93185000D02*
X197570501Y-107160000D01*
X206249501Y-101023000D02*
X206249501Y-117777000D01*
X205409501Y-99635000D02*
X205409501Y-119165000D01*
X202329501Y-96142000D02*
X202329501Y-122658000D01*
X202089501Y-95937000D02*
X202089501Y-122863000D01*
X192250501Y-91882000D02*
X192250501Y-126918000D01*
X196410501Y-111640000D02*
X196410501Y-126053000D01*
X198010501Y-93376000D02*
X198010501Y-125424000D01*
X197010501Y-92961000D02*
X197010501Y-107160000D01*
X207289501Y-103311000D02*
X207289501Y-115489000D01*
X198450501Y-93581000D02*
X198450501Y-125219000D01*
X195330501Y-92420000D02*
X195330501Y-107160000D01*
X193490501Y-92031000D02*
X193490501Y-126769000D01*
X196450501Y-92760000D02*
X196450501Y-107160000D01*
X197090501Y-111640000D02*
X197090501Y-125808000D01*
X197490501Y-111640000D02*
X197490501Y-125649000D01*
X204609501Y-98535000D02*
X204609501Y-120265000D01*
X202889501Y-96650000D02*
X202889501Y-122150000D01*
X193890501Y-111640000D02*
X193890501Y-126702000D01*
X196250501Y-111640000D02*
X196250501Y-126107000D01*
X194450501Y-111640000D02*
X194450501Y-126592000D01*
X196730501Y-92858000D02*
X196730501Y-107160000D01*
X195290501Y-92409000D02*
X195290501Y-107160000D01*
X207609501Y-104255000D02*
X207609501Y-114545000D01*
X197770501Y-111640000D02*
X197770501Y-125530000D01*
X194370501Y-92191000D02*
X194370501Y-107160000D01*
X197610501Y-111640000D02*
X197610501Y-125599000D01*
X207569501Y-104127000D02*
X207569501Y-114673000D01*
X195530501Y-92475000D02*
X195530501Y-107160000D01*
X194170501Y-92151000D02*
X194170501Y-107160000D01*
X199769501Y-94291000D02*
X199769501Y-124509000D01*
X200529501Y-94770000D02*
X200529501Y-124030000D01*
X197890501Y-93322000D02*
X197890501Y-107160000D01*
X200729501Y-94905000D02*
X200729501Y-123895000D01*
X197530501Y-93168000D02*
X197530501Y-107160000D01*
X191169501Y-91824000D02*
X191169501Y-126976000D01*
X195770501Y-111640000D02*
X195770501Y-126256000D01*
X196770501Y-92873000D02*
X196770501Y-107160000D01*
X196490501Y-92774000D02*
X196490501Y-107160000D01*
X192570501Y-91912000D02*
X192570501Y-126888000D01*
X197090501Y-92992000D02*
X197090501Y-107160000D01*
X196290501Y-92706000D02*
X196290501Y-107160000D01*
X198410501Y-93562000D02*
X198410501Y-125238000D01*
X196170501Y-111640000D02*
X196170501Y-126133000D01*
X203529501Y-97289000D02*
X203529501Y-121511000D01*
X203889501Y-97678000D02*
X203889501Y-121122000D01*
X196370501Y-92733000D02*
X196370501Y-107160000D01*
X208009501Y-105800000D02*
X208009501Y-113000000D01*
X199009501Y-93865000D02*
X199009501Y-124935000D01*
X199449501Y-94106000D02*
X199449501Y-124694000D01*
X200449501Y-94717000D02*
X200449501Y-124083000D01*
X197650501Y-93218000D02*
X197650501Y-107160000D01*
X195010501Y-111640000D02*
X195010501Y-126463000D01*
X194810501Y-92289000D02*
X194810501Y-107160000D01*
X201849501Y-95739000D02*
X201849501Y-123061000D01*
X202449501Y-96247000D02*
X202449501Y-122553000D01*
X197530501Y-111640000D02*
X197530501Y-125632000D01*
X207329501Y-103420000D02*
X207329501Y-115380000D01*
X196330501Y-92720000D02*
X196330501Y-107160000D01*
X197490501Y-93151000D02*
X197490501Y-107160000D01*
X198610501Y-93660000D02*
X198610501Y-125140000D01*
X205209501Y-99342000D02*
X205209501Y-119458000D01*
X205729501Y-100130000D02*
X205729501Y-118670000D01*
X196370501Y-111640000D02*
X196370501Y-126067000D01*
X199169501Y-93951000D02*
X199169501Y-124849000D01*
X197930501Y-93340000D02*
X197930501Y-107160000D01*
X201209501Y-95245000D02*
X201209501Y-123555000D01*
X195210501Y-111640000D02*
X195210501Y-126412000D01*
X193410501Y-92018000D02*
X193410501Y-126782000D01*
X194490501Y-111640000D02*
X194490501Y-126583000D01*
X198890501Y-93802000D02*
X198890501Y-124998000D01*
X205089501Y-99173000D02*
X205089501Y-119627000D01*
X193050501Y-91968000D02*
X193050501Y-126832000D01*
X207249501Y-103205000D02*
X207249501Y-115595000D01*
X195570501Y-92486000D02*
X195570501Y-107160000D01*
X195450501Y-92452000D02*
X195450501Y-107160000D01*
X191770501Y-91848000D02*
X191770501Y-126952000D01*
X196490501Y-111640000D02*
X196490501Y-126026000D01*
X204529501Y-98434000D02*
X204529501Y-120366000D01*
X200849501Y-94988000D02*
X200849501Y-123812000D01*
X191329501Y-91828000D02*
X191329501Y-126972000D01*
X197610501Y-93201000D02*
X197610501Y-107160000D01*
X196610501Y-111640000D02*
X196610501Y-125985000D01*
X204369501Y-98237000D02*
X204369501Y-120563000D01*
X195730501Y-111640000D02*
X195730501Y-126268000D01*
X197250501Y-93054000D02*
X197250501Y-107160000D01*
X208289501Y-107565000D02*
X208289501Y-111235000D01*
X208089501Y-106202000D02*
X208089501Y-112598000D01*
X197010501Y-111640000D02*
X197010501Y-125839000D01*
X191610501Y-91840000D02*
X191610501Y-126960000D01*
X204289501Y-98140000D02*
X204289501Y-120660000D01*
X206569501Y-101641000D02*
X206569501Y-117159000D01*
X202249501Y-96073000D02*
X202249501Y-122727000D01*
X195890501Y-111640000D02*
X195890501Y-126220000D01*
X205049501Y-99117000D02*
X205049501Y-119683000D01*
X196410501Y-92747000D02*
X196410501Y-107160000D01*
X204929501Y-98953000D02*
X204929501Y-119847000D01*
X194130501Y-92143000D02*
X194130501Y-107160000D01*
X197050501Y-92977000D02*
X197050501Y-107160000D01*
X200089501Y-94486000D02*
X200089501Y-124314000D01*
X202809501Y-96575000D02*
X202809501Y-122225000D01*
X205689501Y-100066000D02*
X205689501Y-118734000D01*
X195610501Y-111640000D02*
X195610501Y-126303000D01*
X201889501Y-95772000D02*
X201889501Y-123028000D01*
X197450501Y-111640000D02*
X197450501Y-125665000D01*
X194850501Y-111640000D02*
X194850501Y-126502000D01*
X200249501Y-94587000D02*
X200249501Y-124213000D01*
X204249501Y-98093000D02*
X204249501Y-120707000D01*
X206129501Y-100806000D02*
X206129501Y-117994000D01*
X206529501Y-101560000D02*
X206529501Y-117240000D01*
X202529501Y-96318000D02*
X202529501Y-122482000D01*
X205329501Y-99516000D02*
X205329501Y-119284000D01*
X196010501Y-92617000D02*
X196010501Y-107160000D01*
X203489501Y-97247000D02*
X203489501Y-121553000D01*
X195930501Y-111640000D02*
X195930501Y-126208000D01*
X202649501Y-96427000D02*
X202649501Y-122373000D01*
X194010501Y-92120000D02*
X194010501Y-107160000D01*
X204889501Y-98900000D02*
X204889501Y-119900000D01*
X198850501Y-93781000D02*
X198850501Y-125019000D01*
X201649501Y-95580000D02*
X201649501Y-123220000D01*
X202929501Y-96688000D02*
X202929501Y-122112000D01*
X204129501Y-97951000D02*
X204129501Y-120849000D01*
X194930501Y-111640000D02*
X194930501Y-126482000D01*
X203729501Y-97502000D02*
X203729501Y-121298000D01*
X203929501Y-97723000D02*
X203929501Y-121077000D01*
X195250501Y-92399000D02*
X195250501Y-107160000D01*
X204209501Y-98045000D02*
X204209501Y-120755000D01*
X207809501Y-104956000D02*
X207809501Y-113844000D01*
X191890501Y-91855000D02*
X191890501Y-126945000D01*
X192850501Y-91943000D02*
X192850501Y-126857000D01*
X193530501Y-92037000D02*
X193530501Y-107160000D01*
X194490501Y-92217000D02*
X194490501Y-107160000D01*
X196330501Y-111640000D02*
X196330501Y-126080000D01*
X192130501Y-91872000D02*
X192130501Y-126928000D01*
X194050501Y-92127000D02*
X194050501Y-107160000D01*
X207849501Y-105111000D02*
X207849501Y-113689000D01*
X206689501Y-101888000D02*
X206689501Y-116912000D01*
X203209501Y-96961000D02*
X203209501Y-121839000D01*
X195330501Y-111640000D02*
X195330501Y-126380000D01*
X193730501Y-92070000D02*
X193730501Y-107160000D01*
X204169501Y-97998000D02*
X204169501Y-120802000D01*
X197290501Y-111640000D02*
X197290501Y-125730000D01*
X201409501Y-95395000D02*
X201409501Y-123405000D01*
X194090501Y-92135000D02*
X194090501Y-107160000D01*
X200009501Y-94437000D02*
X200009501Y-124363000D01*
X208169501Y-106664000D02*
X208169501Y-112136000D01*
X194250501Y-111640000D02*
X194250501Y-126633000D01*
X202009501Y-95870000D02*
X202009501Y-122930000D01*
X193570501Y-111640000D02*
X193570501Y-126757000D01*
X193570501Y-92043000D02*
X193570501Y-107160000D01*
X205449501Y-99695000D02*
X205449501Y-119105000D01*
X202169501Y-96004000D02*
X202169501Y-122796000D01*
X193250501Y-91995000D02*
X193250501Y-126805000D01*
X205529501Y-99816000D02*
X205529501Y-118984000D01*
X191850501Y-91853000D02*
X191850501Y-126947000D01*
X197210501Y-111640000D02*
X197210501Y-125761000D01*
X191810501Y-91850000D02*
X191810501Y-126950000D01*
X201489501Y-95456000D02*
X201489501Y-123344000D01*
X205889501Y-100392000D02*
X205889501Y-118408000D01*
X192690501Y-91924000D02*
X192690501Y-126876000D01*
X205489501Y-99755000D02*
X205489501Y-119045000D01*
X195370501Y-92431000D02*
X195370501Y-107160000D01*
X196850501Y-92902000D02*
X196850501Y-107160000D01*
X193730501Y-111640000D02*
X193730501Y-126730000D01*
X199289501Y-94016000D02*
X199289501Y-124784000D01*
X196130501Y-111640000D02*
X196130501Y-126145000D01*
X191650501Y-91841000D02*
X191650501Y-126959000D01*
X201689501Y-95611000D02*
X201689501Y-123189000D01*
X191009501Y-91821000D02*
X191009501Y-126979000D01*
X197330501Y-111640000D02*
X197330501Y-125714000D01*
X194450501Y-92208000D02*
X194450501Y-107160000D01*
X194650501Y-111640000D02*
X194650501Y-126548000D01*
X196730501Y-111640000D02*
X196730501Y-125942000D01*
X206609501Y-101722000D02*
X206609501Y-117078000D01*
X200769501Y-94932000D02*
X200769501Y-123868000D01*
X194890501Y-92308000D02*
X194890501Y-107160000D01*
X192090501Y-91869000D02*
X192090501Y-126931000D01*
X198690501Y-93700000D02*
X198690501Y-125100000D01*
X207649501Y-104387000D02*
X207649501Y-114413000D01*
X193770501Y-92077000D02*
X193770501Y-107160000D01*
X206049501Y-100665000D02*
X206049501Y-118135000D01*
X191049501Y-91822000D02*
X191049501Y-126978000D01*
X203329501Y-97082000D02*
X203329501Y-121718000D01*
X197730501Y-111640000D02*
X197730501Y-125548000D01*
X198250501Y-93486000D02*
X198250501Y-125314000D01*
X191930501Y-91858000D02*
X191930501Y-126942000D01*
X199329501Y-94039000D02*
X199329501Y-124761000D01*
X199529501Y-94151000D02*
X199529501Y-124649000D01*
X195690501Y-111640000D02*
X195690501Y-126280000D01*
X191209501Y-91825000D02*
X191209501Y-126975000D01*
X206449501Y-101402000D02*
X206449501Y-117398000D01*
X197450501Y-93135000D02*
X197450501Y-107160000D01*
X194170501Y-111640000D02*
X194170501Y-126649000D01*
X198050501Y-93394000D02*
X198050501Y-125406000D01*
X194890501Y-111640000D02*
X194890501Y-126492000D01*
X193850501Y-111640000D02*
X193850501Y-126709000D01*
X204969501Y-99008000D02*
X204969501Y-119792000D01*
X191970501Y-91860000D02*
X191970501Y-126940000D01*
X193610501Y-111640000D02*
X193610501Y-126750000D01*
X194290501Y-111640000D02*
X194290501Y-126625000D01*
X204689501Y-98637000D02*
X204689501Y-120163000D01*
X202609501Y-96390000D02*
X202609501Y-122410000D01*
X195450501Y-111640000D02*
X195450501Y-126348000D01*
X192730501Y-91929000D02*
X192730501Y-126871000D01*
X191369501Y-91830000D02*
X191369501Y-126970000D01*
X199129501Y-93929000D02*
X199129501Y-124871000D01*
X196250501Y-92693000D02*
X196250501Y-107160000D01*
X193890501Y-92098000D02*
X193890501Y-107160000D01*
X195090501Y-111640000D02*
X195090501Y-126443000D01*
X205809501Y-100260000D02*
X205809501Y-118540000D01*
X195090501Y-92357000D02*
X195090501Y-107160000D01*
X202049501Y-95903000D02*
X202049501Y-122897000D01*
X197410501Y-93119000D02*
X197410501Y-107160000D01*
X196850501Y-111640000D02*
X196850501Y-125898000D01*
X196210501Y-92680000D02*
X196210501Y-107160000D01*
X193650501Y-92056000D02*
X193650501Y-107160000D01*
X195050501Y-111640000D02*
X195050501Y-126453000D01*
X208209501Y-106927000D02*
X208209501Y-111873000D01*
X190809501Y-91820000D02*
X190809501Y-126980000D01*
X199089501Y-93908000D02*
X199089501Y-124892000D01*
X190969501Y-91821000D02*
X190969501Y-126979000D01*
X201809501Y-95707000D02*
X201809501Y-123093000D01*
X200209501Y-94562000D02*
X200209501Y-124238000D01*
X204329501Y-98188000D02*
X204329501Y-120612000D01*
X191730501Y-91846000D02*
X191730501Y-126954000D01*
X193090501Y-91973000D02*
X193090501Y-126827000D01*
X196130501Y-92655000D02*
X196130501Y-107160000D01*
X198130501Y-93430000D02*
X198130501Y-125370000D01*
X203089501Y-96843000D02*
X203089501Y-121957000D01*
X193810501Y-111640000D02*
X193810501Y-126716000D01*
X204649501Y-98585000D02*
X204649501Y-120215000D01*
X203249501Y-97001000D02*
X203249501Y-121799000D01*
X197570501Y-111640000D02*
X197570501Y-125615000D01*
X195250501Y-111640000D02*
X195250501Y-126401000D01*
X197210501Y-93039000D02*
X197210501Y-107160000D01*
X192010501Y-91863000D02*
X192010501Y-126937000D01*
X194690501Y-111640000D02*
X194690501Y-126539000D01*
X196690501Y-92844000D02*
X196690501Y-107160000D01*
X195010501Y-92337000D02*
X195010501Y-107160000D01*
X196810501Y-111640000D02*
X196810501Y-125913000D01*
X173665499Y-97775000D02*
X173665499Y-101275000D01*
X192490501Y-91904000D02*
X192490501Y-126896000D01*
X205569501Y-99878000D02*
X205569501Y-118922000D01*
X205369501Y-99575000D02*
X205369501Y-119225000D01*
X192370501Y-91892000D02*
X192370501Y-126908000D01*
X195370501Y-111640000D02*
X195370501Y-126369000D01*
X197890501Y-111640000D02*
X197890501Y-125478000D01*
X203569501Y-97331000D02*
X203569501Y-121469000D01*
X197970501Y-93358000D02*
X197970501Y-107160000D01*
X205969501Y-100527000D02*
X205969501Y-118273000D01*
X197810501Y-111640000D02*
X197810501Y-125513000D01*
X193370501Y-92012000D02*
X193370501Y-126788000D01*
X198490501Y-93601000D02*
X198490501Y-125199000D01*
X194570501Y-92234000D02*
X194570501Y-107160000D01*
X199689501Y-94244000D02*
X199689501Y-124556000D01*
X198650501Y-93680000D02*
X198650501Y-125120000D01*
X207169501Y-102997000D02*
X207169501Y-115803000D01*
X191289501Y-91827000D02*
X191289501Y-126973000D01*
X206329501Y-101172000D02*
X206329501Y-117628000D01*
X196290501Y-111640000D02*
X196290501Y-126094000D01*
X204729501Y-98689000D02*
X204729501Y-120111000D01*
X205849501Y-100326000D02*
X205849501Y-118474000D01*
X203129501Y-96882000D02*
X203129501Y-121918000D01*
X199489501Y-94129000D02*
X199489501Y-124671000D01*
X194530501Y-92225000D02*
X194530501Y-107160000D01*
X194330501Y-92183000D02*
X194330501Y-107160000D01*
X206809501Y-102147000D02*
X206809501Y-116653000D01*
X205009501Y-99062000D02*
X205009501Y-119738000D01*
X191690501Y-91844000D02*
X191690501Y-126956000D01*
X194330501Y-111640000D02*
X194330501Y-126617000D01*
X203689501Y-97459000D02*
X203689501Y-121341000D01*
X192770501Y-91933000D02*
X192770501Y-126867000D01*
X201609501Y-95549000D02*
X201609501Y-123251000D01*
X202409501Y-96212000D02*
X202409501Y-122588000D01*
X200489501Y-94743000D02*
X200489501Y-124057000D01*
X195410501Y-92441000D02*
X195410501Y-107160000D01*
X195850501Y-92568000D02*
X195850501Y-107160000D01*
X207129501Y-102896000D02*
X207129501Y-115904000D01*
X197930501Y-111640000D02*
X197930501Y-125460000D01*
X198770501Y-93740000D02*
X198770501Y-125060000D01*
X205929501Y-100460000D02*
X205929501Y-118340000D01*
X194930501Y-92318000D02*
X194930501Y-107160000D01*
X195930501Y-92592000D02*
X195930501Y-107160000D01*
X198810501Y-93761000D02*
X198810501Y-125039000D01*
X206889501Y-102325000D02*
X206889501Y-116475000D01*
X193130501Y-91978000D02*
X193130501Y-126822000D01*
X200689501Y-94877000D02*
X200689501Y-123923000D01*
X201449501Y-95425000D02*
X201449501Y-123375000D01*
X204849501Y-98846000D02*
X204849501Y-119954000D01*
X197850501Y-111640000D02*
X197850501Y-125495000D01*
X197690501Y-111640000D02*
X197690501Y-125565000D01*
X197130501Y-111640000D02*
X197130501Y-125793000D01*
X200609501Y-94823000D02*
X200609501Y-123977000D01*
X193330501Y-92006000D02*
X193330501Y-126794000D01*
X196530501Y-111640000D02*
X196530501Y-126012000D01*
X206169501Y-100878000D02*
X206169501Y-117922000D01*
X195810501Y-111640000D02*
X195810501Y-126244000D01*
X202769501Y-96537000D02*
X202769501Y-122263000D01*
X201049501Y-95129000D02*
X201049501Y-123671000D01*
X196570501Y-111640000D02*
X196570501Y-125999000D01*
X208129501Y-106424000D02*
X208129501Y-112376000D01*
X195850501Y-111640000D02*
X195850501Y-126232000D01*
X196210501Y-111640000D02*
X196210501Y-126120000D01*
X194970501Y-111640000D02*
X194970501Y-126473000D01*
X200809501Y-94960000D02*
X200809501Y-123840000D01*
X194250501Y-92167000D02*
X194250501Y-107160000D01*
X203809501Y-97589000D02*
X203809501Y-121211000D01*
X192050501Y-91866000D02*
X192050501Y-126934000D01*
X194010501Y-111640000D02*
X194010501Y-126680000D01*
X207009501Y-102604000D02*
X207009501Y-116196000D01*
X196930501Y-111640000D02*
X196930501Y-125869000D01*
X193530501Y-111640000D02*
X193530501Y-126763000D01*
X203849501Y-97634000D02*
X203849501Y-121166000D01*
X204809501Y-98793000D02*
X204809501Y-120007000D01*
X205249501Y-99400000D02*
X205249501Y-119400000D01*
X193850501Y-92091000D02*
X193850501Y-107160000D01*
X191530501Y-91836000D02*
X191530501Y-126964000D01*
X200409501Y-94690000D02*
X200409501Y-124110000D01*
X202849501Y-96612000D02*
X202849501Y-122188000D01*
X199969501Y-94412000D02*
X199969501Y-124388000D01*
X199889501Y-94363000D02*
X199889501Y-124437000D01*
X207729501Y-104662000D02*
X207729501Y-114138000D01*
X202969501Y-96726000D02*
X202969501Y-122074000D01*
X203369501Y-97123000D02*
X203369501Y-121677000D01*
X191249501Y-91826000D02*
X191249501Y-126974000D01*
X204049501Y-97859000D02*
X204049501Y-120941000D01*
X197170501Y-93023000D02*
X197170501Y-107160000D01*
X197170501Y-111640000D02*
X197170501Y-125777000D01*
X197970501Y-111640000D02*
X197970501Y-125442000D01*
X190929501Y-91820000D02*
X190929501Y-126980000D01*
X194090501Y-111640000D02*
X194090501Y-126665000D01*
X197650501Y-111640000D02*
X197650501Y-125582000D01*
X203449501Y-97205000D02*
X203449501Y-121595000D01*
X201529501Y-95486000D02*
X201529501Y-123314000D01*
X201169501Y-95216000D02*
X201169501Y-123584000D01*
X205609501Y-99940000D02*
X205609501Y-118860000D01*
X198290501Y-93505000D02*
X198290501Y-125295000D01*
X195410501Y-111640000D02*
X195410501Y-126359000D01*
X198090501Y-93412000D02*
X198090501Y-125388000D01*
X190889501Y-91820000D02*
X190889501Y-126980000D01*
X194770501Y-111640000D02*
X194770501Y-126520000D01*
X198530501Y-93620000D02*
X198530501Y-125180000D01*
X199249501Y-93994000D02*
X199249501Y-124806000D01*
X194610501Y-92243000D02*
X194610501Y-107160000D01*
X193690501Y-92063000D02*
X193690501Y-107160000D01*
X195170501Y-92378000D02*
X195170501Y-107160000D01*
X202369501Y-96177000D02*
X202369501Y-122623000D01*
X201329501Y-95335000D02*
X201329501Y-123465000D01*
X197250501Y-111640000D02*
X197250501Y-125746000D01*
X192450501Y-91900000D02*
X192450501Y-126900000D01*
X196570501Y-92801000D02*
X196570501Y-107160000D01*
X198969501Y-93844000D02*
X198969501Y-124956000D01*
X207529501Y-104002000D02*
X207529501Y-114798000D01*
X202569501Y-96354000D02*
X202569501Y-122446000D01*
X203649501Y-97416000D02*
X203649501Y-121384000D01*
X193810501Y-92084000D02*
X193810501Y-107160000D01*
X201569501Y-95517000D02*
X201569501Y-123283000D01*
X192410501Y-91896000D02*
X192410501Y-126904000D01*
X207409501Y-103645000D02*
X207409501Y-115155000D01*
X196690501Y-111640000D02*
X196690501Y-125956000D01*
X194730501Y-92270000D02*
X194730501Y-107160000D01*
X207889501Y-105272000D02*
X207889501Y-113528000D01*
X195530501Y-111640000D02*
X195530501Y-126325000D01*
X191089501Y-91822000D02*
X191089501Y-126978000D01*
X201289501Y-95305000D02*
X201289501Y-123495000D01*
X200369501Y-94664000D02*
X200369501Y-124136000D01*
X192170501Y-91875000D02*
X192170501Y-126925000D01*
X203609501Y-97373000D02*
X203609501Y-121427000D01*
X194210501Y-111640000D02*
X194210501Y-126641000D01*
X192530501Y-91908000D02*
X192530501Y-126892000D01*
X191490501Y-91834000D02*
X191490501Y-126966000D01*
X199209501Y-93972000D02*
X199209501Y-124828000D01*
X191409501Y-91831000D02*
X191409501Y-126969000D01*
X194650501Y-92252000D02*
X194650501Y-107160000D01*
X196930501Y-92931000D02*
X196930501Y-107160000D01*
X206209501Y-100950000D02*
X206209501Y-117850000D01*
X206089501Y-100735000D02*
X206089501Y-118065000D01*
X208329501Y-107987000D02*
X208329501Y-110813000D01*
X193650501Y-111640000D02*
X193650501Y-126744000D01*
X206929501Y-102417000D02*
X206929501Y-116383000D01*
X201369501Y-95365000D02*
X201369501Y-123435000D01*
X193010501Y-91962000D02*
X193010501Y-126838000D01*
X194370501Y-111640000D02*
X194370501Y-126609000D01*
X196650501Y-92830000D02*
X196650501Y-107160000D01*
X208389501Y-109400000D02*
G75*
G03*
X208389501Y-109400000I-17620000J0D01*
G01*
%TO.C,Q8*%
X117210000Y-75890000D02*
X117210000Y-76200000D01*
X117210000Y-75890000D02*
X115800000Y-75890000D01*
X117210000Y-77810000D02*
X117210000Y-77500000D01*
X117210000Y-77810000D02*
X116050000Y-77810000D01*
%TO.C,U2*%
X62600000Y-41010000D02*
X64100000Y-41010000D01*
X62600000Y-41010000D02*
X61100000Y-41010000D01*
X62600000Y-37790000D02*
X59675000Y-37790000D01*
X62600000Y-37790000D02*
X64100000Y-37790000D01*
%TO.C,R19*%
X115437258Y-69872500D02*
X114962742Y-69872500D01*
X115437258Y-68827500D02*
X114962742Y-68827500D01*
%TO.C,SW4*%
X64925000Y-65935000D02*
X64925000Y-79905000D01*
X50955000Y-65935000D02*
X64925000Y-65935000D01*
X50955000Y-79905000D02*
X50955000Y-65935000D01*
X64925000Y-79905000D02*
X50955000Y-79905000D01*
%TO.C,D16*%
X115900000Y-80085000D02*
X118185000Y-80085000D01*
X118185000Y-78615000D02*
X115900000Y-78615000D01*
X118185000Y-80085000D02*
X118185000Y-78615000D01*
%TO.C,C16*%
X92540580Y-90710000D02*
X92259420Y-90710000D01*
X92540580Y-89690000D02*
X92259420Y-89690000D01*
%TO.C,Q4*%
X134510000Y-70040000D02*
X133100000Y-70040000D01*
X134510000Y-71960000D02*
X134510000Y-71650000D01*
X134510000Y-71960000D02*
X133350000Y-71960000D01*
X134510000Y-70040000D02*
X134510000Y-70350000D01*
%TO.C,R13*%
X193622500Y-140537258D02*
X193622500Y-140062742D01*
X192577500Y-140537258D02*
X192577500Y-140062742D01*
%TO.C,C13*%
X218859420Y-138790000D02*
X219140580Y-138790000D01*
X218859420Y-139810000D02*
X219140580Y-139810000D01*
%TO.C,C11*%
X190459420Y-139810000D02*
X190740580Y-139810000D01*
X190459420Y-138790000D02*
X190740580Y-138790000D01*
%TO.C,Q7*%
X110210000Y-75890000D02*
X110210000Y-76200000D01*
X110210000Y-77810000D02*
X109050000Y-77810000D01*
X110210000Y-77810000D02*
X110210000Y-77500000D01*
X110210000Y-75890000D02*
X108800000Y-75890000D01*
%TO.C,U11*%
X170220000Y-122800000D02*
X170220000Y-103560000D01*
X170220000Y-103560000D02*
X119680000Y-103560000D01*
X137600000Y-123050000D02*
X139600000Y-123050000D01*
X119680000Y-122800000D02*
X170220000Y-122800000D01*
X119680000Y-122800000D02*
X119680000Y-103560000D01*
%TO.C,R18*%
X115437258Y-67872500D02*
X114962742Y-67872500D01*
X115437258Y-66827500D02*
X114962742Y-66827500D01*
%TO.C,C5*%
X64459420Y-44910000D02*
X64740580Y-44910000D01*
X64459420Y-43890000D02*
X64740580Y-43890000D01*
%TO.C,R6*%
X94462742Y-46372500D02*
X94937258Y-46372500D01*
X94462742Y-45327500D02*
X94937258Y-45327500D01*
%TO.C,R22*%
X98322500Y-90762742D02*
X98322500Y-91237258D01*
X97277500Y-90762742D02*
X97277500Y-91237258D01*
%TO.C,C19*%
X143740580Y-88090000D02*
X143459420Y-88090000D01*
X143740580Y-89110000D02*
X143459420Y-89110000D01*
%TO.C,TRE1*%
X209000000Y-77900000D02*
X242000000Y-77900000D01*
X200500000Y-44400000D02*
X242000000Y-44400000D01*
X242000000Y-44400000D02*
X242000000Y-77900000D01*
X209000000Y-77900000D02*
X200500000Y-77900000D01*
X200500000Y-77900000D02*
X200500000Y-44400000D01*
%TO.C,D10*%
X229400000Y-89600000D02*
X227400000Y-89600000D01*
X227400000Y-89600000D02*
X227400000Y-87600000D01*
%TO.C,C4*%
X64459420Y-41890000D02*
X64740580Y-41890000D01*
X64459420Y-42910000D02*
X64740580Y-42910000D01*
%TO.C,D4*%
X190265000Y-75700000D02*
X190265000Y-77985000D01*
X190265000Y-77985000D02*
X191735000Y-77985000D01*
X191735000Y-77985000D02*
X191735000Y-75700000D01*
%TO.C,R7*%
X60362742Y-42922500D02*
X60837258Y-42922500D01*
X60362742Y-41877500D02*
X60837258Y-41877500D01*
%TO.C,D9*%
X207400000Y-89600000D02*
X207400000Y-87600000D01*
X209400000Y-89600000D02*
X207400000Y-89600000D01*
%TO.C,C15*%
X98710000Y-64459420D02*
X98710000Y-64740580D01*
X97690000Y-64459420D02*
X97690000Y-64740580D01*
%TO.C,D8*%
X137765000Y-70700000D02*
X137765000Y-72985000D01*
X137765000Y-72985000D02*
X139235000Y-72985000D01*
X139235000Y-72985000D02*
X139235000Y-70700000D01*
%TO.C,R1*%
X189522500Y-76737258D02*
X189522500Y-76262742D01*
X188477500Y-76737258D02*
X188477500Y-76262742D01*
%TO.C,R20*%
X114962742Y-71872500D02*
X115437258Y-71872500D01*
X114962742Y-70827500D02*
X115437258Y-70827500D01*
%TO.C,D6*%
X151265000Y-77485000D02*
X152735000Y-77485000D01*
X151265000Y-75200000D02*
X151265000Y-77485000D01*
X152735000Y-77485000D02*
X152735000Y-75200000D01*
%TO.C,Q1*%
X187010000Y-77460000D02*
X185850000Y-77460000D01*
X187010000Y-75540000D02*
X187010000Y-75850000D01*
X187010000Y-77460000D02*
X187010000Y-77150000D01*
X187010000Y-75540000D02*
X185600000Y-75540000D01*
%TO.C,D17*%
X107685000Y-80085000D02*
X107685000Y-78615000D01*
X107685000Y-78615000D02*
X105400000Y-78615000D01*
X105400000Y-80085000D02*
X107685000Y-80085000D01*
%TO.C,SW3*%
X50955000Y-126135000D02*
X64925000Y-126135000D01*
X50955000Y-140105000D02*
X50955000Y-126135000D01*
X64925000Y-126135000D02*
X64925000Y-140105000D01*
X64925000Y-140105000D02*
X50955000Y-140105000D01*
%TO.C,J4*%
X161300000Y-33900000D02*
X158800000Y-33900000D01*
X158800000Y-24900000D02*
X161300000Y-24900000D01*
X158800000Y-33900000D02*
X158800000Y-24900000D01*
X178800000Y-24900000D02*
X161300000Y-24900000D01*
X178800000Y-24900000D02*
X178800000Y-33900000D01*
X178800000Y-29400000D02*
X178800000Y-24900000D01*
X178800000Y-33900000D02*
X161300000Y-33900000D01*
%TO.C,C17*%
X143740580Y-89690000D02*
X143459420Y-89690000D01*
X143740580Y-90710000D02*
X143459420Y-90710000D01*
%TD*%
M02*
