M48
; DRILL file {KiCad (6.0.9)} date Fri Dec 30 23:11:14 2022
; FORMAT={-:-/ absolute / inch / decimal}
; #@! TF.CreationDate,2022-12-30T23:11:14-05:00
; #@! TF.GenerationSoftware,Kicad,Pcbnew,(6.0.9)
; #@! TF.FileFunction,Plated,1,2,PTH
FMAT,2
INCH
; #@! TA.AperFunction,Plated,PTH,ViaDrill
T1C0.0157
; #@! TA.AperFunction,Plated,PTH,ViaDrill
T2C0.0197
; #@! TA.AperFunction,Plated,PTH,ComponentDrill
T3C0.0394
; #@! TA.AperFunction,Plated,PTH,ComponentDrill
T4C0.0591
; #@! TA.AperFunction,Plated,PTH,ComponentDrill
T5C0.0787
%
G90
G05
T1
X1.9213Y-1.0157
X1.9213Y-1.0551
X1.9213Y-1.0945
X1.9213Y-1.1339
X1.9213Y-1.1732
X1.9213Y-1.2126
X1.9213Y-1.252
X1.9213Y-1.2913
X1.9213Y-1.3307
X1.9213Y-1.3701
X1.9213Y-1.4094
X1.9213Y-1.4488
X1.9213Y-1.4882
X1.9213Y-1.5276
X1.9213Y-1.5669
X1.9213Y-1.6063
X1.9213Y-1.6457
X1.9213Y-1.685
X1.9213Y-1.7244
X1.9213Y-1.7638
X1.9213Y-1.8031
X1.9213Y-1.8425
X1.9213Y-1.8819
X1.9213Y-1.9213
X1.9213Y-1.9606
X1.9606Y-1.0157
X1.9606Y-1.9606
X2.0Y-1.0157
X2.0Y-1.9606
X2.0394Y-1.0157
X2.0394Y-1.9606
X2.0787Y-1.0157
X2.0787Y-1.9606
X2.1181Y-1.0157
X2.1181Y-1.9606
X2.1575Y-1.0157
X2.1575Y-1.9606
X2.1969Y-1.0157
X2.1969Y-1.9606
X2.2362Y-1.0157
X2.2362Y-1.9606
X2.2756Y-1.0157
X2.2756Y-1.9606
X2.315Y-1.0157
X2.315Y-1.9606
X2.3543Y-1.0157
X2.3543Y-1.9606
X2.3937Y-1.0157
X2.3937Y-1.9606
X2.4331Y-1.0157
X2.4331Y-1.9606
X2.4724Y-1.0157
X2.4724Y-1.9606
X2.5118Y-1.0157
X2.5118Y-1.9606
X2.5512Y-1.0157
X2.5748Y-2.0787
X2.5906Y-1.0157
X2.6299Y-1.0157
X2.6299Y-1.9606
X2.6693Y-1.0157
X2.6693Y-1.9606
X2.7087Y-1.0157
X2.7087Y-1.9606
X2.748Y-1.0157
X2.748Y-1.9606
X2.7874Y-1.0157
X2.7874Y-1.9606
X2.8268Y-1.0157
X2.8268Y-1.9606
X2.8661Y-1.0157
X2.8661Y-1.9606
X2.9055Y-1.0157
X2.9055Y-1.9606
X2.9449Y-1.0157
X2.9449Y-1.9606
X2.9843Y-1.0157
X2.9843Y-1.9606
X3.0236Y-1.0157
X3.0236Y-1.9606
X3.063Y-1.0157
X3.063Y-1.0551
X3.063Y-1.0945
X3.063Y-1.1339
X3.063Y-1.1732
X3.063Y-1.2126
X3.063Y-1.252
X3.063Y-1.2913
X3.063Y-1.3307
X3.063Y-1.3701
X3.063Y-1.4094
X3.063Y-1.4488
X3.063Y-1.4882
X3.063Y-1.5276
X3.063Y-1.5669
X3.063Y-1.6063
X3.063Y-1.6457
X3.063Y-1.685
X3.063Y-1.7244
X3.063Y-1.7638
X3.063Y-1.8031
X3.063Y-1.9606
X3.1024Y-1.8031
X3.1024Y-1.9606
X3.1417Y-1.8031
X3.1417Y-1.9606
X3.1811Y-1.8031
X3.1811Y-1.9606
X3.2205Y-1.8031
X3.2205Y-1.9606
X3.2598Y-1.8031
X3.2598Y-1.9606
X3.2992Y-1.8031
X3.2992Y-1.9606
X3.3386Y-1.8031
X3.3386Y-1.9606
X3.3622Y-4.9449
X3.378Y-1.8031
X3.378Y-1.9606
X3.4173Y-1.8031
X3.4173Y-1.9606
X3.4331Y-5.0472
X3.4567Y-1.8031
X3.4567Y-1.9606
X3.4961Y-1.8031
X3.4961Y-1.9606
X3.5276Y-3.5512
X3.5354Y-1.8031
X3.5354Y-1.9606
X3.5748Y-1.8031
X3.5748Y-1.9606
X3.6063Y-3.7306
X3.6457Y-3.6614
X3.6535Y-3.7165
X3.7331Y-5.0206
X3.7402Y-3.4488
X3.7638Y-3.378
X3.811Y-3.9291
X3.8504Y-3.9291
X3.8898Y-2.7766
X3.8976Y-3.6142
X3.9134Y-2.5748
X3.9685Y-3.0472
X4.0157Y-2.9606
X4.0236Y-4.9449
X4.0315Y-3.5827
X4.1102Y-1.8031
X4.1102Y-3.0472
X4.1496Y-2.5748
X4.1496Y-2.7402
X4.2205Y-2.5443
X4.252Y-3.0472
X4.2563Y-2.6334
X4.2583Y-2.6767
X4.262Y-2.7275
X4.315Y-2.1969
X4.3228Y-2.315
X4.3622Y-2.252
X4.3849Y-2.5443
X4.3858Y-3.0472
X4.4016Y-2.0551
X4.4252Y-2.6063
X4.4409Y-2.5512
X4.4409Y-3.4173
X4.4803Y-2.4488
X4.5276Y-3.0472
X4.5433Y-3.4803
X4.5984Y-2.4094
X4.6457Y-3.4508
X4.6457Y-3.5197
X4.7008Y-2.0472
X4.7008Y-2.3307
X4.7402Y-2.2835
X4.7402Y-3.3386
X4.7402Y-3.4488
X5.189Y-2.7795
X5.3701Y-4.937
X5.4252Y-3.4803
X5.4567Y-5.063
X5.6119Y-3.7239
X5.6535Y-3.7165
X5.6614Y-3.6693
X5.7567Y-5.0323
X5.8189Y-3.5906
X5.8189Y-3.9449
X5.8474Y-3.9171
X5.9843Y-3.5512
X6.0394Y-4.937
T2
X3.7638Y-2.2677
X5.2126Y-2.8504
X5.5714Y-3.4365
X5.7244Y-3.0315
X6.1024Y-3.4803
X6.4803Y-3.0787
X7.3169Y-3.3445
X8.1496Y-5.4724
X8.3228Y-3.3543
X8.8976Y-5.0787
T3
X3.1654Y-2.1181
X3.1654Y-2.2181
X3.1654Y-2.3181
X3.1654Y-2.4181
X3.1654Y-2.5181
X3.1654Y-2.6181
X3.1654Y-2.7181
X3.4331Y-4.1536
X3.4331Y-4.7536
X3.4331Y-4.9433
X3.4331Y-5.5433
X3.5331Y-4.1536
X3.5331Y-4.7536
X3.5331Y-4.9433
X3.5331Y-5.5433
X3.6331Y-4.1536
X3.6331Y-4.7536
X3.6331Y-4.9433
X3.6331Y-5.5433
X3.7331Y-4.1536
X3.7331Y-4.7536
X3.7331Y-4.9433
X3.7331Y-5.5433
X3.8331Y-4.1536
X3.8331Y-4.7536
X3.8331Y-4.9433
X3.8331Y-5.5433
X3.9331Y-4.1536
X3.9331Y-4.7536
X3.9331Y-4.9433
X3.9331Y-5.5433
X4.4433Y-3.8268
X4.5433Y-3.8268
X4.6433Y-3.8268
X4.7057Y-1.688
X4.7057Y-1.788
X4.7057Y-1.888
X4.7433Y-3.8268
X4.8057Y-1.688
X4.8057Y-1.788
X4.8057Y-1.888
X5.4567Y-4.1559
X5.4567Y-4.7559
X5.4567Y-4.9394
X5.4567Y-5.5394
X5.5567Y-4.1559
X5.5567Y-4.7559
X5.5567Y-4.9394
X5.5567Y-5.5394
X5.6567Y-4.1559
X5.6567Y-4.7559
X5.6567Y-4.9394
X5.6567Y-5.5394
X5.7567Y-4.1559
X5.7567Y-4.7559
X5.7567Y-4.9394
X5.7567Y-5.5394
X5.8567Y-4.1559
X5.8567Y-4.7559
X5.8567Y-4.9394
X5.8567Y-5.5394
X5.9567Y-4.1559
X5.9567Y-4.7559
X5.9567Y-4.9394
X5.9567Y-5.5394
T4
X2.1311Y-2.7709
X2.1311Y-5.1409
X2.1335Y-3.5614
X2.1335Y-4.3488
X2.3811Y-2.6709
X2.3811Y-5.0409
X2.3835Y-3.4614
X2.3835Y-4.2488
X5.2559Y-2.0472
X5.2559Y-2.6575
X5.5512Y-2.1555
X5.5512Y-2.6575
X5.7874Y-2.0472
X5.7874Y-2.8346
X6.0827Y-2.185
X6.0827Y-2.8346
X6.5354Y-1.8602
X6.5354Y-2.0571
X6.5354Y-2.2539
X6.5354Y-2.8543
X6.8307Y-1.8602
X6.8307Y-2.0571
X6.8307Y-2.2539
X6.8307Y-2.8543
X7.3228Y-1.8602
X7.3228Y-2.0571
X7.3228Y-2.2539
X7.3228Y-2.8543
X7.6181Y-1.8602
X7.6181Y-2.0571
X7.6181Y-2.2539
X7.6181Y-2.8543
X8.2283Y-2.8504
X8.2874Y-1.9055
X8.4646Y-2.8504
X8.622Y-1.9055
X8.7992Y-2.8504
X9.1339Y-2.8504
X9.252Y-1.9055
X9.3701Y-2.8504
T5
X2.3661Y-1.1575
X2.563Y-1.1575
X6.3504Y-1.1575
X6.5472Y-1.1575
X6.7441Y-1.1575
X6.9409Y-1.1575
X7.3138Y-4.3071
X7.7075Y-4.3071
X8.311Y-1.126
X8.5079Y-1.126
X8.7047Y-1.126
X8.7626Y-4.2992
X8.9016Y-1.126
X9.0984Y-1.126
X9.1563Y-4.2992
X9.2953Y-1.126
T0
M30
