%TF.GenerationSoftware,KiCad,Pcbnew,(6.0.9)*%
%TF.CreationDate,2022-12-30T23:11:11-05:00*%
%TF.ProjectId,reflow,7265666c-6f77-42e6-9b69-6361645f7063,rev?*%
%TF.SameCoordinates,Original*%
%TF.FileFunction,Soldermask,Bot*%
%TF.FilePolarity,Negative*%
%FSLAX46Y46*%
G04 Gerber Fmt 4.6, Leading zero omitted, Abs format (unit mm)*
G04 Created by KiCad (PCBNEW (6.0.9)) date 2022-12-30 23:11:11*
%MOMM*%
%LPD*%
G01*
G04 APERTURE LIST*
%ADD10C,0.150000*%
%ADD11C,4.000000*%
%ADD12C,3.200000*%
%ADD13R,1.700000X1.700000*%
%ADD14O,1.700000X1.700000*%
%ADD15R,1.500000X1.500000*%
%ADD16C,1.500000*%
%ADD17C,3.000000*%
%ADD18R,4.000000X4.000000*%
%ADD19C,1.700000*%
%ADD20C,2.200000*%
G04 APERTURE END LIST*
D10*
G36*
X245000000Y-58600000D02*
G01*
X207600000Y-58400000D01*
X204000000Y-58400000D01*
X202400000Y-59000000D01*
X199200000Y-63400000D01*
X160000000Y-63400000D01*
X156600000Y-60200000D01*
X155000000Y-59400000D01*
X134000000Y-59400000D01*
X129600000Y-57800000D01*
X129600000Y-23800000D01*
X245000000Y-23800000D01*
X245000000Y-58600000D01*
G37*
X245000000Y-58600000D02*
X207600000Y-58400000D01*
X204000000Y-58400000D01*
X202400000Y-59000000D01*
X199200000Y-63400000D01*
X160000000Y-63400000D01*
X156600000Y-60200000D01*
X155000000Y-59400000D01*
X134000000Y-59400000D01*
X129600000Y-57800000D01*
X129600000Y-23800000D01*
X245000000Y-23800000D01*
X245000000Y-58600000D01*
D11*
%TO.C,J2*%
X211100000Y-28600000D03*
X216100000Y-28600000D03*
X221100000Y-28600000D03*
X226100000Y-28600000D03*
X231100000Y-28600000D03*
X236100000Y-28600000D03*
%TD*%
D12*
%TO.C,H8*%
X243200000Y-36000000D03*
%TD*%
%TO.C,H7*%
X76800000Y-92800000D03*
%TD*%
%TO.C,H6*%
X41800000Y-26600000D03*
%TD*%
%TO.C,H5*%
X96400000Y-26800000D03*
%TD*%
%TO.C,H4*%
X41800000Y-149000000D03*
%TD*%
%TO.C,H3*%
X243400000Y-149400000D03*
%TD*%
%TO.C,H2*%
X144800000Y-26800000D03*
%TD*%
%TO.C,~*%
X169400000Y-92600000D03*
%TD*%
D13*
%TO.C,J6*%
X80400000Y-53800000D03*
D14*
X80400000Y-56340000D03*
X80400000Y-58880000D03*
X80400000Y-61420000D03*
X80400000Y-63960000D03*
X80400000Y-66500000D03*
X80400000Y-69040000D03*
%TD*%
D15*
%TO.C,U9*%
X87200000Y-120742500D03*
D16*
X89740000Y-120742500D03*
X92280000Y-120742500D03*
X94820000Y-120742500D03*
X97360000Y-120742500D03*
X99900000Y-120742500D03*
X99900000Y-105502500D03*
X97360000Y-105502500D03*
X94820000Y-105502500D03*
X92280000Y-105502500D03*
X89740000Y-105502500D03*
X87200000Y-105502500D03*
%TD*%
D15*
%TO.C,U10*%
X87200000Y-140800000D03*
D16*
X89740000Y-140800000D03*
X92280000Y-140800000D03*
X94820000Y-140800000D03*
X97360000Y-140800000D03*
X99900000Y-140800000D03*
X99900000Y-125560000D03*
X97360000Y-125560000D03*
X94820000Y-125560000D03*
X92280000Y-125560000D03*
X89740000Y-125560000D03*
X87200000Y-125560000D03*
%TD*%
D11*
%TO.C,J3*%
X60100000Y-29400000D03*
X65100000Y-29400000D03*
%TD*%
D17*
%TO.C,K2*%
X166000000Y-72500000D03*
X166000000Y-57250000D03*
X166000000Y-52250000D03*
X166000000Y-47250000D03*
X173500000Y-47250000D03*
X173500000Y-52250000D03*
X173500000Y-57250000D03*
X173500000Y-72500000D03*
%TD*%
D18*
%TO.C,C7*%
X222569501Y-109200000D03*
D11*
X232569501Y-109200000D03*
%TD*%
D19*
%TO.C,SW1*%
X63080000Y-93000000D03*
X52920000Y-93000000D03*
D11*
X58000000Y-93000000D03*
D20*
X60540000Y-87920000D03*
X54190000Y-90460000D03*
%TD*%
D17*
%TO.C,K4*%
X141000000Y-54750000D03*
X141000000Y-67500000D03*
X133500000Y-67500000D03*
X133500000Y-52000000D03*
%TD*%
D13*
%TO.C,J1*%
X112860000Y-97200000D03*
D14*
X115400000Y-97200000D03*
X117940000Y-97200000D03*
X120480000Y-97200000D03*
%TD*%
D17*
%TO.C,K3*%
X147000000Y-52000000D03*
X154500000Y-72000000D03*
X147000000Y-72000000D03*
X154500000Y-55500000D03*
%TD*%
D19*
%TO.C,SW2*%
X52920000Y-113000000D03*
X63080000Y-113000000D03*
D11*
X58000000Y-113000000D03*
D20*
X60540000Y-107920000D03*
X54190000Y-110460000D03*
%TD*%
D13*
%TO.C,J5*%
X119525000Y-42875000D03*
D14*
X122065000Y-42875000D03*
X119525000Y-45415000D03*
X122065000Y-45415000D03*
X119525000Y-47955000D03*
X122065000Y-47955000D03*
%TD*%
D15*
%TO.C,U12*%
X138600000Y-140700000D03*
D16*
X141140000Y-140700000D03*
X143680000Y-140700000D03*
X146220000Y-140700000D03*
X148760000Y-140700000D03*
X151300000Y-140700000D03*
X151300000Y-125460000D03*
X148760000Y-125460000D03*
X146220000Y-125460000D03*
X143680000Y-125460000D03*
X141140000Y-125460000D03*
X138600000Y-125460000D03*
%TD*%
D17*
%TO.C,K1*%
X186000000Y-72500000D03*
X186000000Y-57250000D03*
X186000000Y-52250000D03*
X186000000Y-47250000D03*
X193500000Y-47250000D03*
X193500000Y-52250000D03*
X193500000Y-57250000D03*
X193500000Y-72500000D03*
%TD*%
D18*
%TO.C,C6*%
X185769501Y-109400000D03*
D11*
X195769501Y-109400000D03*
%TD*%
%TO.C,SW4*%
X57940000Y-72920000D03*
D19*
X63020000Y-72920000D03*
X52860000Y-72920000D03*
D20*
X60480000Y-67840000D03*
X54130000Y-70380000D03*
%TD*%
D15*
%TO.C,U11*%
X138600000Y-120800000D03*
D16*
X141140000Y-120800000D03*
X143680000Y-120800000D03*
X146220000Y-120800000D03*
X148760000Y-120800000D03*
X151300000Y-120800000D03*
X151300000Y-105560000D03*
X148760000Y-105560000D03*
X146220000Y-105560000D03*
X143680000Y-105560000D03*
X141140000Y-105560000D03*
X138600000Y-105560000D03*
%TD*%
D17*
%TO.C,TRE1*%
X219000000Y-48400000D03*
X235000000Y-48400000D03*
X210500000Y-48400000D03*
X209000000Y-72400000D03*
X215000000Y-72400000D03*
X223500000Y-72400000D03*
X232000000Y-72400000D03*
X238000000Y-72400000D03*
%TD*%
D19*
%TO.C,SW3*%
X52860000Y-133120000D03*
D11*
X57940000Y-133120000D03*
D19*
X63020000Y-133120000D03*
D20*
X60480000Y-128040000D03*
X54130000Y-130580000D03*
%TD*%
D11*
%TO.C,J4*%
X161300000Y-29400000D03*
X166300000Y-29400000D03*
X171300000Y-29400000D03*
X176300000Y-29400000D03*
%TD*%
M02*
